<?xml version="1.0" encoding="UTF-8" standalone="no"?><!-- Generator: Gravit.io --><svg xmlns="http://www.w3.org/2000/svg" xmlns:xlink="http://www.w3.org/1999/xlink" style="isolation:isolate" viewBox="0 0 30 27" width="30pt" height="27pt"><defs><clipPath id="_clipPath_nJgBrrmsjYaq7UiJTr9J80025UjYuCgj"><rect width="30" height="27"/></clipPath></defs><g clip-path="url(#_clipPath_nJgBrrmsjYaq7UiJTr9J80025UjYuCgj)"><g><path d=" M 6 26 L 5 24 L 0 10 L 10 13 L 11 14 L 18 12 L 19 0 L 30 15 L 28 18 L 20 27 L 6 26 Z " fill="rgb(186,7,5)"/><path d=" M 10 13 L 11 14 L 6 26 L 10 13 Z " fill="rgb(0,0,0)"/><path d=" M 30 15 L 18 12 L 18 11 L 29 14 L 30 15 Z " fill="rgb(0,0,0)"/><path d=" M 6 26 L 30 15 L 30 15 L 30 17 L 20 27 L 6 26 Z " fill="rgb(160,7,5)"/><path d=" M 14 13 L 15.165 13 L 18.661 19.765 L 14 13 Z " fill="rgb(255,255,255)"/><path d=" M 19.451 19.765 L 18.661 20.378 L 20 27 L 19.451 19.765 Z " fill="rgb(255,255,255)"/></g></g></svg>