<?xml version="1.0" encoding="UTF-8" standalone="no"?><!-- Generator: Gravit.io --><svg xmlns="http://www.w3.org/2000/svg" xmlns:xlink="http://www.w3.org/1999/xlink" style="isolation:isolate" viewBox="0 0 515.901 180.55" width="515.901pt" height="180.55pt"><defs><clipPath id="_clipPath_g5xjaERixzVEDnvc6Q0cpZEzBd6iU113"><rect width="515.901" height="180.55"/></clipPath></defs><g clip-path="url(#_clipPath_g5xjaERixzVEDnvc6Q0cpZEzBd6iU113)"><rect width="515.901" height="180.55" style="fill:rgb(55,49,49)" fill-opacity="0"/><g><path d=" M 226.53 132.2 L 189.53 132.2 L 189.53 119.2 L 201.197 119.2 L 201.197 48.55 L 189.53 48.55 L 189.53 35.3 L 216.863 35.3 L 216.863 51.8 L 240.197 37.8 Q 258.863 31.3 262.863 48.55 L 262.863 66.8 L 247.863 66.8 L 247.863 48.55 L 216.863 66.8 L 216.863 119.2 L 226.53 119.2 L 226.53 132.2 Z  M 326.113 119.2 L 326.113 132.2 L 308.488 132.2 Q 295.363 130.975 293.863 120.8 L 292.363 48.55 L 278.863 48.55 L 278.863 35.3 L 292.363 35.3 L 292.363 0 L 308.488 0 L 308.488 35.3 L 323.113 35.3 L 323.113 48.55 L 308.488 48.55 L 308.488 119.2 L 326.113 119.2 Z  M 412.413 108.75 L 412.413 119.391 Q 412.012 131.536 400.513 132.2 L 353.638 132.2 Q 343.063 132.478 342.013 119.2 L 342.013 51.525 Q 342.838 35.525 356.263 35.3 Q 369.688 35.075 397.888 35.3 Q 413.001 36.366 412.832 48.469 L 356.263 48.55 L 356.263 90 L 397.888 64.875 L 397.888 48.55 L 412.832 48.681 L 412.888 69.75 L 356.263 105.75 L 356.263 119.2 L 397.888 119.2 L 397.888 108.75 L 412.413 108.75 Z  M 515.901 119.2 L 515.901 132.2 L 497.151 132.2 L 472.213 93.6 L 447.276 132.2 L 428.526 132.2 L 428.526 119.2 L 437.713 119.2 L 463.963 81.975 L 441.276 48.55 L 430.588 48.55 L 430.588 35.3 L 447.276 35.3 L 472.213 69.75 L 497.151 35.3 L 513.838 35.3 L 513.838 48.55 L 503.151 48.55 L 480.463 81.975 L 506.151 119.2 L 515.901 119.2 Z  M 173.063 116.2 C 173.026 118.475 174.713 131.475 157.397 132.2 L 117.73 132.2 Q 102.397 131.533 102.063 116.2 L 102.063 48.55 Q 102.551 34.813 115.488 35.3 C 142.955 35.3 156.924 35.3 157.397 35.3 Q 173.376 34.575 173.063 48.55 L 117.73 48.55 L 117.73 119.2 L 157.397 119.2 L 157.397 48.55 L 173.063 48.55 Q 173.097 114.173 173.063 116.2 Z  M 84.513 180.55 L 44.513 180.55 L 44.513 167.8 L 56.263 167.8 L 56.263 111.3 L 24.263 130.55 Q 2.513 142.3 0.013 116.8 L 0.013 53.3 Q -0.487 34.8 17.763 35.3 L 84.513 35.3 L 84.513 48.55 L 15.263 48.55 L 15.263 120.8 L 56.263 95.3 L 56.263 48.55 L 72.763 48.55 L 72.763 167.8 L 84.513 167.8 L 84.513 180.55 Z " fill-rule="evenodd" fill="rgb(0,0,0)"/></g></g></svg>