<?xml version="1.0" encoding="UTF-8" standalone="no"?><!-- Generator: Gravit.io --><svg xmlns="http://www.w3.org/2000/svg" xmlns:xlink="http://www.w3.org/1999/xlink" style="isolation:isolate" viewBox="0 0 138.435 282.113" width="138.435pt" height="282.113pt"><g><defs><filter id="35C7K5L2wuxH6xrnkNVFX7XJRXUAvQSh" x="-200%" y="-200%" width="400%" height="400%" filterUnits="objectBoundingBox" color-interpolation-filters="sRGB"><feOffset xmlns="http://www.w3.org/2000/svg" in="SourceGraphic" dx="0" dy="0"/><feGaussianBlur xmlns="http://www.w3.org/2000/svg" stdDeviation="2.146804531419514" result="pf_100_offsetBlur"/><feComposite xmlns="http://www.w3.org/2000/svg" in="SourceGraphic" in2="pf_100_offsetBlur" result="pf_100_inverse" operator="out"/><feFlood xmlns="http://www.w3.org/2000/svg" flood-color="#000000" flood-opacity="0.5" result="pf_100_color"/><feComposite xmlns="http://www.w3.org/2000/svg" in="pf_100_color" in2="pf_100_inverse" operator="in" result="pf_100_shadow"/><feComposite xmlns="http://www.w3.org/2000/svg" in="pf_100_shadow" in2="SourceGraphic" operator="over"/></filter></defs><g filter="url(#35C7K5L2wuxH6xrnkNVFX7XJRXUAvQSh)"><path d=" M 83.829 279.113 L 64.254 271.574 L 65.319 244.907 L 41.315 202.74 L 54.467 203.919 L 62.113 194.188 L 66.395 200.676 L 68.23 195.958 L 71.289 130.012 Q 65.531 113.181 50.491 108.191 Q 35.451 103.202 35.726 105.433 Q 31.75 99.934 27.468 93.152 Q 23.186 86.37 3 38.064 L 48.878 51.038 L 53.16 54.872 L 83.829 45.436 L 83.829 43.666 L 82.522 43.666 L 88.639 3 L 135.435 57.552 Q 129.012 72.001 127.177 72.001 C 125.342 72.001 109.279 101.873 107.602 115.777 C 104.691 136.373 104.26 149.954 103.849 154.155 L 106.073 237.616 L 109.437 252.065 L 103.626 274.663 L 88.639 266.996 L 83.829 279.113 Z " fill="rgb(186,7,5)" vector-effect="non-scaling-stroke" stroke-width="2" stroke="rgb(186,7,5)" stroke-linejoin="miter" stroke-linecap="square" stroke-miterlimit="3"/></g><g><defs><filter id="kMu1sFCIvbmaDNwvyg8pQe1V2XXtkx69" x="-200%" y="-200%" width="400%" height="400%" filterUnits="objectBoundingBox" color-interpolation-filters="sRGB"><feOffset xmlns="http://www.w3.org/2000/svg" in="SourceGraphic" dx="-7" dy="0"/><feGaussianBlur xmlns="http://www.w3.org/2000/svg" stdDeviation="5.152330875406834" result="pf_100_offsetBlur"/><feComposite xmlns="http://www.w3.org/2000/svg" in="SourceGraphic" in2="pf_100_offsetBlur" result="pf_100_inverse" operator="out"/><feFlood xmlns="http://www.w3.org/2000/svg" flood-color="#000000" flood-opacity="0.3" result="pf_100_color"/><feComposite xmlns="http://www.w3.org/2000/svg" in="pf_100_color" in2="pf_100_inverse" operator="in" result="pf_100_shadow"/><feComposite xmlns="http://www.w3.org/2000/svg" in="pf_100_shadow" in2="SourceGraphic" operator="over"/></filter></defs><g filter="url(#kMu1sFCIvbmaDNwvyg8pQe1V2XXtkx69)"><path d=" M 66.606 233.32 L 54.058 203.919 L 61.873 193.337 L 68.23 202.34 L 66.606 233.32 Z " fill="rgb(138,6,4)"/></g><defs><filter id="aR5296KgLQOTFSwS2U1O6smrC9tG5r4z" x="-200%" y="-200%" width="400%" height="400%" filterUnits="objectBoundingBox" color-interpolation-filters="sRGB"><feOffset xmlns="http://www.w3.org/2000/svg" in="SourceGraphic" dx="0" dy="-5"/><feGaussianBlur xmlns="http://www.w3.org/2000/svg" stdDeviation="2.146804531419514" result="pf_100_offsetBlur"/><feComposite xmlns="http://www.w3.org/2000/svg" in="SourceGraphic" in2="pf_100_offsetBlur" result="pf_100_inverse" operator="out"/><feFlood xmlns="http://www.w3.org/2000/svg" flood-color="#000000" flood-opacity="0.3" result="pf_100_color"/><feComposite xmlns="http://www.w3.org/2000/svg" in="pf_100_color" in2="pf_100_inverse" operator="in" result="pf_100_shadow"/><feComposite xmlns="http://www.w3.org/2000/svg" in="pf_100_shadow" in2="SourceGraphic" operator="over"/></filter></defs><g filter="url(#aR5296KgLQOTFSwS2U1O6smrC9tG5r4z)"><path d=" M 53.635 226.559 L 41.315 202.34 L 54.058 203.919 L 66.606 233.32 L 64.904 247.347 L 53.635 226.559 Z " fill="rgb(157,8,5)"/></g><path d=" M 66.151 250.684 L 54.058 227.131 L 61.978 233.766 L 66.606 241.06 L 66.151 250.684 Z " fill="rgb(111,13,2)"/></g><g><linearGradient id="_lgradient_52" x1="1.1149363457055774" y1="-0.08081979891724739" x2="0.19974896897973882" y2="0.8592420726991483" gradientTransform="matrix(21.806,0,0,38.994,30.84,55.351)" gradientUnits="userSpaceOnUse"><stop offset="0%" stop-opacity="1" style="stop-color:rgb(190,7,7)"/><stop offset="100%" stop-opacity="1" style="stop-color:rgb(182,7,0)"/></linearGradient><path d=" M 33.944 94.345 L 52.646 55.351 L 30.84 93.898 L 33.944 94.345 Z " fill="url(#_lgradient_52)"/><linearGradient id="_lgradient_53" x1="1.1387501267160418" y1="-0.14668227116359794" x2="0.20720236371052714" y2="0.7855168064441025" gradientTransform="matrix(20.037,0,0,37.148,32.61,52.593)" gradientUnits="userSpaceOnUse"><stop offset="0.8333333333333334%" stop-opacity="1" style="stop-color:rgb(215,93,93)"/><stop offset="98.33333333333333%" stop-opacity="1" style="stop-color:rgb(181,1,1)"/></linearGradient><path d=" M 32.61 89.741 L 52.646 54.215 L 50.989 52.593 L 32.61 89.741 Z " fill="url(#_lgradient_53)"/><path d=" M 31.307 88.77 L 27.659 93.899 L 16.315 70.045 L 3 38.064 L 45.998 49.917 L 48.878 51.899 L 31.307 88.77 Z " fill="rgb(186,7,5)"/><linearGradient id="_lgradient_54" x1="1.1149363457055774" y1="-0.08081979891724739" x2="0.19974896897973882" y2="0.8592420726991483" gradientTransform="matrix(21.806,0,0,38.994,30.84,55.351)" gradientUnits="userSpaceOnUse"><stop offset="0.8333333333333334%" stop-opacity="1" style="stop-color:rgb(171,42,17)"/><stop offset="99.16666666666667%" stop-opacity="1" style="stop-color:rgb(110,27,11)"/></linearGradient><path d=" M 33.944 94.345 L 52.646 55.351 L 30.84 93.898 L 33.944 94.345 Z " fill="url(#_lgradient_54)"/></g><g filter="url(#Xq8SmDXs7ZfawnZvuILmZVGK8R1ukwyr)"><path d=" M 131.873 54.215 L 82.564 43.539 L 88.289 3.067 L 131.873 54.215 Z " fill="rgb(198,27,8)"/><defs><filter id="7mqBmkhD4nCnrqbKdIR0HDPgKEvFDIGZ" x="-200%" y="-200%" width="400%" height="400%" filterUnits="objectBoundingBox" color-interpolation-filters="sRGB"><feGaussianBlur xmlns="http://www.w3.org/2000/svg" stdDeviation="0"/></filter></defs><g filter="url(#7mqBmkhD4nCnrqbKdIR0HDPgKEvFDIGZ)"><path d=" M 83.477 43.861 L 83.649 45.188 L 134.48 57.537 L 131.873 54.215 L 83.477 43.861 Z " fill="rgb(136,35,26)"/></g><defs><filter id="3dpte83r8wRDK7WfJWCk0FJVq5JczC4p" x="-200%" y="-200%" width="400%" height="400%" filterUnits="objectBoundingBox" color-interpolation-filters="sRGB"><feGaussianBlur xmlns="http://www.w3.org/2000/svg" stdDeviation="0"/></filter></defs><g filter="url(#3dpte83r8wRDK7WfJWCk0FJVq5JczC4p)"><path d=" M 83.649 45.531 L 79.661 46.651 L 79.186 49.917 L 124.752 61.978 L 131.873 60.063 L 134.48 57.537 L 83.649 45.531 Z " fill="rgb(160,7,5)"/></g></g><defs><filter id="Xq8SmDXs7ZfawnZvuILmZVGK8R1ukwyr" x="-200%" y="-200%" width="400%" height="400%" filterUnits="objectBoundingBox" color-interpolation-filters="sRGB"><feGaussianBlur xmlns="http://www.w3.org/2000/svg" stdDeviation="0"/></filter></defs><g><path d=" M 33.944 99.432 L 86.715 77.979 L 87.349 86.617 L 88.289 99.432 L 33.944 99.432 Z " fill="rgb(160,7,5)"/><path d=" M 133.333 59.181 L 86.715 77.979 L 88.289 99.432 L 117.505 77.979 L 127.369 70.045 L 133.333 59.181 Z " fill="rgb(160,7,5)"/></g><g><defs><filter id="HEaa2c5HcUusvV0JPfEsX6qeTvXQwuiw" x="-200%" y="-200%" width="400%" height="400%" filterUnits="objectBoundingBox" color-interpolation-filters="sRGB"><feGaussianBlur xmlns="http://www.w3.org/2000/svg" stdDeviation="0.7299135406826348"/></filter></defs><g filter="url(#HEaa2c5HcUusvV0JPfEsX6qeTvXQwuiw)"><linearGradient id="_lgradient_55" x1="1.1403480868440226" y1="-0.15349115699666652" x2="-0.8247248692603555" y2="1.843089526778647" gradientTransform="matrix(8.877,-6.278,11.546,15.174,76.743,84.258)" gradientUnits="userSpaceOnUse"><stop offset="0.8333333333333334%" stop-opacity="1" style="stop-color:rgb(249,138,138)"/><stop offset="98.33333333333333%" stop-opacity="1" style="stop-color:rgb(181,1,1)"/></linearGradient><path d=" M 88.289 99.432 L 86.124 78.642 L 84.886 78.499 L 88.289 99.432 Z " fill="url(#_lgradient_55)"/></g><linearGradient id="_lgradient_56" x1="1.1387501267160418" y1="-0.14668227116359794" x2="0.20720236371052714" y2="0.7855168064441025" gradientTransform="matrix(7.912,-8.413,20.47,17.895,63.179,56.953)" gradientUnits="userSpaceOnUse"><stop offset="0%" stop-opacity="1" style="stop-color:rgb(215,93,93)"/><stop offset="97.91666666666666%" stop-opacity="1" style="stop-color:rgb(215,55,55)"/></linearGradient><path d=" M 83.648 74.848 L 71.985 49.322 L 70.436 49.236 L 83.648 74.848 Z " fill="url(#_lgradient_56)"/></g><g><path d=" M 33.944 99.432 L 66.142 101.315 L 75.93 103.379 L 83.576 106.623 L 84.8 109.867 L 33.944 99.432 Z " fill="rgb(111,13,2)"/><path d=" M 86.715 106.623 L 88.289 101.315 L 124.616 71.8 L 86.715 109.867 L 84.8 109.867 L 83.576 106.623 L 86.715 106.623 Z " fill="rgb(111,13,2)"/></g><g><path d=" M 125.701 71.8 L 84.8 110.691 L 88.289 115.777 L 86.715 179.672 L 86.715 220.325 L 88.639 261.824 L 89.069 267.505 L 94.01 270.221 L 99.951 273.359 L 95.133 163.729 L 96.51 126.974 C 97.632 124.119 97.049 120.114 98.221 117.354 C 99.393 114.593 100.215 108.965 101.432 106.296 L 125.701 71.8 Z " fill="rgb(138,6,4)"/><defs><filter id="9wG077OkUUS8ONzpt5j810lixeo2N1x6" x="-200%" y="-200%" width="400%" height="400%" filterUnits="objectBoundingBox" color-interpolation-filters="sRGB"><feOffset xmlns="http://www.w3.org/2000/svg" in="SourceGraphic" dx="-5" dy="0"/><feGaussianBlur xmlns="http://www.w3.org/2000/svg" stdDeviation="2.576165437703417" result="pf_100_offsetBlur"/><feComposite xmlns="http://www.w3.org/2000/svg" in="SourceGraphic" in2="pf_100_offsetBlur" result="pf_100_inverse" operator="out"/><feFlood xmlns="http://www.w3.org/2000/svg" flood-color="#512727" flood-opacity="0.4" result="pf_100_color"/><feComposite xmlns="http://www.w3.org/2000/svg" in="pf_100_color" in2="pf_100_inverse" operator="in" result="pf_100_shadow"/><feComposite xmlns="http://www.w3.org/2000/svg" in="pf_100_shadow" in2="SourceGraphic" operator="over"/></filter></defs><g filter="url(#9wG077OkUUS8ONzpt5j810lixeo2N1x6)"><path d=" M 125.377 72.054 Q 120.621 82.804 116.107 89.741 C 106.832 103.996 104.12 112.301 103.626 114.485 L 102.445 120.524 L 101.432 129.148 L 99.629 156.78 L 99.629 202.74 L 102.445 243.232 L 103.849 275.29 L 99.951 273.359 Q 95.059 204.439 94.78 202.539 L 94.78 156.136 L 95.928 129.148 L 97.066 120.524 L 98.221 114.109 L 99.629 108.562 L 101.432 104.378 L 125.377 72.054 Z " fill="rgb(138,6,4)"/></g><path d=" M 79.617 113.911 L 86.398 118.057 L 83.692 281 L 63.505 273.149 L 70.387 130.844 Q 68.422 120.837 62.113 115.414 L 54.467 109.156 L 79.617 113.911 Z " fill="rgb(157,8,5)"/></g><g><path d=" M 69.535 124.879 Q 70.369 126.353 73.511 133.725 L 79.934 145.225 L 85.575 119.035 L 77.487 123.404 L 69.535 124.879 Z " fill="rgb(111,13,2)"/><defs><filter id="cow5I46uFSq9PHJuF0TvtGGroEIARpUx" x="-200%" y="-200%" width="400%" height="400%" filterUnits="objectBoundingBox" color-interpolation-filters="sRGB"><feOffset xmlns="http://www.w3.org/2000/svg" in="SourceGraphic" dx="-8" dy="14"/><feGaussianBlur xmlns="http://www.w3.org/2000/svg" stdDeviation="7.299135406826348" result="pf_100_offsetBlur"/><feComposite xmlns="http://www.w3.org/2000/svg" in="SourceGraphic" in2="pf_100_offsetBlur" result="pf_100_inverse" operator="out"/><feFlood xmlns="http://www.w3.org/2000/svg" flood-color="#512222" flood-opacity="0.4" result="pf_100_color"/><feComposite xmlns="http://www.w3.org/2000/svg" in="pf_100_color" in2="pf_100_inverse" operator="in" result="pf_100_shadow"/><feComposite xmlns="http://www.w3.org/2000/svg" in="pf_100_shadow" in2="SourceGraphic" operator="over"/></filter></defs><g filter="url(#cow5I46uFSq9PHJuF0TvtGGroEIARpUx)"><path d=" M 77.487 123.404 L 85.575 119.035 L 79.934 145.225 L 78.925 126.019 L 77.487 123.404 Z " fill="rgb(111,13,2)"/></g></g></g></svg>