<?xml version="1.0" encoding="UTF-8" standalone="no"?><!-- Generator: Gravit.io --><svg xmlns="http://www.w3.org/2000/svg" xmlns:xlink="http://www.w3.org/1999/xlink" style="isolation:isolate" viewBox="0.65 0.65 31 28" width="31pt" height="28pt"><defs><clipPath id="_clipPath_Mca2RmEddqpgp3Fc0Alt7Fwf4x0pHrtQ"><rect width="32" height="32"/></clipPath></defs><g clip-path="url(#_clipPath_Mca2RmEddqpgp3Fc0Alt7Fwf4x0pHrtQ)"><g><path d=" M 7 27 L 6 25 L 1 11 L 11 14 L 12 15 L 19 13 L 20 1 L 31 16 L 29 19 L 21 28 L 7 27 Z " fill="rgb(186,7,5)"/><path d=" M 11 14 L 12 15 L 7 27 L 11 14 Z " fill="rgb(255,166,166)"/><path d=" M 31 16 L 19 13 L 19 12 L 30 15 L 31 16 Z " fill="rgb(77,5,0)"/><path d=" M 7 27 L 31 16 L 31 16 L 31 18 L 21 28 L 7 27 Z " fill="rgb(160,7,5)"/><path d=" M 15 14 L 16 14 L 19 20 L 15 14 Z " fill="rgb(240,211,211)"/><path d=" M 20.451 20.765 L 19.661 21.378 L 21 28 L 20.451 20.765 Z " fill="rgb(240,211,211)"/></g></g><defs><clipPath id="_clipPath_1vj7H3sP8PsSbL3IWYB8pAaF41NxwFcT"><rect width="32" height="32"/></clipPath></defs><g clip-path="url(#_clipPath_1vj7H3sP8PsSbL3IWYB8pAaF41NxwFcT)"><g><path d=" M 7 27 L 6 25 L 1 11 L 11 14 L 12 15 L 19 13 L 20 1 L 31 16 L 29 19 L 21 28 L 7 27 Z " fill="rgb(72,87,120)"/><path d=" M 11 14 L 12 15 L 7 27 L 11 14 Z " fill="rgb(6,12,25)"/><path d=" M 31 16 L 19 13 L 19 12 L 30 15 L 31 16 Z " fill="rgb(6,12,25)"/><path d=" M 7 27 L 31 16 L 31 16 L 31 18 L 21 28 L 7 27 Z " fill="rgb(6,12,25)"/><path d=" M 15 14 L 16 14 L 19 20 L 15 14 Z " fill="rgb(6,12,25)"/><path d=" M 20.451 20.765 L 19.661 21.378 L 21 28 L 20.451 20.765 Z " fill="rgb(72,87,120)"/></g></g><defs><clipPath id="_clipPath_Fz68TRydg37qaJRvCIutasYbuMvOHCPA"><rect width="32" height="32"/></clipPath></defs><g clip-path="url(#_clipPath_Fz68TRydg37qaJRvCIutasYbuMvOHCPA)"><g><path d=" M 7 27 L 6 25 L 1 11 L 11 14 L 12 15 L 19 13 L 20 1 L 31 16 L 29 19 L 21 28 L 7 27 Z " fill="rgb(0,134,249)"/><path d=" M 11 14 L 12 15 L 7 27 L 11 14 Z " fill="rgb(0,255,255)"/><path d=" M 31 16 L 19 13 L 19 12 L 30 15 L 31 16 Z " fill="rgb(0,57,106)"/><path d=" M 7 27 L 31 16 L 31 16 L 31 18 L 21 28 L 7 27 Z " fill="rgb(2,82,151)"/><path d=" M 15 14 L 16 14 L 19 20 L 15 14 Z " fill="rgb(149,255,255)"/><path d=" M 20.451 20.765 L 19.661 21.378 L 21 28 L 20.451 20.765 Z " fill="rgb(149,255,255)"/></g></g><defs><clipPath id="_clipPath_AGrun8Pn3UgEZ9xadtui5aYu8gDrFZNC"><rect width="32" height="32"/></clipPath></defs><g clip-path="url(#_clipPath_AGrun8Pn3UgEZ9xadtui5aYu8gDrFZNC)"><g><path d=" M 7 27 L 6 25 L 1 11 L 11 14 L 12 15 L 19 13 L 20 1 L 31 16 L 29 19 L 21 28 L 7 27 Z " fill="rgb(186,7,5)"/><path d=" M 11 14 L 12 15 L 7 27 L 11 14 Z " fill="rgb(0,0,0)"/><path d=" M 31 16 L 19 13 L 19 12 L 30 15 L 31 16 Z " fill="rgb(0,0,0)"/><path d=" M 7 27 L 31 16 L 31 16 L 31 18 L 21 28 L 7 27 Z " fill="rgb(160,7,5)"/><path d=" M 15 14 L 16.165 14 L 19.661 20.765 L 15 14 Z " fill="rgb(255,255,255)"/><path d=" M 20.451 20.765 L 19.661 21.378 L 21 28 L 20.451 20.765 Z " fill="rgb(255,255,255)"/></g></g><defs><clipPath id="_clipPath_AtJpBOrsCXbzSuZKZBfbNdpcKB90nqFe"><rect width="32" height="32"/></clipPath></defs><g clip-path="url(#_clipPath_AtJpBOrsCXbzSuZKZBfbNdpcKB90nqFe)"><g><path d=" M 7 27 L 6 25 L 1 11 L 11 14 L 12 15 L 19 13 L 24.234 9 L 31 16 L 29 19 L 21 28 L 7 27 Z " fill="rgb(186,7,5)"/><polygon points="30,14.717,18.468,16.448,20.042,1" fill="rgb(186,7,5)"/><path d=" M 11 14 L 12 15 L 7 27 L 11 14 Z " fill="rgb(255,166,166)"/><path d=" M 31 16 L 19 13 L 19 12 L 30 15 L 31 16 Z " fill="rgb(77,5,0)"/><path d=" M 7 27 L 31 16 L 31 16 L 31 18 L 21 28 L 7 27 Z " fill="rgb(160,7,5)"/><path d=" M 15 14 L 16 14 L 19 20 L 15 14 Z " fill="rgb(240,211,211)"/><path d=" M 20.451 20.765 L 19.661 21.378 L 21 28 L 20.451 20.765 Z " fill="rgb(240,211,211)"/></g></g><defs><clipPath id="_clipPath_wYb4HCTrKoElnniwSAOQuyMUq6dLFZGI"><rect width="32" height="32"/></clipPath></defs><g clip-path="url(#_clipPath_wYb4HCTrKoElnniwSAOQuyMUq6dLFZGI)"><g><path d=" M 7 27 L 6 25 L 1 11 L 11 14 L 12 15 L 19 13 L 20 1 L 31 16 L 29 19 L 21 28 L 7 27 Z " fill="rgb(212,53,21)"/><path d=" M 11 14 L 12 15 L 7 27 L 11 14 Z " fill="rgb(110,27,11)"/><path d=" M 31 16 L 19 13 L 19 12 L 30 15 L 31 16 Z " fill="rgb(110,27,11)"/><path d=" M 7 27 L 31 16 L 31 16 L 31 18 L 21 28 L 7 27 Z " fill="rgb(110,27,11)"/><path d=" M 15 14 L 16 14 L 19 20 L 15 14 Z " fill="rgb(110,27,11)"/><path d=" M 20.451 20.765 L 19.661 21.378 L 21 28 L 20.451 20.765 Z " fill="rgb(212,53,21)"/></g></g></svg>