<?xml version="1.0" encoding="UTF-8" standalone="no"?><!-- Generator: Gravit.io --><svg xmlns="http://www.w3.org/2000/svg" xmlns:xlink="http://www.w3.org/1999/xlink" style="isolation:isolate" viewBox="0 0 517.901 182.55" width="517.901pt" height="182.55pt"><defs><clipPath id="_clipPath_jTaLUDuNiqVsxi7GyS0BRCtzDqm4JEXl"><rect width="517.901" height="182.55"/></clipPath></defs><g clip-path="url(#_clipPath_jTaLUDuNiqVsxi7GyS0BRCtzDqm4JEXl)"><rect width="517.901" height="182.55" style="fill:rgb(34,102,153)" fill-opacity="0"/><g><path d=" M 227.53 133.2 L 190.53 133.2 L 190.53 120.2 L 202.197 120.2 L 202.197 49.55 L 190.53 49.55 L 190.53 36.3 L 217.863 36.3 L 217.863 52.8 L 241.197 38.8 Q 259.863 32.3 263.863 49.55 L 263.863 67.8 L 248.863 67.8 L 248.863 49.55 L 217.863 67.8 L 217.863 120.2 L 227.53 120.2 L 227.53 133.2 Z  M 327.113 120.2 L 327.113 133.2 L 309.488 133.2 Q 296.363 131.975 294.863 121.8 L 293.363 49.55 L 279.863 49.55 L 279.863 36.3 L 293.363 36.3 L 293.363 1 L 309.488 1 L 309.488 36.3 L 324.113 36.3 L 324.113 49.55 L 309.488 49.55 L 309.488 120.2 L 327.113 120.2 Z  M 413.413 109.75 L 413.413 120.391 Q 413.012 132.536 401.513 133.2 L 354.638 133.2 Q 344.063 133.478 343.013 120.2 L 343.013 52.525 Q 343.838 36.525 357.263 36.3 Q 370.688 36.075 398.888 36.3 Q 414.001 37.366 413.832 49.469 L 357.263 49.55 L 357.263 91 L 398.888 65.875 L 398.888 49.55 L 413.832 49.681 L 413.888 70.75 L 357.263 106.75 L 357.263 120.2 L 398.888 120.2 L 398.888 109.75 L 413.413 109.75 Z  M 516.901 120.2 L 516.901 133.2 L 498.151 133.2 L 473.213 94.6 L 448.276 133.2 L 429.526 133.2 L 429.526 120.2 L 438.713 120.2 L 464.963 82.975 L 442.276 49.55 L 431.588 49.55 L 431.588 36.3 L 448.276 36.3 L 473.213 70.75 L 498.151 36.3 L 514.838 36.3 L 514.838 49.55 L 504.151 49.55 L 481.463 82.975 L 507.151 120.2 L 516.901 120.2 Z  M 174.063 117.2 C 174.026 119.475 175.713 132.475 158.397 133.2 L 118.73 133.2 Q 103.397 132.533 103.063 117.2 L 103.063 49.55 Q 103.551 35.813 116.488 36.3 C 143.955 36.3 157.924 36.3 158.397 36.3 Q 174.376 35.575 174.063 49.55 L 118.73 49.55 L 118.73 120.2 L 158.397 120.2 L 158.397 49.55 L 174.063 49.55 Q 174.097 115.173 174.063 117.2 Z  M 85.513 181.55 L 45.513 181.55 L 45.513 168.8 L 57.263 168.8 L 57.263 112.3 L 25.263 131.55 Q 3.513 143.3 1.013 117.8 L 1.013 54.3 Q 0.513 35.8 18.763 36.3 L 85.513 36.3 L 85.513 49.55 L 16.263 49.55 L 16.263 121.8 L 57.263 96.3 L 57.263 49.55 L 73.763 49.55 L 73.763 168.8 L 85.513 168.8 L 85.513 181.55 Z " fill-rule="evenodd" fill="none" vector-effect="non-scaling-stroke" stroke-width="2" stroke="rgb(255,255,255)" stroke-linejoin="miter" stroke-linecap="square" stroke-miterlimit="3"/></g></g></svg>