<?xml version="1.0" encoding="UTF-8" standalone="no"?><!-- Generator: Gravit.io --><svg xmlns="http://www.w3.org/2000/svg" xmlns:xlink="http://www.w3.org/1999/xlink" style="isolation:isolate" viewBox="163.384 45.559 127 274" width="127pt" height="274pt"><defs><clipPath id="_clipPath_S2sHknMtZLPps86TXsROG3Jybyyv6hA5"><rect width="1945" height="1660"/></clipPath></defs><g clip-path="url(#_clipPath_S2sHknMtZLPps86TXsROG3Jybyyv6hA5)"><rect width="1945" height="1660" style="fill:rgb(55,49,49)" fill-opacity="0"/><g><mask id="_mask_8LTGqYRoOKc1ItI0kPzATozRz7LSLTat" x="-200%" y="-200%" width="400%" height="400%"><rect x="-200%" y="-200%" width="400%" height="400%" style="fill:white;"/><path d=" M 1157.28 251.358 L 1157.28 266.004 L 1130.055 266.004 Q 1113.493 261.827 1113.228 246.017 Q 1112.963 230.206 1113.228 226.788 L 1113.228 189.137 L 1113.228 180.377 L 1128.773 180.377 L 1128.987 251.358 L 1157.28 251.358 Z  M 1180.959 225.823 L 1193.94 225.909 L 1194 266.004 L 1157.28 266.004 L 1157.28 251.358 L 1180.959 251.249 L 1180.959 225.823 Z  M 1180.959 145.217 L 1193.94 145.131 L 1194 104.6 L 1157.28 104.6 L 1157.28 119.246 L 1180.959 119.246 L 1180.959 145.217 Z  M 1157.28 119.246 L 1157.28 104.6 L 1130.055 104.6 Q 1113.493 108.777 1113.228 124.587 Q 1112.963 140.398 1113.228 143.816 L 1113.228 180.377 L 1113.101 180.377 L 1128.773 180.377 L 1128.987 119.246 L 1157.28 119.246 Z  M 1023.868 186.826 L 1023.868 251.469 L 1036.788 251.469 L 1036.788 266.004 L 994.797 266.004 L 994.797 251.469 L 1007.717 251.469 L 1007.717 119.035 L 994.797 119.035 L 994.797 104.5 L 1036.788 104.5 L 1036.788 119.035 L 1023.868 119.035 L 1023.868 177.341 L 1074.315 104.5 L 1094.643 104.5 L 1094.643 119.035 L 1082.981 119.035 L 1040.063 182.24 L 1083.617 251.469 L 1095.058 251.469 L 1095.058 266.004 L 1074.055 266.004 L 1023.868 186.826 Z  M 963.628 266.004 L 883.597 266.004 L 883.597 251.469 L 896.284 251.469 L 896.284 189.643 L 896.284 189.643 L 896.284 175.107 L 896.284 175.107 L 896.284 119.035 L 883.597 119.035 L 883.597 104.5 L 896.284 104.5 L 896.284 104.5 L 912.434 104.5 L 963.628 104.5 L 963.628 104.5 L 976.549 104.5 L 976.549 104.5 L 976.549 104.5 L 976.549 119.035 L 976.549 119.035 L 976.549 144.876 L 963.628 144.876 L 963.628 119.035 L 912.434 119.035 L 912.434 175.107 L 940.126 175.107 L 940.126 159.765 L 953.047 159.765 L 953.047 175.107 L 953.047 175.107 L 953.047 189.643 L 953.047 189.643 L 953.047 204.986 L 940.126 204.986 L 940.126 189.643 L 912.434 189.643 L 912.434 251.469 L 963.628 251.469 L 963.628 225.628 L 976.549 225.628 L 976.549 251.469 L 976.549 251.469 L 976.549 266.004 L 976.549 266.004 L 976.549 266.004 L 963.628 266.004 L 963.628 266.004 Z  M 772.562 144.876 L 786.738 144.876 L 786.738 119.035 L 810.964 119.035 L 810.964 172.878 C 814.781 170.348 820.163 170.757 827.114 174.116 L 827.114 174.116 L 827.114 119.035 L 851.339 119.035 L 851.339 144.876 L 865.875 144.876 L 865.875 119.035 L 865.875 119.035 L 865.875 104.5 L 865.875 104.5 L 865.875 104.5 L 851.339 104.5 L 851.339 104.5 L 851.339 104.5 L 827.114 104.5 L 827.114 104.5 L 810.964 104.5 L 810.964 104.5 L 786.738 104.5 L 786.738 104.5 L 786.738 104.5 L 772.562 104.5 L 772.562 144.876 L 772.562 144.876 Z  M 827.114 174.116 L 827.114 251.469 L 840.034 251.469 L 840.034 266.004 L 827.114 266.004 L 827.114 266.004 L 810.964 266.004 L 810.964 266.004 L 798.043 266.004 L 798.043 251.469 L 798.043 251.469 L 798.043 251.469 L 798.043 251.469 L 810.964 251.469 L 810.964 172.878 C 814.781 170.348 820.163 170.757 827.114 174.116 L 827.114 174.116 Z  M 692.083 206.482 L 692.083 206.482 L 692.083 251.469 L 705.004 251.469 L 705.004 266.004 L 692.083 266.004 L 675.933 266.004 L 663.013 266.004 L 663.013 251.469 L 675.933 251.469 L 675.933 119.035 L 663.646 119.035 L 663.646 104.5 L 692.978 104.5 L 692.978 119.035 L 692.083 119.035 L 692.083 188.965 L 692.083 188.95 L 692.083 206.482 L 692.083 206.482 Z  M 692.978 119.015 L 692.978 104.5 L 737.917 104.601 Q 753.301 105.242 755.01 118.916 L 755.01 155.878 Q 754.583 164.852 747.532 168.911 L 692.083 206.507 L 692.083 188.133 L 741.122 155.878 L 741.122 118.916 L 692.978 119.015 Z  M 603.585 251.358 L 603.585 266.004 L 575.809 266.004 Q 559.247 261.827 558.982 246.017 Q 558.717 230.206 558.982 226.788 L 558.982 189.137 L 558.982 189.137 L 574.527 189.137 L 574.741 251.358 L 603.585 251.358 Z  M 603.585 119.246 L 603.585 104.6 L 575.809 104.6 Q 559.247 108.777 558.982 124.587 Q 558.717 140.398 558.982 143.816 L 558.982 181.467 L 558.982 189.137 L 574.527 189.137 L 574.741 119.246 L 603.585 119.246 Z  M 603.585 251.358 L 603.585 266.004 L 625.368 266.004 Q 641.93 261.827 642.195 246.017 Q 642.46 230.206 642.195 226.788 L 642.195 189.137 L 642.195 182.376 L 626.65 182.376 L 626.436 251.358 L 603.585 251.358 Z  M 603.585 119.246 L 603.585 104.6 L 625.368 104.6 Q 641.93 108.777 642.195 124.587 Q 642.46 140.398 642.195 143.816 L 642.195 182.376 L 642.195 182.376 L 626.65 182.376 L 626.436 119.246 L 603.585 119.246 Z  M 470.071 186.826 L 470.071 251.469 L 482.991 251.469 L 482.991 266.004 L 441 266.004 L 441 251.469 L 453.92 251.469 L 453.92 119.035 L 441 119.035 L 441 104.5 L 482.991 104.5 L 482.991 119.035 L 470.071 119.035 L 470.071 177.341 L 520.518 104.5 L 540.846 104.5 L 540.846 119.035 L 529.184 119.035 L 486.266 182.24 L 529.82 251.469 L 541.261 251.469 L 541.261 266.004 L 520.258 266.004 L 470.071 186.826 Z " fill-rule="evenodd" fill="black" stroke="none"/></mask><path d=" M 1157.28 251.358 L 1157.28 266.004 L 1130.055 266.004 Q 1113.493 261.827 1113.228 246.017 Q 1112.963 230.206 1113.228 226.788 L 1113.228 189.137 L 1113.228 180.377 L 1128.773 180.377 L 1128.987 251.358 L 1157.28 251.358 Z  M 1180.959 225.823 L 1193.94 225.909 L 1194 266.004 L 1157.28 266.004 L 1157.28 251.358 L 1180.959 251.249 L 1180.959 225.823 Z  M 1180.959 145.217 L 1193.94 145.131 L 1194 104.6 L 1157.28 104.6 L 1157.28 119.246 L 1180.959 119.246 L 1180.959 145.217 Z  M 1157.28 119.246 L 1157.28 104.6 L 1130.055 104.6 Q 1113.493 108.777 1113.228 124.587 Q 1112.963 140.398 1113.228 143.816 L 1113.228 180.377 L 1113.101 180.377 L 1128.773 180.377 L 1128.987 119.246 L 1157.28 119.246 Z  M 1023.868 186.826 L 1023.868 251.469 L 1036.788 251.469 L 1036.788 266.004 L 994.797 266.004 L 994.797 251.469 L 1007.717 251.469 L 1007.717 119.035 L 994.797 119.035 L 994.797 104.5 L 1036.788 104.5 L 1036.788 119.035 L 1023.868 119.035 L 1023.868 177.341 L 1074.315 104.5 L 1094.643 104.5 L 1094.643 119.035 L 1082.981 119.035 L 1040.063 182.24 L 1083.617 251.469 L 1095.058 251.469 L 1095.058 266.004 L 1074.055 266.004 L 1023.868 186.826 Z  M 963.628 266.004 L 883.597 266.004 L 883.597 251.469 L 896.284 251.469 L 896.284 189.643 L 896.284 189.643 L 896.284 175.107 L 896.284 175.107 L 896.284 119.035 L 883.597 119.035 L 883.597 104.5 L 896.284 104.5 L 896.284 104.5 L 912.434 104.5 L 963.628 104.5 L 963.628 104.5 L 976.549 104.5 L 976.549 104.5 L 976.549 104.5 L 976.549 119.035 L 976.549 119.035 L 976.549 144.876 L 963.628 144.876 L 963.628 119.035 L 912.434 119.035 L 912.434 175.107 L 940.126 175.107 L 940.126 159.765 L 953.047 159.765 L 953.047 175.107 L 953.047 175.107 L 953.047 189.643 L 953.047 189.643 L 953.047 204.986 L 940.126 204.986 L 940.126 189.643 L 912.434 189.643 L 912.434 251.469 L 963.628 251.469 L 963.628 225.628 L 976.549 225.628 L 976.549 251.469 L 976.549 251.469 L 976.549 266.004 L 976.549 266.004 L 976.549 266.004 L 963.628 266.004 L 963.628 266.004 Z  M 772.562 144.876 L 786.738 144.876 L 786.738 119.035 L 810.964 119.035 L 810.964 172.878 C 814.781 170.348 820.163 170.757 827.114 174.116 L 827.114 174.116 L 827.114 119.035 L 851.339 119.035 L 851.339 144.876 L 865.875 144.876 L 865.875 119.035 L 865.875 119.035 L 865.875 104.5 L 865.875 104.5 L 865.875 104.5 L 851.339 104.5 L 851.339 104.5 L 851.339 104.5 L 827.114 104.5 L 827.114 104.5 L 810.964 104.5 L 810.964 104.5 L 786.738 104.5 L 786.738 104.5 L 786.738 104.5 L 772.562 104.5 L 772.562 144.876 L 772.562 144.876 Z  M 827.114 174.116 L 827.114 251.469 L 840.034 251.469 L 840.034 266.004 L 827.114 266.004 L 827.114 266.004 L 810.964 266.004 L 810.964 266.004 L 798.043 266.004 L 798.043 251.469 L 798.043 251.469 L 798.043 251.469 L 798.043 251.469 L 810.964 251.469 L 810.964 172.878 C 814.781 170.348 820.163 170.757 827.114 174.116 L 827.114 174.116 Z  M 692.083 206.482 L 692.083 206.482 L 692.083 251.469 L 705.004 251.469 L 705.004 266.004 L 692.083 266.004 L 675.933 266.004 L 663.013 266.004 L 663.013 251.469 L 675.933 251.469 L 675.933 119.035 L 663.646 119.035 L 663.646 104.5 L 692.978 104.5 L 692.978 119.035 L 692.083 119.035 L 692.083 188.965 L 692.083 188.95 L 692.083 206.482 L 692.083 206.482 Z  M 692.978 119.015 L 692.978 104.5 L 737.917 104.601 Q 753.301 105.242 755.01 118.916 L 755.01 155.878 Q 754.583 164.852 747.532 168.911 L 692.083 206.507 L 692.083 188.133 L 741.122 155.878 L 741.122 118.916 L 692.978 119.015 Z  M 603.585 251.358 L 603.585 266.004 L 575.809 266.004 Q 559.247 261.827 558.982 246.017 Q 558.717 230.206 558.982 226.788 L 558.982 189.137 L 558.982 189.137 L 574.527 189.137 L 574.741 251.358 L 603.585 251.358 Z  M 603.585 119.246 L 603.585 104.6 L 575.809 104.6 Q 559.247 108.777 558.982 124.587 Q 558.717 140.398 558.982 143.816 L 558.982 181.467 L 558.982 189.137 L 574.527 189.137 L 574.741 119.246 L 603.585 119.246 Z  M 603.585 251.358 L 603.585 266.004 L 625.368 266.004 Q 641.93 261.827 642.195 246.017 Q 642.46 230.206 642.195 226.788 L 642.195 189.137 L 642.195 182.376 L 626.65 182.376 L 626.436 251.358 L 603.585 251.358 Z  M 603.585 119.246 L 603.585 104.6 L 625.368 104.6 Q 641.93 108.777 642.195 124.587 Q 642.46 140.398 642.195 143.816 L 642.195 182.376 L 642.195 182.376 L 626.65 182.376 L 626.436 119.246 L 603.585 119.246 Z  M 470.071 186.826 L 470.071 251.469 L 482.991 251.469 L 482.991 266.004 L 441 266.004 L 441 251.469 L 453.92 251.469 L 453.92 119.035 L 441 119.035 L 441 104.5 L 482.991 104.5 L 482.991 119.035 L 470.071 119.035 L 470.071 177.341 L 520.518 104.5 L 540.846 104.5 L 540.846 119.035 L 529.184 119.035 L 486.266 182.24 L 529.82 251.469 L 541.261 251.469 L 541.261 266.004 L 520.258 266.004 L 470.071 186.826 Z " fill-rule="evenodd" fill="none"/><path d=" M 1157.28 251.358 L 1157.28 266.004 L 1130.055 266.004 Q 1113.493 261.827 1113.228 246.017 Q 1112.963 230.206 1113.228 226.788 L 1113.228 189.137 L 1113.228 180.377 L 1128.773 180.377 L 1128.987 251.358 L 1157.28 251.358 Z  M 1180.959 225.823 L 1193.94 225.909 L 1194 266.004 L 1157.28 266.004 L 1157.28 251.358 L 1180.959 251.249 L 1180.959 225.823 Z  M 1180.959 145.217 L 1193.94 145.131 L 1194 104.6 L 1157.28 104.6 L 1157.28 119.246 L 1180.959 119.246 L 1180.959 145.217 Z  M 1157.28 119.246 L 1157.28 104.6 L 1130.055 104.6 Q 1113.493 108.777 1113.228 124.587 Q 1112.963 140.398 1113.228 143.816 L 1113.228 180.377 L 1113.101 180.377 L 1128.773 180.377 L 1128.987 119.246 L 1157.28 119.246 Z  M 1023.868 186.826 L 1023.868 251.469 L 1036.788 251.469 L 1036.788 266.004 L 994.797 266.004 L 994.797 251.469 L 1007.717 251.469 L 1007.717 119.035 L 994.797 119.035 L 994.797 104.5 L 1036.788 104.5 L 1036.788 119.035 L 1023.868 119.035 L 1023.868 177.341 L 1074.315 104.5 L 1094.643 104.5 L 1094.643 119.035 L 1082.981 119.035 L 1040.063 182.24 L 1083.617 251.469 L 1095.058 251.469 L 1095.058 266.004 L 1074.055 266.004 L 1023.868 186.826 Z  M 963.628 266.004 L 883.597 266.004 L 883.597 251.469 L 896.284 251.469 L 896.284 189.643 L 896.284 189.643 L 896.284 175.107 L 896.284 175.107 L 896.284 119.035 L 883.597 119.035 L 883.597 104.5 L 896.284 104.5 L 896.284 104.5 L 912.434 104.5 L 963.628 104.5 L 963.628 104.5 L 976.549 104.5 L 976.549 104.5 L 976.549 104.5 L 976.549 119.035 L 976.549 119.035 L 976.549 144.876 L 963.628 144.876 L 963.628 119.035 L 912.434 119.035 L 912.434 175.107 L 940.126 175.107 L 940.126 159.765 L 953.047 159.765 L 953.047 175.107 L 953.047 175.107 L 953.047 189.643 L 953.047 189.643 L 953.047 204.986 L 940.126 204.986 L 940.126 189.643 L 912.434 189.643 L 912.434 251.469 L 963.628 251.469 L 963.628 225.628 L 976.549 225.628 L 976.549 251.469 L 976.549 251.469 L 976.549 266.004 L 976.549 266.004 L 976.549 266.004 L 963.628 266.004 L 963.628 266.004 Z  M 772.562 144.876 L 786.738 144.876 L 786.738 119.035 L 810.964 119.035 L 810.964 172.878 C 814.781 170.348 820.163 170.757 827.114 174.116 L 827.114 174.116 L 827.114 119.035 L 851.339 119.035 L 851.339 144.876 L 865.875 144.876 L 865.875 119.035 L 865.875 119.035 L 865.875 104.5 L 865.875 104.5 L 865.875 104.5 L 851.339 104.5 L 851.339 104.5 L 851.339 104.5 L 827.114 104.5 L 827.114 104.5 L 810.964 104.5 L 810.964 104.5 L 786.738 104.5 L 786.738 104.5 L 786.738 104.5 L 772.562 104.5 L 772.562 144.876 L 772.562 144.876 Z  M 827.114 174.116 L 827.114 251.469 L 840.034 251.469 L 840.034 266.004 L 827.114 266.004 L 827.114 266.004 L 810.964 266.004 L 810.964 266.004 L 798.043 266.004 L 798.043 251.469 L 798.043 251.469 L 798.043 251.469 L 798.043 251.469 L 810.964 251.469 L 810.964 172.878 C 814.781 170.348 820.163 170.757 827.114 174.116 L 827.114 174.116 Z  M 692.083 206.482 L 692.083 206.482 L 692.083 251.469 L 705.004 251.469 L 705.004 266.004 L 692.083 266.004 L 675.933 266.004 L 663.013 266.004 L 663.013 251.469 L 675.933 251.469 L 675.933 119.035 L 663.646 119.035 L 663.646 104.5 L 692.978 104.5 L 692.978 119.035 L 692.083 119.035 L 692.083 188.965 L 692.083 188.95 L 692.083 206.482 L 692.083 206.482 Z  M 692.978 119.015 L 692.978 104.5 L 737.917 104.601 Q 753.301 105.242 755.01 118.916 L 755.01 155.878 Q 754.583 164.852 747.532 168.911 L 692.083 206.507 L 692.083 188.133 L 741.122 155.878 L 741.122 118.916 L 692.978 119.015 Z  M 603.585 251.358 L 603.585 266.004 L 575.809 266.004 Q 559.247 261.827 558.982 246.017 Q 558.717 230.206 558.982 226.788 L 558.982 189.137 L 558.982 189.137 L 574.527 189.137 L 574.741 251.358 L 603.585 251.358 Z  M 603.585 119.246 L 603.585 104.6 L 575.809 104.6 Q 559.247 108.777 558.982 124.587 Q 558.717 140.398 558.982 143.816 L 558.982 181.467 L 558.982 189.137 L 574.527 189.137 L 574.741 119.246 L 603.585 119.246 Z  M 603.585 251.358 L 603.585 266.004 L 625.368 266.004 Q 641.93 261.827 642.195 246.017 Q 642.46 230.206 642.195 226.788 L 642.195 189.137 L 642.195 182.376 L 626.65 182.376 L 626.436 251.358 L 603.585 251.358 Z  M 603.585 119.246 L 603.585 104.6 L 625.368 104.6 Q 641.93 108.777 642.195 124.587 Q 642.46 140.398 642.195 143.816 L 642.195 182.376 L 642.195 182.376 L 626.65 182.376 L 626.436 119.246 L 603.585 119.246 Z  M 470.071 186.826 L 470.071 251.469 L 482.991 251.469 L 482.991 266.004 L 441 266.004 L 441 251.469 L 453.92 251.469 L 453.92 119.035 L 441 119.035 L 441 104.5 L 482.991 104.5 L 482.991 119.035 L 470.071 119.035 L 470.071 177.341 L 520.518 104.5 L 540.846 104.5 L 540.846 119.035 L 529.184 119.035 L 486.266 182.24 L 529.82 251.469 L 541.261 251.469 L 541.261 266.004 L 520.258 266.004 L 470.071 186.826 Z " fill-rule="evenodd" fill="none" mask="url(#_mask_8LTGqYRoOKc1ItI0kPzATozRz7LSLTat)" vector-effect="non-scaling-stroke" stroke-width="4" stroke="rgb(255,255,255)" stroke-linejoin="miter" stroke-linecap="square" stroke-miterlimit="3"/></g><g><g><path d=" M 240.089 316.12 L 222.378 308.023 L 223.368 282.261 L 201.034 241.524 L 213.271 242.664 L 220.386 233.263 L 224.37 239.53 L 226.078 234.972 L 228.923 171.263 Q 221.158 155.501 209.572 150.182 Q 197.986 144.864 195.025 145.305 Q 191.794 142.398 188.151 135.654 Q 184.505 128.907 165.384 82.434 L 208.071 94.968 L 212.055 98.672 L 240.591 89.556 L 240.591 87.846 L 239.375 87.846 L 245.067 48.559 L 288.608 101.261 Q 282.632 115.22 280.924 115.22 C 279.217 115.22 264.271 144.078 262.711 157.511 C 260.002 177.409 259.601 190.528 259.218 194.587 L 261.288 275.217 L 264.419 289.176 L 259.011 311.008 L 245.067 303.601 L 240.089 316.12 Z " fill="none" vector-effect="non-scaling-stroke" stroke-width="2" stroke="rgb(255,255,255)" stroke-linejoin="miter" stroke-linecap="square" stroke-miterlimit="3"/><g><path d=" M 191.723 131.42 L 188.328 136.375 L 177.773 113.331 L 165.384 82.434 L 205.391 93.885 L 208.071 95.8 L 191.723 131.42 Z " fill="none" vector-effect="non-scaling-stroke" stroke-width="1" stroke="rgb(255,255,255)" stroke-linejoin="miter" stroke-linecap="square" stroke-miterlimit="3"/></g><g filter="url(#K6GpwQWFC9mVeRfSL3WzWRTicH6ofrub)"><path d=" M 285.294 98.037 L 239.414 87.723 L 244.741 48.624 L 285.294 98.037 Z " fill="none" vector-effect="non-scaling-stroke" stroke-width="1" stroke="rgb(255,255,255)" stroke-linejoin="miter" stroke-linecap="square" stroke-miterlimit="3"/></g><defs><filter id="K6GpwQWFC9mVeRfSL3WzWRTicH6ofrub" x="-200%" y="-200%" width="400%" height="400%" filterUnits="objectBoundingBox" color-interpolation-filters="sRGB"><feGaussianBlur xmlns="http://www.w3.org/2000/svg" stdDeviation="0"/></filter></defs><g><path d=" M 194.176 141.72 L 243.276 120.996 L 244.741 141.72 L 194.176 141.72 Z " fill="none" vector-effect="non-scaling-stroke" stroke-width="1" stroke="rgb(255,255,255)" stroke-linejoin="miter" stroke-linecap="square" stroke-miterlimit="3"/><path d=" M 286.652 102.835 L 243.276 120.996 L 244.741 141.72 L 271.925 120.996 L 281.103 113.331 L 286.652 102.835 Z " fill="none" vector-effect="non-scaling-stroke" stroke-width="1" stroke="rgb(255,255,255)" stroke-linejoin="miter" stroke-linecap="square" stroke-miterlimit="3"/></g><g><path d=" M 240.423 117.97 L 229.571 93.31 L 228.13 93.227 L 240.423 117.97 Z " fill="rgb(255,255,255)"/></g><g><path d=" M 279.551 115.026 L 241.494 152.597 L 244.741 157.511 L 243.276 219.239 L 243.276 258.513 L 245.067 298.604 L 245.466 304.092 L 250.064 306.716 L 255.591 309.748 L 251.109 203.836 L 252.39 168.328 C 253.434 165.57 252.892 161.701 253.982 159.034 C 255.072 156.367 255.837 150.93 256.97 148.351 L 279.551 115.026 Z " fill="none" vector-effect="non-scaling-stroke" stroke-width="1" stroke="rgb(255,255,255)" stroke-linejoin="miter" stroke-linecap="square" stroke-miterlimit="3"/><path d=" M 236.673 155.708 L 242.982 159.714 L 240.497 317.158 L 221.543 309.545 L 228.084 172.067 Q 226.255 162.399 220.386 157.16 L 213.271 151.115 L 236.673 155.708 Z " fill="none" vector-effect="non-scaling-stroke" stroke-width="2" stroke="rgb(255,255,255)" stroke-linejoin="miter" stroke-linecap="square" stroke-miterlimit="3"/></g></g></g></g></svg>