<?xml version="1.0" encoding="UTF-8" standalone="no"?><!-- Generator: Gravit.io --><svg xmlns="http://www.w3.org/2000/svg" xmlns:xlink="http://www.w3.org/1999/xlink" style="isolation:isolate" viewBox="158.355 482.5 136 281" width="136pt" height="281pt"><defs><clipPath id="_clipPath_dcMagWEoUDag4dyW5WS9szrkGP6npdVe"><rect width="1945" height="1660"/></clipPath></defs><g clip-path="url(#_clipPath_dcMagWEoUDag4dyW5WS9szrkGP6npdVe)"><rect width="1945" height="1660" style="fill:rgb(55,49,49)" fill-opacity="0"/><g><mask id="_mask_m5uaM8YkHyW2qwU9NaAT1XkWdYQX9WlK" x="-200%" y="-200%" width="400%" height="400%"><rect x="-200%" y="-200%" width="400%" height="400%" style="fill:white;"/><path d=" M 1157.28 251.358 L 1157.28 266.004 L 1130.055 266.004 Q 1113.493 261.827 1113.228 246.017 Q 1112.963 230.206 1113.228 226.788 L 1113.228 189.137 L 1113.228 180.377 L 1128.773 180.377 L 1128.987 251.358 L 1157.28 251.358 Z  M 1180.959 225.823 L 1193.94 225.909 L 1194 266.004 L 1157.28 266.004 L 1157.28 251.358 L 1180.959 251.249 L 1180.959 225.823 Z  M 1180.959 145.217 L 1193.94 145.131 L 1194 104.6 L 1157.28 104.6 L 1157.28 119.246 L 1180.959 119.246 L 1180.959 145.217 Z  M 1157.28 119.246 L 1157.28 104.6 L 1130.055 104.6 Q 1113.493 108.777 1113.228 124.587 Q 1112.963 140.398 1113.228 143.816 L 1113.228 180.377 L 1113.101 180.377 L 1128.773 180.377 L 1128.987 119.246 L 1157.28 119.246 Z  M 1023.868 186.826 L 1023.868 251.469 L 1036.788 251.469 L 1036.788 266.004 L 994.797 266.004 L 994.797 251.469 L 1007.717 251.469 L 1007.717 119.035 L 994.797 119.035 L 994.797 104.5 L 1036.788 104.5 L 1036.788 119.035 L 1023.868 119.035 L 1023.868 177.341 L 1074.315 104.5 L 1094.643 104.5 L 1094.643 119.035 L 1082.981 119.035 L 1040.063 182.24 L 1083.617 251.469 L 1095.058 251.469 L 1095.058 266.004 L 1074.055 266.004 L 1023.868 186.826 Z  M 963.628 266.004 L 883.597 266.004 L 883.597 251.469 L 896.284 251.469 L 896.284 189.643 L 896.284 189.643 L 896.284 175.107 L 896.284 175.107 L 896.284 119.035 L 883.597 119.035 L 883.597 104.5 L 896.284 104.5 L 896.284 104.5 L 912.434 104.5 L 963.628 104.5 L 963.628 104.5 L 976.549 104.5 L 976.549 104.5 L 976.549 104.5 L 976.549 119.035 L 976.549 119.035 L 976.549 144.876 L 963.628 144.876 L 963.628 119.035 L 912.434 119.035 L 912.434 175.107 L 940.126 175.107 L 940.126 159.765 L 953.047 159.765 L 953.047 175.107 L 953.047 175.107 L 953.047 189.643 L 953.047 189.643 L 953.047 204.986 L 940.126 204.986 L 940.126 189.643 L 912.434 189.643 L 912.434 251.469 L 963.628 251.469 L 963.628 225.628 L 976.549 225.628 L 976.549 251.469 L 976.549 251.469 L 976.549 266.004 L 976.549 266.004 L 976.549 266.004 L 963.628 266.004 L 963.628 266.004 Z  M 772.562 144.876 L 786.738 144.876 L 786.738 119.035 L 810.964 119.035 L 810.964 172.878 C 814.781 170.348 820.163 170.757 827.114 174.116 L 827.114 174.116 L 827.114 119.035 L 851.339 119.035 L 851.339 144.876 L 865.875 144.876 L 865.875 119.035 L 865.875 119.035 L 865.875 104.5 L 865.875 104.5 L 865.875 104.5 L 851.339 104.5 L 851.339 104.5 L 851.339 104.5 L 827.114 104.5 L 827.114 104.5 L 810.964 104.5 L 810.964 104.5 L 786.738 104.5 L 786.738 104.5 L 786.738 104.5 L 772.562 104.5 L 772.562 144.876 L 772.562 144.876 Z  M 827.114 174.116 L 827.114 251.469 L 840.034 251.469 L 840.034 266.004 L 827.114 266.004 L 827.114 266.004 L 810.964 266.004 L 810.964 266.004 L 798.043 266.004 L 798.043 251.469 L 798.043 251.469 L 798.043 251.469 L 798.043 251.469 L 810.964 251.469 L 810.964 172.878 C 814.781 170.348 820.163 170.757 827.114 174.116 L 827.114 174.116 Z  M 692.083 206.482 L 692.083 206.482 L 692.083 251.469 L 705.004 251.469 L 705.004 266.004 L 692.083 266.004 L 675.933 266.004 L 663.013 266.004 L 663.013 251.469 L 675.933 251.469 L 675.933 119.035 L 663.646 119.035 L 663.646 104.5 L 692.978 104.5 L 692.978 119.035 L 692.083 119.035 L 692.083 188.965 L 692.083 188.95 L 692.083 206.482 L 692.083 206.482 Z  M 692.978 119.015 L 692.978 104.5 L 737.917 104.601 Q 753.301 105.242 755.01 118.916 L 755.01 155.878 Q 754.583 164.852 747.532 168.911 L 692.083 206.507 L 692.083 188.133 L 741.122 155.878 L 741.122 118.916 L 692.978 119.015 Z  M 603.585 251.358 L 603.585 266.004 L 575.809 266.004 Q 559.247 261.827 558.982 246.017 Q 558.717 230.206 558.982 226.788 L 558.982 189.137 L 558.982 189.137 L 574.527 189.137 L 574.741 251.358 L 603.585 251.358 Z  M 603.585 119.246 L 603.585 104.6 L 575.809 104.6 Q 559.247 108.777 558.982 124.587 Q 558.717 140.398 558.982 143.816 L 558.982 181.467 L 558.982 189.137 L 574.527 189.137 L 574.741 119.246 L 603.585 119.246 Z  M 603.585 251.358 L 603.585 266.004 L 625.368 266.004 Q 641.93 261.827 642.195 246.017 Q 642.46 230.206 642.195 226.788 L 642.195 189.137 L 642.195 182.376 L 626.65 182.376 L 626.436 251.358 L 603.585 251.358 Z  M 603.585 119.246 L 603.585 104.6 L 625.368 104.6 Q 641.93 108.777 642.195 124.587 Q 642.46 140.398 642.195 143.816 L 642.195 182.376 L 642.195 182.376 L 626.65 182.376 L 626.436 119.246 L 603.585 119.246 Z  M 470.071 186.826 L 470.071 251.469 L 482.991 251.469 L 482.991 266.004 L 441 266.004 L 441 251.469 L 453.92 251.469 L 453.92 119.035 L 441 119.035 L 441 104.5 L 482.991 104.5 L 482.991 119.035 L 470.071 119.035 L 470.071 177.341 L 520.518 104.5 L 540.846 104.5 L 540.846 119.035 L 529.184 119.035 L 486.266 182.24 L 529.82 251.469 L 541.261 251.469 L 541.261 266.004 L 520.258 266.004 L 470.071 186.826 Z " fill-rule="evenodd" fill="black" stroke="none"/></mask><path d=" M 1157.28 251.358 L 1157.28 266.004 L 1130.055 266.004 Q 1113.493 261.827 1113.228 246.017 Q 1112.963 230.206 1113.228 226.788 L 1113.228 189.137 L 1113.228 180.377 L 1128.773 180.377 L 1128.987 251.358 L 1157.28 251.358 Z  M 1180.959 225.823 L 1193.94 225.909 L 1194 266.004 L 1157.28 266.004 L 1157.28 251.358 L 1180.959 251.249 L 1180.959 225.823 Z  M 1180.959 145.217 L 1193.94 145.131 L 1194 104.6 L 1157.28 104.6 L 1157.28 119.246 L 1180.959 119.246 L 1180.959 145.217 Z  M 1157.28 119.246 L 1157.28 104.6 L 1130.055 104.6 Q 1113.493 108.777 1113.228 124.587 Q 1112.963 140.398 1113.228 143.816 L 1113.228 180.377 L 1113.101 180.377 L 1128.773 180.377 L 1128.987 119.246 L 1157.28 119.246 Z  M 1023.868 186.826 L 1023.868 251.469 L 1036.788 251.469 L 1036.788 266.004 L 994.797 266.004 L 994.797 251.469 L 1007.717 251.469 L 1007.717 119.035 L 994.797 119.035 L 994.797 104.5 L 1036.788 104.5 L 1036.788 119.035 L 1023.868 119.035 L 1023.868 177.341 L 1074.315 104.5 L 1094.643 104.5 L 1094.643 119.035 L 1082.981 119.035 L 1040.063 182.24 L 1083.617 251.469 L 1095.058 251.469 L 1095.058 266.004 L 1074.055 266.004 L 1023.868 186.826 Z  M 963.628 266.004 L 883.597 266.004 L 883.597 251.469 L 896.284 251.469 L 896.284 189.643 L 896.284 189.643 L 896.284 175.107 L 896.284 175.107 L 896.284 119.035 L 883.597 119.035 L 883.597 104.5 L 896.284 104.5 L 896.284 104.5 L 912.434 104.5 L 963.628 104.5 L 963.628 104.5 L 976.549 104.5 L 976.549 104.5 L 976.549 104.5 L 976.549 119.035 L 976.549 119.035 L 976.549 144.876 L 963.628 144.876 L 963.628 119.035 L 912.434 119.035 L 912.434 175.107 L 940.126 175.107 L 940.126 159.765 L 953.047 159.765 L 953.047 175.107 L 953.047 175.107 L 953.047 189.643 L 953.047 189.643 L 953.047 204.986 L 940.126 204.986 L 940.126 189.643 L 912.434 189.643 L 912.434 251.469 L 963.628 251.469 L 963.628 225.628 L 976.549 225.628 L 976.549 251.469 L 976.549 251.469 L 976.549 266.004 L 976.549 266.004 L 976.549 266.004 L 963.628 266.004 L 963.628 266.004 Z  M 772.562 144.876 L 786.738 144.876 L 786.738 119.035 L 810.964 119.035 L 810.964 172.878 C 814.781 170.348 820.163 170.757 827.114 174.116 L 827.114 174.116 L 827.114 119.035 L 851.339 119.035 L 851.339 144.876 L 865.875 144.876 L 865.875 119.035 L 865.875 119.035 L 865.875 104.5 L 865.875 104.5 L 865.875 104.5 L 851.339 104.5 L 851.339 104.5 L 851.339 104.5 L 827.114 104.5 L 827.114 104.5 L 810.964 104.5 L 810.964 104.5 L 786.738 104.5 L 786.738 104.5 L 786.738 104.5 L 772.562 104.5 L 772.562 144.876 L 772.562 144.876 Z  M 827.114 174.116 L 827.114 251.469 L 840.034 251.469 L 840.034 266.004 L 827.114 266.004 L 827.114 266.004 L 810.964 266.004 L 810.964 266.004 L 798.043 266.004 L 798.043 251.469 L 798.043 251.469 L 798.043 251.469 L 798.043 251.469 L 810.964 251.469 L 810.964 172.878 C 814.781 170.348 820.163 170.757 827.114 174.116 L 827.114 174.116 Z  M 692.083 206.482 L 692.083 206.482 L 692.083 251.469 L 705.004 251.469 L 705.004 266.004 L 692.083 266.004 L 675.933 266.004 L 663.013 266.004 L 663.013 251.469 L 675.933 251.469 L 675.933 119.035 L 663.646 119.035 L 663.646 104.5 L 692.978 104.5 L 692.978 119.035 L 692.083 119.035 L 692.083 188.965 L 692.083 188.95 L 692.083 206.482 L 692.083 206.482 Z  M 692.978 119.015 L 692.978 104.5 L 737.917 104.601 Q 753.301 105.242 755.01 118.916 L 755.01 155.878 Q 754.583 164.852 747.532 168.911 L 692.083 206.507 L 692.083 188.133 L 741.122 155.878 L 741.122 118.916 L 692.978 119.015 Z  M 603.585 251.358 L 603.585 266.004 L 575.809 266.004 Q 559.247 261.827 558.982 246.017 Q 558.717 230.206 558.982 226.788 L 558.982 189.137 L 558.982 189.137 L 574.527 189.137 L 574.741 251.358 L 603.585 251.358 Z  M 603.585 119.246 L 603.585 104.6 L 575.809 104.6 Q 559.247 108.777 558.982 124.587 Q 558.717 140.398 558.982 143.816 L 558.982 181.467 L 558.982 189.137 L 574.527 189.137 L 574.741 119.246 L 603.585 119.246 Z  M 603.585 251.358 L 603.585 266.004 L 625.368 266.004 Q 641.93 261.827 642.195 246.017 Q 642.46 230.206 642.195 226.788 L 642.195 189.137 L 642.195 182.376 L 626.65 182.376 L 626.436 251.358 L 603.585 251.358 Z  M 603.585 119.246 L 603.585 104.6 L 625.368 104.6 Q 641.93 108.777 642.195 124.587 Q 642.46 140.398 642.195 143.816 L 642.195 182.376 L 642.195 182.376 L 626.65 182.376 L 626.436 119.246 L 603.585 119.246 Z  M 470.071 186.826 L 470.071 251.469 L 482.991 251.469 L 482.991 266.004 L 441 266.004 L 441 251.469 L 453.92 251.469 L 453.92 119.035 L 441 119.035 L 441 104.5 L 482.991 104.5 L 482.991 119.035 L 470.071 119.035 L 470.071 177.341 L 520.518 104.5 L 540.846 104.5 L 540.846 119.035 L 529.184 119.035 L 486.266 182.24 L 529.82 251.469 L 541.261 251.469 L 541.261 266.004 L 520.258 266.004 L 470.071 186.826 Z " fill-rule="evenodd" fill="none"/><path d=" M 1157.28 251.358 L 1157.28 266.004 L 1130.055 266.004 Q 1113.493 261.827 1113.228 246.017 Q 1112.963 230.206 1113.228 226.788 L 1113.228 189.137 L 1113.228 180.377 L 1128.773 180.377 L 1128.987 251.358 L 1157.28 251.358 Z  M 1180.959 225.823 L 1193.94 225.909 L 1194 266.004 L 1157.28 266.004 L 1157.28 251.358 L 1180.959 251.249 L 1180.959 225.823 Z  M 1180.959 145.217 L 1193.94 145.131 L 1194 104.6 L 1157.28 104.6 L 1157.28 119.246 L 1180.959 119.246 L 1180.959 145.217 Z  M 1157.28 119.246 L 1157.28 104.6 L 1130.055 104.6 Q 1113.493 108.777 1113.228 124.587 Q 1112.963 140.398 1113.228 143.816 L 1113.228 180.377 L 1113.101 180.377 L 1128.773 180.377 L 1128.987 119.246 L 1157.28 119.246 Z  M 1023.868 186.826 L 1023.868 251.469 L 1036.788 251.469 L 1036.788 266.004 L 994.797 266.004 L 994.797 251.469 L 1007.717 251.469 L 1007.717 119.035 L 994.797 119.035 L 994.797 104.5 L 1036.788 104.5 L 1036.788 119.035 L 1023.868 119.035 L 1023.868 177.341 L 1074.315 104.5 L 1094.643 104.5 L 1094.643 119.035 L 1082.981 119.035 L 1040.063 182.24 L 1083.617 251.469 L 1095.058 251.469 L 1095.058 266.004 L 1074.055 266.004 L 1023.868 186.826 Z  M 963.628 266.004 L 883.597 266.004 L 883.597 251.469 L 896.284 251.469 L 896.284 189.643 L 896.284 189.643 L 896.284 175.107 L 896.284 175.107 L 896.284 119.035 L 883.597 119.035 L 883.597 104.5 L 896.284 104.5 L 896.284 104.5 L 912.434 104.5 L 963.628 104.5 L 963.628 104.5 L 976.549 104.5 L 976.549 104.5 L 976.549 104.5 L 976.549 119.035 L 976.549 119.035 L 976.549 144.876 L 963.628 144.876 L 963.628 119.035 L 912.434 119.035 L 912.434 175.107 L 940.126 175.107 L 940.126 159.765 L 953.047 159.765 L 953.047 175.107 L 953.047 175.107 L 953.047 189.643 L 953.047 189.643 L 953.047 204.986 L 940.126 204.986 L 940.126 189.643 L 912.434 189.643 L 912.434 251.469 L 963.628 251.469 L 963.628 225.628 L 976.549 225.628 L 976.549 251.469 L 976.549 251.469 L 976.549 266.004 L 976.549 266.004 L 976.549 266.004 L 963.628 266.004 L 963.628 266.004 Z  M 772.562 144.876 L 786.738 144.876 L 786.738 119.035 L 810.964 119.035 L 810.964 172.878 C 814.781 170.348 820.163 170.757 827.114 174.116 L 827.114 174.116 L 827.114 119.035 L 851.339 119.035 L 851.339 144.876 L 865.875 144.876 L 865.875 119.035 L 865.875 119.035 L 865.875 104.5 L 865.875 104.5 L 865.875 104.5 L 851.339 104.5 L 851.339 104.5 L 851.339 104.5 L 827.114 104.5 L 827.114 104.5 L 810.964 104.5 L 810.964 104.5 L 786.738 104.5 L 786.738 104.5 L 786.738 104.5 L 772.562 104.5 L 772.562 144.876 L 772.562 144.876 Z  M 827.114 174.116 L 827.114 251.469 L 840.034 251.469 L 840.034 266.004 L 827.114 266.004 L 827.114 266.004 L 810.964 266.004 L 810.964 266.004 L 798.043 266.004 L 798.043 251.469 L 798.043 251.469 L 798.043 251.469 L 798.043 251.469 L 810.964 251.469 L 810.964 172.878 C 814.781 170.348 820.163 170.757 827.114 174.116 L 827.114 174.116 Z  M 692.083 206.482 L 692.083 206.482 L 692.083 251.469 L 705.004 251.469 L 705.004 266.004 L 692.083 266.004 L 675.933 266.004 L 663.013 266.004 L 663.013 251.469 L 675.933 251.469 L 675.933 119.035 L 663.646 119.035 L 663.646 104.5 L 692.978 104.5 L 692.978 119.035 L 692.083 119.035 L 692.083 188.965 L 692.083 188.95 L 692.083 206.482 L 692.083 206.482 Z  M 692.978 119.015 L 692.978 104.5 L 737.917 104.601 Q 753.301 105.242 755.01 118.916 L 755.01 155.878 Q 754.583 164.852 747.532 168.911 L 692.083 206.507 L 692.083 188.133 L 741.122 155.878 L 741.122 118.916 L 692.978 119.015 Z  M 603.585 251.358 L 603.585 266.004 L 575.809 266.004 Q 559.247 261.827 558.982 246.017 Q 558.717 230.206 558.982 226.788 L 558.982 189.137 L 558.982 189.137 L 574.527 189.137 L 574.741 251.358 L 603.585 251.358 Z  M 603.585 119.246 L 603.585 104.6 L 575.809 104.6 Q 559.247 108.777 558.982 124.587 Q 558.717 140.398 558.982 143.816 L 558.982 181.467 L 558.982 189.137 L 574.527 189.137 L 574.741 119.246 L 603.585 119.246 Z  M 603.585 251.358 L 603.585 266.004 L 625.368 266.004 Q 641.93 261.827 642.195 246.017 Q 642.46 230.206 642.195 226.788 L 642.195 189.137 L 642.195 182.376 L 626.65 182.376 L 626.436 251.358 L 603.585 251.358 Z  M 603.585 119.246 L 603.585 104.6 L 625.368 104.6 Q 641.93 108.777 642.195 124.587 Q 642.46 140.398 642.195 143.816 L 642.195 182.376 L 642.195 182.376 L 626.65 182.376 L 626.436 119.246 L 603.585 119.246 Z  M 470.071 186.826 L 470.071 251.469 L 482.991 251.469 L 482.991 266.004 L 441 266.004 L 441 251.469 L 453.92 251.469 L 453.92 119.035 L 441 119.035 L 441 104.5 L 482.991 104.5 L 482.991 119.035 L 470.071 119.035 L 470.071 177.341 L 520.518 104.5 L 540.846 104.5 L 540.846 119.035 L 529.184 119.035 L 486.266 182.24 L 529.82 251.469 L 541.261 251.469 L 541.261 266.004 L 520.258 266.004 L 470.071 186.826 Z " fill-rule="evenodd" fill="none" mask="url(#_mask_m5uaM8YkHyW2qwU9NaAT1XkWdYQX9WlK)" vector-effect="non-scaling-stroke" stroke-width="4" stroke="rgb(255,255,255)" stroke-linejoin="miter" stroke-linecap="square" stroke-miterlimit="3"/></g><g><g><path d=" M 240.089 316.12 L 222.378 308.023 L 223.368 282.261 L 201.034 241.524 L 213.271 242.664 L 220.386 233.263 L 224.37 239.53 L 226.078 234.972 L 228.923 171.263 Q 221.158 155.501 209.572 150.182 Q 197.986 144.864 195.025 145.305 Q 191.794 142.398 188.151 135.654 Q 184.505 128.907 165.384 82.434 L 208.071 94.968 L 212.055 98.672 L 240.591 89.556 L 240.591 87.846 L 239.375 87.846 L 245.067 48.559 L 288.608 101.261 Q 282.632 115.22 280.924 115.22 C 279.217 115.22 264.271 144.078 262.711 157.511 C 260.002 177.409 259.601 190.528 259.218 194.587 L 261.288 275.217 L 264.419 289.176 L 259.011 311.008 L 245.067 303.601 L 240.089 316.12 Z " fill="none" vector-effect="non-scaling-stroke" stroke-width="2" stroke="rgb(255,255,255)" stroke-linejoin="miter" stroke-linecap="square" stroke-miterlimit="3"/><g><path d=" M 191.723 131.42 L 188.328 136.375 L 177.773 113.331 L 165.384 82.434 L 205.391 93.885 L 208.071 95.8 L 191.723 131.42 Z " fill="none" vector-effect="non-scaling-stroke" stroke-width="1" stroke="rgb(255,255,255)" stroke-linejoin="miter" stroke-linecap="square" stroke-miterlimit="3"/></g><g filter="url(#lXiS4V9tjmiFTBBZxs4ZRS3xFN4QMlgz)"><path d=" M 285.294 98.037 L 239.414 87.723 L 244.741 48.624 L 285.294 98.037 Z " fill="none" vector-effect="non-scaling-stroke" stroke-width="1" stroke="rgb(255,255,255)" stroke-linejoin="miter" stroke-linecap="square" stroke-miterlimit="3"/></g><defs><filter id="lXiS4V9tjmiFTBBZxs4ZRS3xFN4QMlgz" x="-200%" y="-200%" width="400%" height="400%" filterUnits="objectBoundingBox" color-interpolation-filters="sRGB"><feGaussianBlur xmlns="http://www.w3.org/2000/svg" stdDeviation="0"/></filter></defs><g><path d=" M 194.176 141.72 L 243.276 120.996 L 244.741 141.72 L 194.176 141.72 Z " fill="none" vector-effect="non-scaling-stroke" stroke-width="1" stroke="rgb(255,255,255)" stroke-linejoin="miter" stroke-linecap="square" stroke-miterlimit="3"/><path d=" M 286.652 102.835 L 243.276 120.996 L 244.741 141.72 L 271.925 120.996 L 281.103 113.331 L 286.652 102.835 Z " fill="none" vector-effect="non-scaling-stroke" stroke-width="1" stroke="rgb(255,255,255)" stroke-linejoin="miter" stroke-linecap="square" stroke-miterlimit="3"/></g><g><path d=" M 240.423 117.97 L 229.571 93.31 L 228.13 93.227 L 240.423 117.97 Z " fill="rgb(255,255,255)"/></g><g><path d=" M 279.551 115.026 L 241.494 152.597 L 244.741 157.511 L 243.276 219.239 L 243.276 258.513 L 245.067 298.604 L 245.466 304.092 L 250.064 306.716 L 255.591 309.748 L 251.109 203.836 L 252.39 168.328 C 253.434 165.57 252.892 161.701 253.982 159.034 C 255.072 156.367 255.837 150.93 256.97 148.351 L 279.551 115.026 Z " fill="none" vector-effect="non-scaling-stroke" stroke-width="1" stroke="rgb(255,255,255)" stroke-linejoin="miter" stroke-linecap="square" stroke-miterlimit="3"/><path d=" M 236.673 155.708 L 242.982 159.714 L 240.497 317.158 L 221.543 309.545 L 228.084 172.067 Q 226.255 162.399 220.386 157.16 L 213.271 151.115 L 236.673 155.708 Z " fill="none" vector-effect="non-scaling-stroke" stroke-width="2" stroke="rgb(255,255,255)" stroke-linejoin="miter" stroke-linecap="square" stroke-miterlimit="3"/></g></g></g><g><defs><filter id="Ap67pOeNNRhuhpWLqwZFf9806X2zjL6H" x="-200%" y="-200%" width="400%" height="400%" filterUnits="objectBoundingBox" color-interpolation-filters="sRGB"><feOffset xmlns="http://www.w3.org/2000/svg" in="SourceGraphic" dx="0" dy="0"/><feGaussianBlur xmlns="http://www.w3.org/2000/svg" stdDeviation="2.146804531419514" result="pf_100_offsetBlur"/><feComposite xmlns="http://www.w3.org/2000/svg" in="SourceGraphic" in2="pf_100_offsetBlur" result="pf_100_inverse" operator="out"/><feFlood xmlns="http://www.w3.org/2000/svg" flood-color="#000000" flood-opacity="0.5" result="pf_100_color"/><feComposite xmlns="http://www.w3.org/2000/svg" in="pf_100_color" in2="pf_100_inverse" operator="in" result="pf_100_shadow"/><feComposite xmlns="http://www.w3.org/2000/svg" in="pf_100_shadow" in2="SourceGraphic" operator="over"/></filter></defs><g filter="url(#Ap67pOeNNRhuhpWLqwZFf9806X2zjL6H)"><path d=" M 241.184 761.613 L 221.609 754.074 L 222.674 727.407 L 198.67 685.24 L 211.822 686.419 L 219.468 676.688 L 223.75 683.176 L 225.585 678.458 L 228.644 612.512 Q 222.886 595.681 207.846 590.691 Q 192.806 585.702 193.081 587.933 Q 189.105 582.434 184.823 575.652 Q 180.541 568.87 160.355 520.564 L 206.233 533.538 L 210.515 537.372 L 241.184 527.936 L 241.184 526.166 L 239.877 526.166 L 245.994 485.5 L 292.79 540.052 Q 286.367 554.501 284.532 554.501 C 282.697 554.501 266.634 584.373 264.957 598.277 C 262.046 618.873 261.615 632.454 261.204 636.655 L 263.428 720.116 L 266.792 734.565 L 260.981 757.163 L 245.994 749.496 L 241.184 761.613 Z " fill="rgb(212,53,21)" vector-effect="non-scaling-stroke" stroke-width="2" stroke="rgb(212,53,21)" stroke-linejoin="miter" stroke-linecap="square" stroke-miterlimit="3"/></g><g><defs><filter id="KqBPTE2JIKMYveU7FycpydDudnWv0F3Z" x="-200%" y="-200%" width="400%" height="400%" filterUnits="objectBoundingBox" color-interpolation-filters="sRGB"><feOffset xmlns="http://www.w3.org/2000/svg" in="SourceGraphic" dx="-7" dy="0"/><feGaussianBlur xmlns="http://www.w3.org/2000/svg" stdDeviation="5.152330875406834" result="pf_100_offsetBlur"/><feComposite xmlns="http://www.w3.org/2000/svg" in="SourceGraphic" in2="pf_100_offsetBlur" result="pf_100_inverse" operator="out"/><feFlood xmlns="http://www.w3.org/2000/svg" flood-color="#000000" flood-opacity="0.3" result="pf_100_color"/><feComposite xmlns="http://www.w3.org/2000/svg" in="pf_100_color" in2="pf_100_inverse" operator="in" result="pf_100_shadow"/><feComposite xmlns="http://www.w3.org/2000/svg" in="pf_100_shadow" in2="SourceGraphic" operator="over"/></filter></defs><g filter="url(#KqBPTE2JIKMYveU7FycpydDudnWv0F3Z)"><path d=" M 223.961 715.82 L 211.413 686.419 L 219.228 675.837 L 225.585 684.84 L 223.961 715.82 Z " fill="rgb(110,27,11)"/></g><defs><filter id="CHDgP5Z5yS6mKT5dsit2yRW9Wnga4dgF" x="-200%" y="-200%" width="400%" height="400%" filterUnits="objectBoundingBox" color-interpolation-filters="sRGB"><feOffset xmlns="http://www.w3.org/2000/svg" in="SourceGraphic" dx="0" dy="-5"/><feGaussianBlur xmlns="http://www.w3.org/2000/svg" stdDeviation="2.146804531419514" result="pf_100_offsetBlur"/><feComposite xmlns="http://www.w3.org/2000/svg" in="SourceGraphic" in2="pf_100_offsetBlur" result="pf_100_inverse" operator="out"/><feFlood xmlns="http://www.w3.org/2000/svg" flood-color="#000000" flood-opacity="0.3" result="pf_100_color"/><feComposite xmlns="http://www.w3.org/2000/svg" in="pf_100_color" in2="pf_100_inverse" operator="in" result="pf_100_shadow"/><feComposite xmlns="http://www.w3.org/2000/svg" in="pf_100_shadow" in2="SourceGraphic" operator="over"/></filter></defs><g filter="url(#CHDgP5Z5yS6mKT5dsit2yRW9Wnga4dgF)"><path d=" M 210.99 709.059 L 198.67 684.84 L 211.413 686.419 L 223.961 715.82 L 222.259 729.847 L 210.99 709.059 Z " fill="rgb(171,42,17)"/></g><path d=" M 223.506 733.184 L 211.413 709.631 L 219.333 716.266 L 223.961 723.56 L 223.506 733.184 Z " fill="rgb(110,27,11)"/></g><g><linearGradient id="_lgradient_52" x1="1.1149363457055774" y1="-0.08081979891724739" x2="0.19974896897973882" y2="0.8592420726991483" gradientTransform="matrix(21.806,0,0,38.994,188.195,537.851)" gradientUnits="userSpaceOnUse"><stop offset="0.8333333333333334%" stop-opacity="1" style="stop-color:rgb(171,42,17)"/><stop offset="99.16666666666667%" stop-opacity="1" style="stop-color:rgb(110,27,11)"/></linearGradient><path d=" M 191.299 576.845 L 210.001 537.851 L 188.195 576.398 L 191.299 576.845 Z " fill="url(#_lgradient_52)"/><linearGradient id="_lgradient_53" x1="1.1387501267160418" y1="-0.14668227116359794" x2="0.20720236371052714" y2="0.7855168064441025" gradientTransform="matrix(20.037,0,0,37.148,189.965,535.093)" gradientUnits="userSpaceOnUse"><stop offset="0.8333333333333334%" stop-opacity="1" style="stop-color:rgb(237,59,24)"/><stop offset="99.16666666666667%" stop-opacity="1" style="stop-color:rgb(171,42,17)"/></linearGradient><path d=" M 189.965 572.241 L 210.001 536.715 L 208.344 535.093 L 189.965 572.241 Z " fill="url(#_lgradient_53)"/><path d=" M 188.662 571.27 L 185.014 576.399 L 173.67 552.545 L 160.355 520.564 L 203.353 532.417 L 206.233 534.399 L 188.662 571.27 Z " fill="rgb(212,53,21)"/></g><g filter="url(#yOnxJpvTnTyq6eYYeyfsriU13YNArWeJ)"><path d=" M 289.228 536.715 L 239.919 526.039 L 245.644 485.567 L 289.228 536.715 Z " fill="rgb(212,53,21)"/><defs><filter id="luuI8VUW4Ps3rw5eatOCWw3WhDWZli7H" x="-200%" y="-200%" width="400%" height="400%" filterUnits="objectBoundingBox" color-interpolation-filters="sRGB"><feGaussianBlur xmlns="http://www.w3.org/2000/svg" stdDeviation="0"/></filter></defs><g filter="url(#luuI8VUW4Ps3rw5eatOCWw3WhDWZli7H)"><path d=" M 240.832 526.361 L 241.004 527.688 L 291.835 540.037 L 289.228 536.715 L 240.832 526.361 Z " fill="rgb(136,35,26)"/></g><defs><filter id="w3T5qfbpCNxJ4UfDDCzn9BDXrVoYUAIa" x="-200%" y="-200%" width="400%" height="400%" filterUnits="objectBoundingBox" color-interpolation-filters="sRGB"><feGaussianBlur xmlns="http://www.w3.org/2000/svg" stdDeviation="0"/></filter></defs><g filter="url(#w3T5qfbpCNxJ4UfDDCzn9BDXrVoYUAIa)"><path d=" M 241.004 528.031 L 237.016 529.151 L 236.541 532.417 L 282.107 544.478 L 289.228 542.563 L 291.835 540.037 L 241.004 528.031 Z " fill="rgb(171,42,17)"/></g></g><defs><filter id="yOnxJpvTnTyq6eYYeyfsriU13YNArWeJ" x="-200%" y="-200%" width="400%" height="400%" filterUnits="objectBoundingBox" color-interpolation-filters="sRGB"><feGaussianBlur xmlns="http://www.w3.org/2000/svg" stdDeviation="0"/></filter></defs><g><path d=" M 191.299 581.932 L 244.07 560.479 L 245.644 581.932 L 191.299 581.932 Z " fill="rgb(171,42,17)"/><path d=" M 290.688 541.681 L 244.07 560.479 L 245.644 581.932 L 274.86 560.479 L 284.724 552.545 L 290.688 541.681 Z " fill="rgb(171,42,17)"/></g><g><defs><filter id="6NcvtIciQ7sCmaPJkrOeSsfOq6jcVd0F" x="-200%" y="-200%" width="400%" height="400%" filterUnits="objectBoundingBox" color-interpolation-filters="sRGB"><feGaussianBlur xmlns="http://www.w3.org/2000/svg" stdDeviation="0.7299135406826348"/></filter></defs><g filter="url(#6NcvtIciQ7sCmaPJkrOeSsfOq6jcVd0F)"><linearGradient id="_lgradient_54" x1="1.1403480868440226" y1="-0.15349115699666652" x2="-0.8247248692603555" y2="1.843089526778647" gradientTransform="matrix(8.877,-6.278,11.546,15.174,234.098,566.758)" gradientUnits="userSpaceOnUse"><stop offset="0%" stop-opacity="1" style="stop-color:rgb(250,62,25)"/><stop offset="98.33333333333333%" stop-opacity="1" style="stop-color:rgb(237,59,24)"/></linearGradient><path d=" M 243.251 567.213 L 245.644 581.932 L 243.479 561.142 L 242.241 560.999 L 243.251 567.213 Z " fill="url(#_lgradient_54)"/></g><linearGradient id="_lgradient_55" x1="1.1387501267160418" y1="-0.14668227116359794" x2="0.20720236371052714" y2="0.7855168064441025" gradientTransform="matrix(7.912,-8.413,20.47,17.895,220.534,539.453)" gradientUnits="userSpaceOnUse"><stop offset="2.083333333333333%" stop-opacity="1" style="stop-color:rgb(171,42,17)"/><stop offset="97.08333333333333%" stop-opacity="1" style="stop-color:rgb(171,42,17)"/></linearGradient><path d=" M 236.448 548.517 L 241.004 557.348 L 229.34 531.822 L 227.791 531.736 L 236.448 548.517 Z " fill="url(#_lgradient_55)"/></g><g><path d=" M 191.299 581.932 L 223.497 583.815 L 233.285 585.879 L 240.931 589.123 L 242.155 592.367 L 191.299 581.932 Z " fill="rgb(110,27,11)"/><path d=" M 244.07 589.123 L 245.644 583.815 L 281.971 554.3 L 244.07 592.367 L 242.155 592.367 L 240.931 589.123 L 244.07 589.123 Z " fill="rgb(110,27,11)"/></g><g><path d=" M 283.056 554.3 L 242.155 593.191 L 245.644 598.277 L 244.07 662.172 L 244.07 702.825 L 245.994 744.324 L 246.424 750.005 L 251.365 752.721 L 257.306 755.859 L 252.488 646.229 L 253.865 609.474 C 254.987 606.619 254.404 602.614 255.576 599.854 C 256.748 597.093 257.57 591.465 258.787 588.796 L 283.056 554.3 Z " fill="rgb(171,42,17)"/><defs><filter id="50aejA6wqKNbsBi3Av2NOlLVndHo2SaL" x="-200%" y="-200%" width="400%" height="400%" filterUnits="objectBoundingBox" color-interpolation-filters="sRGB"><feOffset xmlns="http://www.w3.org/2000/svg" in="SourceGraphic" dx="-5" dy="0"/><feGaussianBlur xmlns="http://www.w3.org/2000/svg" stdDeviation="2.576165437703417" result="pf_100_offsetBlur"/><feComposite xmlns="http://www.w3.org/2000/svg" in="SourceGraphic" in2="pf_100_offsetBlur" result="pf_100_inverse" operator="out"/><feFlood xmlns="http://www.w3.org/2000/svg" flood-color="#512727" flood-opacity="0.4" result="pf_100_color"/><feComposite xmlns="http://www.w3.org/2000/svg" in="pf_100_color" in2="pf_100_inverse" operator="in" result="pf_100_shadow"/><feComposite xmlns="http://www.w3.org/2000/svg" in="pf_100_shadow" in2="SourceGraphic" operator="over"/></filter></defs><g filter="url(#50aejA6wqKNbsBi3Av2NOlLVndHo2SaL)"><path d=" M 282.732 554.554 Q 277.976 565.304 273.462 572.241 C 264.187 586.496 261.475 594.801 260.981 596.985 L 259.8 603.024 L 258.787 611.648 L 256.984 639.28 L 256.984 685.24 L 259.8 725.732 L 261.204 757.79 L 257.306 755.859 Q 252.414 686.939 252.135 685.039 L 252.135 638.636 L 253.283 611.648 L 254.421 603.024 L 255.576 596.609 L 256.984 591.062 L 258.787 586.878 L 282.732 554.554 Z " fill="rgb(110,27,11)"/></g><path d=" M 236.972 596.411 L 243.753 600.557 L 241.047 763.5 L 220.86 755.649 L 227.742 613.344 Q 225.777 603.337 219.468 597.914 L 211.822 591.656 L 236.972 596.411 Z " fill="rgb(212,53,21)"/></g><g><path d=" M 226.89 607.379 Q 227.724 608.853 230.866 616.225 L 237.289 627.725 L 242.93 601.535 L 234.842 605.904 L 226.89 607.379 Z " fill="rgb(110,27,11)"/><defs><filter id="QW2250PFzlIpfpM1BvLj6pLyfscx7gzF" x="-200%" y="-200%" width="400%" height="400%" filterUnits="objectBoundingBox" color-interpolation-filters="sRGB"><feOffset xmlns="http://www.w3.org/2000/svg" in="SourceGraphic" dx="-8" dy="14"/><feGaussianBlur xmlns="http://www.w3.org/2000/svg" stdDeviation="7.299135406826348" result="pf_100_offsetBlur"/><feComposite xmlns="http://www.w3.org/2000/svg" in="SourceGraphic" in2="pf_100_offsetBlur" result="pf_100_inverse" operator="out"/><feFlood xmlns="http://www.w3.org/2000/svg" flood-color="#512222" flood-opacity="0.4" result="pf_100_color"/><feComposite xmlns="http://www.w3.org/2000/svg" in="pf_100_color" in2="pf_100_inverse" operator="in" result="pf_100_shadow"/><feComposite xmlns="http://www.w3.org/2000/svg" in="pf_100_shadow" in2="SourceGraphic" operator="over"/></filter></defs><g filter="url(#QW2250PFzlIpfpM1BvLj6pLyfscx7gzF)"><path d=" M 234.842 605.904 L 242.93 601.535 L 237.289 627.725 L 236.28 608.519 L 234.842 605.904 Z " fill="rgb(110,27,11)"/></g></g></g></g></svg>