<?xml version="1.0" encoding="UTF-8" standalone="no"?>
<svg
   xmlns:dc="http://purl.org/dc/elements/1.1/"
   xmlns:cc="http://creativecommons.org/ns#"
   xmlns:rdf="http://www.w3.org/1999/02/22-rdf-syntax-ns#"
   xmlns:svg="http://www.w3.org/2000/svg"
   xmlns="http://www.w3.org/2000/svg"
   viewBox="0 0 496.50266 496.50534"
   height="496.50534"
   width="496.50266"
   xml:space="preserve"
   id="svg2"
   version="1.1"><metadata
     id="metadata8"><rdf:RDF><cc:Work
         rdf:about=""><dc:format>image/svg+xml</dc:format><dc:type
           rdf:resource="http://purl.org/dc/dcmitype/StillImage" /></cc:Work></rdf:RDF></metadata><defs
     id="defs6"><clipPath
       id="clipPath20"
       clipPathUnits="userSpaceOnUse"><path
         id="path18"
         d="M 0,372.379 H 372.377 V 0 H 0 Z" /></clipPath></defs><g
     transform="matrix(1.3333333,0,0,-1.3333333,0,496.50533)"
     id="g10"><path
       id="path12"
       style="fill:#ffffff;fill-opacity:1;fill-rule:nonzero;stroke:none"
       d="M 0,0 H 372.378 V 372.379 H 0 Z" /><g
       id="g14"><g
         clip-path="url(#clipPath20)"
         id="g16"><path
           id="path22"
           style="fill:none;stroke:#373535;stroke-width:0.25;stroke-linecap:butt;stroke-linejoin:miter;stroke-miterlimit:10;stroke-dasharray:none;stroke-opacity:1"
           d="M 372.377,0 H 0 v 372.379 h 372.377 z" /><g
           transform="translate(75.7539,178.6484)"
           id="g24"><path
             id="path26"
             style="fill:#c8c9cb;fill-opacity:1;fill-rule:nonzero;stroke:none"
             d="m 0,0 c 0,-3.082 1.141,-4.621 3.42,-4.621 2.439,0.039 4.46,1.34 6.06,3.9 0.56,0.879 1.02,1.959 1.38,3.241 0,4.479 0.4,8.318 1.201,11.52 C 8.82,13.399 6,11.839 3.6,9.36 1.2,6.879 0,3.758 0,0 m 28.32,3.6 c 0.72,0 1.08,-0.922 1.08,-2.76 0,-1 -0.42,-2.211 -1.259,-3.631 -0.84,-1.42 -1.931,-2.721 -3.271,-3.9 -1.341,-1.18 -2.83,-2.151 -4.47,-2.911 -1.64,-0.759 -3.24,-1.138 -4.8,-1.138 -2.121,0 -3.539,1.859 -4.26,5.58 -1.041,-1.721 -2.401,-3.131 -4.08,-4.231 -1.68,-1.101 -3.93,-1.65 -6.75,-1.65 -2.821,0 -5.09,0.879 -6.81,2.641 -1.72,1.759 -2.56,3.9 -2.52,6.42 0,6.798 2.259,12.158 6.78,16.08 1.921,1.639 3.71,2.719 5.37,3.239 1.66,0.52 3.41,0.781 5.25,0.781 1.84,0 3.34,-0.321 4.5,-0.96 0.56,1.159 1.2,1.739 1.92,1.739 1.4,0 2.73,-0.609 3.99,-1.83 C 20.25,15.848 20.881,14.7 20.881,13.62 20.319,12.299 19.5,10.719 18.42,8.879 18.1,7.04 17.939,4.459 17.939,1.139 c 0,-3.321 0.421,-4.979 1.261,-4.979 1.04,0 3.56,2.078 7.56,6.238 C 27.48,3.199 28,3.6 28.32,3.6" /></g><g
           transform="translate(130.5332,186.3286)"
           id="g28"><path
             id="path30"
             style="fill:#c8c9cb;fill-opacity:1;fill-rule:nonzero;stroke:none"
             d="m 0,0 c 0,1.319 -0.76,1.979 -2.28,1.979 -1.04,0 -2.2,-1.01 -3.48,-3.03 -1.281,-2.02 -2.201,-4.19 -2.76,-6.51 V -7.68 c 0,-1.362 0.209,-2.762 0.629,-4.201 0.42,-1.44 0.631,-2.44 0.631,-3 0,-1.36 -1.701,-2.7 -5.1,-4.02 -0.521,-0.199 -0.981,-0.301 -1.38,-0.301 -1,0 -1.691,0.522 -2.071,1.561 -0.38,1.039 -0.57,2.449 -0.57,4.23 0,1.78 0.051,3.459 0.151,5.039 0.099,1.58 0.2,3.039 0.3,4.381 0.1,1.34 0.2,2.52 0.299,3.54 0.1,1.02 0.151,1.849 0.151,2.49 0,1.359 -0.621,2.04 -1.86,2.04 -1.24,0 -2.681,-1.45 -4.32,-4.35 -1.641,-2.901 -2.46,-5.2 -2.46,-6.899 0,-1.702 0.21,-3.272 0.63,-4.711 0.42,-1.44 0.63,-2.44 0.63,-3 0,-1.36 -1.701,-2.7 -5.1,-4.02 -0.52,-0.199 -0.981,-0.301 -1.38,-0.301 -1,0 -1.69,0.522 -2.07,1.561 -0.381,1.039 -0.57,2.641 -0.57,4.801 0,5.679 0.219,9.779 0.66,12.299 0.599,3.721 1.959,7.24 4.08,10.561 0.72,1.119 1.5,1.679 2.34,1.679 1.32,0 2.54,-1.08 3.66,-3.24 0.32,-0.561 0.559,-1.08 0.72,-1.56 1.92,2.4 4.179,3.601 6.78,3.601 1.719,0 3.26,-0.57 4.62,-1.711 1.359,-1.14 2.04,-2.57 2.04,-4.289 V 3.84 c 2.439,3.039 5.42,4.559 8.939,4.559 2.161,0 3.801,-0.56 4.92,-1.68 C 7.899,5.6 8.46,4.219 8.46,2.579 8.46,0.938 8.34,-0.541 8.1,-1.862 7.859,-3.18 7.59,-4.42 7.29,-5.581 6.99,-6.741 6.72,-7.77 6.48,-8.67 c -0.24,-0.901 -0.361,-1.602 -0.361,-2.1 0,-0.502 0.16,-0.75 0.481,-0.75 0.599,0 1.339,0.379 2.22,1.139 0.879,0.759 1.76,1.589 2.64,2.49 0.88,0.9 1.689,1.73 2.43,2.49 0.739,0.76 1.25,1.141 1.53,1.141 0.559,0 0.84,-0.682 0.84,-2.041 0,-2.801 -1.41,-5.52 -4.231,-8.16 C 9.21,-17.1 6.199,-18.42 3,-18.42 c -2.881,0 -4.32,2.619 -4.32,7.859 0,1.32 0.219,3.141 0.66,5.461 C -0.221,-2.782 0,-1.081 0,0" /></g><g
           transform="translate(162.9932,180.1484)"
           id="g32"><path
             id="path34"
             style="fill:#c8c9cb;fill-opacity:1;fill-rule:nonzero;stroke:none"
             d="m 0,0 c 0.68,1.439 1.021,2.84 1.021,4.199 0,1.36 -0.442,2.04 -1.321,2.04 -0.36,0 -0.66,-0.26 -0.9,-0.78 -0.24,-0.52 -0.36,-1.02 -0.36,-1.5 0,-1.6 0.52,-2.92 1.56,-3.959 m 0.54,-6.961 c -3.16,-3.721 -6.951,-5.58 -11.37,-5.58 -4.421,0 -7.731,1.131 -9.93,3.391 -2.2,2.259 -3.28,5.07 -3.24,8.429 -0.04,4.76 1.46,8.86 4.5,12.301 3.04,3.439 7.021,5.159 11.94,5.159 2.24,0 4.039,-0.28 5.4,-0.84 C 0.2,14.94 1.38,14.04 1.38,13.2 c 0,-0.641 -1.651,-0.971 -4.949,-0.991 -3.301,-0.02 -6.061,-1.16 -8.282,-3.419 -2.218,-2.26 -3.33,-5.11 -3.33,-8.552 0,-1.799 0.531,-3.308 1.591,-4.529 1.06,-1.221 2.56,-1.83 4.5,-1.83 1.94,0 3.55,0.4 4.83,1.201 -2.841,1.92 -4.261,4.699 -4.261,8.34 -0.04,1.919 0.651,3.668 2.071,5.249 1.42,1.58 3.24,2.38 5.46,2.4 2.219,0.02 3.809,-0.59 4.77,-1.83 0.96,-1.24 1.44,-2.83 1.44,-4.77 0,-1.94 -0.46,-3.99 -1.38,-6.151 H 4.2 c 1.76,0.041 3.279,0.661 4.56,1.862 0.48,0.48 0.889,0.9 1.23,1.259 0.339,0.36 0.691,0.54 1.05,0.54 0.56,0 0.84,-0.661 0.84,-1.979 0,-2.441 -0.72,-4.271 -2.16,-5.49 -1.44,-1.221 -3.03,-1.83 -4.77,-1.83 -1.74,0 -3.21,0.119 -4.41,0.359" /></g><g
           transform="translate(305.4458,173.6113)"
           id="g36"><path
             id="path38"
             style="fill:#8cd7f8;fill-opacity:1;fill-rule:nonzero;stroke:none"
             d="m 0,0 c 0,-3.316 -2.689,-6.004 -6.006,-6.004 -3.314,0.002 -6.002,2.69 -6.002,6.006 0,3.316 2.69,6.004 6.004,6.002 C -2.688,6.004 0,3.316 0,0" /></g><g
           transform="translate(211.4478,202.7876)"
           id="g40"><path
             id="path42"
             style="fill:#8cd7f8;fill-opacity:1;fill-rule:nonzero;stroke:none"
             d="m 0,0 c 0.52,0 0.781,-0.681 0.781,-2.04 0,-1.359 -0.082,-2.64 -0.24,-3.84 C 0.18,-8.2 -0.279,-10.36 -0.84,-12.36 -2.279,-17.799 -3,-20.979 -3,-21.899 v -8.82 c 0,-2.16 -0.82,-3.641 -2.459,-4.442 -0.762,-0.359 -1.49,-0.699 -2.191,-1.019 -0.7,-0.32 -1.491,-0.481 -2.37,-0.481 -1.679,0 -2.519,1.93 -2.519,5.791 0,3.86 0.9,8.731 2.699,14.61 1.801,5.88 3.68,10.36 5.641,13.441 0.398,0.599 0.978,1.218 1.74,1.859 C -1.699,-0.32 -0.879,0 0,0 m 26.1,-21.6 c 0.679,0 1.021,-0.92 1.021,-2.76 0,-1 -0.42,-2.211 -1.26,-3.631 -0.841,-1.42 -1.931,-2.72 -3.271,-3.898 -1.34,-1.182 -2.83,-2.153 -4.469,-2.91 -1.641,-0.762 -3.201,-1.141 -4.68,-1.141 -1.48,0 -2.64,0.279 -3.48,0.84 -0.84,0.56 -1.5,1.32 -1.981,2.279 -0.679,1.36 -1.24,3.951 -1.679,7.772 -0.442,3.818 -0.881,6.488 -1.321,8.009 -1.041,0.2 -1.949,0.609 -2.73,1.23 -0.779,0.62 -1.17,1.38 -1.17,2.28 0,0.9 0.41,1.551 1.231,1.951 0.818,0.398 1.759,0.6 2.82,0.6 1.058,0 2.01,-0.261 2.849,-0.781 1.12,0.92 2.03,2.01 2.731,3.271 0.699,1.26 1.049,2.959 1.049,5.099 0,2.139 -0.719,3.85 -2.16,5.13 C 8.16,3.021 6.051,3.66 3.27,3.66 0.49,3.66 -1.641,3.44 -3.119,3 -4.6,2.56 -5.871,2.079 -6.93,1.56 c -1.06,-0.52 -2,-1 -2.82,-1.44 -0.82,-0.44 -1.59,-0.66 -2.309,-0.66 -0.72,0 -1.08,0.23 -1.08,0.69 0,0.459 0.379,1.209 1.139,2.25 0.76,1.04 1.881,2.079 3.361,3.121 3.719,2.599 7.92,3.889 12.6,3.869 4.68,-0.02 8.539,-0.911 11.58,-2.67 3.559,-2.08 5.34,-5.199 5.34,-9.36 0.039,-3.441 -0.861,-6.3 -2.701,-8.58 -1.84,-2.28 -4.119,-3.921 -6.84,-4.92 0.601,-1.319 1.09,-2.739 1.471,-4.259 0.378,-1.521 0.75,-2.922 1.109,-4.201 0.361,-1.281 0.769,-2.34 1.23,-3.18 0.459,-0.84 1.02,-1.26 1.68,-1.26 0.66,0 1.461,0.389 2.4,1.17 0.94,0.78 1.87,1.629 2.79,2.549 0.919,0.922 1.75,1.772 2.49,2.551 0.74,0.781 1.269,1.17 1.59,1.17" /></g><g
           transform="translate(289.2095,181.1875)"
           id="g44"><path
             id="path46"
             style="fill:#8cd7f8;fill-opacity:1;fill-rule:nonzero;stroke:none"
             d="m 0,0 c 0.68,0 1.02,-0.92 1.02,-2.76 0,-1 -0.42,-2.211 -1.26,-3.631 -0.84,-1.42 -1.93,-2.72 -3.27,-3.898 -1.342,-1.182 -2.832,-2.152 -4.47,-2.91 -1.641,-0.762 -3.372,-1.141 -5.19,-1.141 -1.82,0 -3.24,0.59 -4.26,1.77 -1.021,1.179 -1.531,2.5 -1.531,3.961 0,1.459 0.24,3.109 0.721,4.949 0.48,1.84 1,3.76 1.56,5.76 1.52,5.319 2.299,9.06 2.34,11.22 0,0.92 -0.121,1.63 -0.361,2.131 -0.24,0.5 -0.699,0.75 -1.379,0.75 -1.201,0 -2.481,-0.721 -3.84,-2.16 C -21.281,12.6 -22.561,10.76 -23.76,8.521 -26.521,3.4 -27.98,-1.6 -28.141,-6.48 c 0.08,-0.561 0.161,-1.12 0.241,-1.68 0.08,-0.561 0.119,-1.16 0.119,-1.799 0,-1.281 -0.629,-2.451 -1.889,-3.512 -1.26,-1.058 -2.67,-1.59 -4.23,-1.59 -0.92,0 -1.6,0.452 -2.041,1.352 -0.442,0.898 -0.661,2.01 -0.661,3.328 0,1.32 0.299,3.121 0.901,5.401 0.601,2.281 1.26,4.701 1.98,7.261 1.92,6.759 2.901,11.799 2.94,15.119 0,1.681 -0.209,3 -0.629,3.961 -0.42,0.959 -1.231,1.439 -2.43,1.439 -2.16,0 -4.303,-1.54 -6.422,-4.62 -2.121,-3.081 -4.019,-7.86 -5.701,-14.34 -0.439,-1.68 -0.779,-3.141 -1.019,-4.379 l -0.061,-1.141 c 0.76,-3.681 1.141,-6.08 1.141,-7.201 0,-2.32 -0.821,-3.879 -2.459,-4.68 -0.762,-0.359 -1.493,-0.699 -2.192,-1.019 -0.699,-0.32 -1.449,-0.481 -2.25,-0.481 -2,0 -3,1.911 -3,5.731 0,3.82 1.061,11.289 3.182,22.411 0.758,3.999 1.139,6.239 1.139,6.719 0,3.241 -0.821,4.86 -2.459,4.86 -0.561,0 -1.071,-0.16 -1.532,-0.48 -0.459,-0.32 -0.92,-0.659 -1.379,-1.02 -0.461,-0.36 -0.929,-0.7 -1.41,-1.02 -0.48,-0.32 -1.031,-0.48 -1.65,-0.48 -0.621,0 -0.93,0.541 -0.93,1.621 0,2.199 1.02,3.999 3.061,5.399 1.959,1.441 4.34,2.16 7.138,2.16 3.6,0 5.721,-1.68 6.362,-5.04 0.158,-1 0.279,-2.06 0.359,-3.179 2.959,5.558 6.699,8.339 11.221,8.339 4.92,0 7.74,-2.361 8.461,-7.08 0.24,-1.36 0.34,-2.82 0.299,-4.38 v -0.479 c 2.599,3.6 5.679,5.399 9.24,5.399 5.041,0 7.56,-3.04 7.56,-9.12 0,-2.64 -0.41,-5.73 -1.23,-9.269 -0.82,-3.541 -1.42,-6.082 -1.799,-7.621 -0.381,-1.539 -0.57,-2.73 -0.57,-3.57 0,-1.52 0.529,-2.279 1.59,-2.279 1.058,0 3.589,2.078 7.589,6.24 C -0.84,-0.4 -0.32,0 0,0" /></g><g
           transform="translate(203.7544,189.1499)"
           id="g48"><path
             id="path50"
             style="fill:#8cd7f8;fill-opacity:1;fill-rule:nonzero;stroke:none"
             d="m 0,0 c 1.008,0 1.516,-0.965 1.516,-2.892 0,-1.928 -0.434,-3.998 -1.307,-6.211 -0.869,-2.213 -2.188,-4.346 -3.957,-6.398 -1.77,-2.055 -4.029,-3.811 -6.779,-5.262 -2.754,-1.455 -5.996,-2.182 -9.728,-2.182 -3.736,0 -7.005,1.246 -9.811,3.744 -2.809,2.498 -4.211,6.102 -4.211,10.811 0,4.706 0.658,8.974 1.978,12.798 1.319,3.824 3.059,7.127 5.221,9.908 2.161,2.782 4.619,4.947 7.37,6.496 2.751,1.547 5.36,2.323 7.831,2.323 4.324,0 6.486,-1.93 6.486,-5.784 0,-2.214 -0.406,-3.982 -1.22,-5.31 -0.817,-1.326 -1.643,-1.99 -2.485,-1.99 -1.125,0 -2.105,0.441 -2.947,1.328 -0.844,0.883 -1.77,1.342 -2.781,1.373 -1.012,0.031 -3.756,0.107 -6.09,-3.643 -1.631,-2.621 -1.38,-2.355 -2,-4.125 -1.234,-3.541 -1.958,-6.259 -1.958,-10.999 0.056,-2.276 2.091,-5.756 3.888,-6.895 1.234,-0.757 2.707,-1.394 4.38,-1.183 3.608,0.453 5.633,2.164 7.108,3.744 1.361,1.459 2.56,2.842 3.853,4.33 1.289,1.484 2.426,2.857 3.411,4.123 C -1.25,-0.632 -0.508,0 0,0" /></g></g></g></g></svg>