<?xml version="1.0" encoding="utf-8"?>
<!-- Generator: Adobe Illustrator 22.0.1, SVG Export Plug-In . SVG Version: 6.00 Build 0)  -->
<svg version="1.1" id="Layer_1" xmlns="http://www.w3.org/2000/svg" xmlns:xlink="http://www.w3.org/1999/xlink" x="0px" y="0px"
	 viewBox="0 0 217.3 31.9" style="enable-background:new 0 0 217.3 31.9;" xml:space="preserve">
<style type="text/css">
	.st0{fill:#C3C3C3;}
</style>
<g>
	<path class="st0" d="M205.8,31.6c-4.6,0-9.2-1.6-12.9-4.9l3.9-4.7c2.7,2.3,5.6,3.7,9.1,3.7c2.7,0,4.4-1.1,4.4-2.9v-0.1
		c0-1.7-1-2.6-6.1-3.9c-6.1-1.6-10.1-3.3-10.1-9.3V9.5c0-5.5,4.4-9.1,10.6-9.1c4.4,0,8.2,1.4,11.3,3.9l-3.5,5c-2.7-1.9-5.3-3-7.9-3
		c-2.6,0-3.9,1.2-3.9,2.6V9c0,2,1.3,2.6,6.5,4c6.2,1.6,9.6,3.8,9.6,9.1v0.1C217,28.2,212.4,31.6,205.8,31.6 M171.9,18.4h8.1l-4-9.8
		L171.9,18.4z M160,31.1l13-30.6h6.2l13,30.6h-7l-2.8-6.8h-12.8l-2.8,6.8H160z M146.6,31.4L134.4,0.8h7.4l7.9,21.4l7.9-21.4h7.2
		l-12.3,30.6H146.6z M103.6,31.1V0.8h6.2L124,19.5V0.8h6.6v30.3h-5.7l-14.7-19.3v19.3H103.6z M79.6,18.4h8.1l-4-9.8L79.6,18.4z
		 M67.6,31.1l13-30.6h6.2l13,30.6h-7L90,24.3H77.2l-2.8,6.8H67.6z M54.2,31.7c-8.9,0-15.6-6.9-15.6-15.6V16
		c0-8.6,6.5-15.7,15.8-15.7c5.7,0,9.1,1.9,12,4.7l-4.2,4.9c-2.3-2.1-4.7-3.4-7.8-3.4c-5.1,0-8.8,4.2-8.8,9.5V16
		c0,5.2,3.6,9.5,8.8,9.5c3.5,0,5.6-1.4,8-3.6l4.2,4.3C63.5,29.6,60.1,31.7,54.2,31.7 M0.3,0.6h30.6v30.6H0.3V0.6z"/>
</g>
</svg>
