<?xml version="1.0" encoding="UTF-8" standalone="no"?><!-- Generator: Gravit.io --><svg xmlns="http://www.w3.org/2000/svg" xmlns:xlink="http://www.w3.org/1999/xlink" style="isolation:isolate" viewBox="6 5 88 90" width="88pt" height="90pt"><defs><clipPath id="_clipPath_U3CySZrXIx8lCb67oTEbkbkY8jes5GaH"><rect width="100" height="100"/></clipPath></defs><g clip-path="url(#_clipPath_U3CySZrXIx8lCb67oTEbkbkY8jes5GaH)"><g><path d=" M 93.448 52.055 C 93.424 51.874 93.398 51.693 93.343 51.518 C 93.23 51.16 93.109 50.801 92.941 50.459 C 92.759 50.095 92.534 49.742 92.295 49.401 C 92.028 49.026 91.73 48.665 91.415 48.313 C 91.233 48.107 91.022 47.914 90.805 47.731 C 90.561 47.527 90.31 47.325 90.036 47.148 C 89.416 46.747 88.8 46.339 88.124 46.002 C 86.647 45.264 85.175 44.498 83.59 43.929 C 81.674 43.244 79.821 42.431 77.845 41.873 L 64.531 38.109 C 64.531 36.048 64.604 33.988 64.531 31.929 C 64.42 28.872 64.268 25.814 63.977 22.765 C 63.774 20.642 63.461 18.526 63.054 16.423 C 62.737 14.782 62.257 13.164 61.81 11.544 C 61.708 11.172 61.554 10.812 61.403 10.454 C 61.268 10.13 61.121 9.809 60.958 9.493 C 60.811 9.208 60.65 8.927 60.478 8.649 C 60.321 8.401 60.149 8.158 59.966 7.921 C 59.803 7.708 59.621 7.499 59.434 7.297 C 59.264 7.114 59.084 6.939 58.892 6.771 C 58.72 6.617 58.535 6.471 58.343 6.33 C 58.171 6.203 57.986 6.086 57.797 5.972 C 57.622 5.868 57.439 5.772 57.255 5.685 C 57.082 5.604 56.907 5.525 56.722 5.464 C 56.401 5.356 56.074 5.254 55.741 5.177 C 55.464 5.113 55.177 5.079 54.893 5.046 C 54.68 5.021 54.465 5.009 54.252 5.005 C 53.888 5 53.519 4.994 53.157 5.015 C 52.769 5.038 52.381 5.077 52 5.138 C 51.59 5.204 51.186 5.287 50.791 5.394 C 50.365 5.51 49.951 5.651 49.551 5.81 C 49.103 5.99 48.675 6.198 48.252 6.413 C 47.804 6.642 47.362 6.881 46.938 7.139 C 46.198 7.594 45.441 8.035 44.766 8.551 C 41.986 10.677 39.256 12.846 36.587 15.061 C 35.162 16.242 33.783 17.463 32.493 18.738 C 27.363 23.793 22.257 28.864 17.324 34.047 C 15.133 36.347 13.162 38.779 11.134 41.171 C 10.627 41.77 10.154 42.389 9.717 43.022 C 8.957 44.13 8.245 45.258 7.549 46.393 C 7.369 46.687 7.227 46.999 7.09 47.31 C 6.958 47.606 6.837 47.907 6.74 48.211 C 6.65 48.498 6.572 48.791 6.532 49.085 C 6.496 49.357 6.491 49.632 6.513 49.904 C 6.525 50.041 6.574 50.175 6.629 50.304 C 6.688 50.445 6.766 50.58 6.856 50.709 C 6.955 50.85 7.071 50.982 7.192 51.11 C 7.324 51.248 7.459 51.383 7.611 51.506 C 7.94 51.77 8.276 52.028 8.633 52.267 C 9 52.514 9.378 52.749 9.776 52.96 C 10.469 53.33 11.186 53.675 11.898 54.014 C 12.21 54.162 12.539 54.289 12.856 54.424 C 12.97 54.47 12.632 54.328 12.52 54.278 C 12.506 54.274 12.471 54.257 12.483 54.26 C 12.501 54.264 12.52 54.276 12.537 54.284 C 12.712 54.359 12.887 54.432 13.065 54.507 C 17.449 56.371 21.85 58.209 26.213 60.102 C 30.6 62.005 34.985 63.913 39.317 65.895 L 49.059 70.35 C 45.675 72.434 42.227 74.447 38.915 76.598 C 37.649 77.42 36.473 78.331 35.325 79.262 C 34.393 80.019 33.515 80.822 32.687 81.652 C 32.025 82.316 31.421 83.019 30.858 83.741 C 30.416 84.304 30.028 84.899 29.68 85.502 C 29.415 85.96 29.202 86.438 29.015 86.921 C 28.88 87.26 28.792 87.609 28.717 87.959 C 28.672 88.169 28.662 88.387 28.648 88.603 C 28.643 88.676 28.66 88.749 28.66 88.822 C 28.665 89.017 28.653 89.209 28.667 89.402 C 28.679 89.583 28.705 89.764 28.74 89.939 C 28.774 90.111 28.818 90.28 28.875 90.448 C 28.927 90.606 28.996 90.764 29.069 90.918 C 29.143 91.066 29.225 91.212 29.315 91.355 C 29.405 91.494 29.498 91.634 29.613 91.759 C 29.838 92.01 30.065 92.258 30.333 92.478 C 30.6 92.697 30.894 92.898 31.201 93.081 C 31.509 93.265 31.84 93.427 32.176 93.577 C 32.517 93.728 32.869 93.859 33.229 93.98 C 33.586 94.101 33.946 94.23 34.324 94.298 C 35.685 94.542 37.055 94.766 38.437 94.918 C 39.114 94.993 39.802 95.024 40.481 94.98 C 42.836 94.829 45.187 94.635 47.521 94.336 C 50.244 93.988 52.946 93.522 55.641 93.042 C 58.819 92.476 61.987 91.877 65.134 91.205 C 67.358 90.729 69.62 90.307 71.75 89.598 C 73.428 89.042 75.122 88.51 76.785 87.927 C 77.159 87.798 77.511 87.628 77.862 87.461 C 78.179 87.31 78.491 87.147 78.789 86.973 C 79.052 86.821 79.312 86.659 79.546 86.478 C 79.745 86.326 79.927 86.157 80.088 85.976 C 80.228 85.823 80.344 85.654 80.441 85.479 C 80.526 85.325 80.59 85.159 80.635 84.991 C 80.677 84.839 80.696 84.679 80.696 84.523 C 80.696 84.371 80.673 84.219 80.64 84.071 C 80.602 83.926 80.55 83.782 80.483 83.641 C 80.419 83.501 80.334 83.364 80.242 83.233 C 80.15 83.102 80.048 82.973 79.939 82.852 C 79.83 82.73 79.714 82.609 79.589 82.497 C 79.345 82.289 79.097 82.079 78.834 81.891 C 78.605 81.725 78.359 81.577 78.11 81.434 C 77.866 81.294 77.613 81.163 77.36 81.037 C 75.626 80.186 73.898 79.317 72.152 78.48 L 64.838 74.965 C 69.28 72.513 73.761 70.107 78.162 67.604 C 80.043 66.535 81.894 65.429 83.678 64.256 C 85.206 63.251 86.661 62.172 88.086 61.075 C 88.765 60.553 89.368 59.973 89.983 59.401 C 90.263 59.141 90.521 58.864 90.764 58.58 C 90.989 58.324 91.216 58.066 91.394 57.785 C 91.966 56.86 92.529 55.93 93.007 54.971 C 93.199 54.58 93.28 54.158 93.388 53.746 C 93.438 53.556 93.457 53.359 93.476 53.165 C 93.495 52.978 93.502 52.789 93.5 52.602 C 93.488 52.421 93.474 52.236 93.448 52.055 L 93.448 52.055 Z  M 38.856 27.726 C 41.335 25.633 43.82 23.543 46.342 21.482 C 46.801 21.107 47.312 20.77 47.804 20.421 C 47.975 20.3 48.157 20.184 48.339 20.07 C 48.479 19.984 48.616 19.893 48.767 19.816 C 48.874 19.762 48.988 19.716 49.103 19.677 C 49.227 19.637 49.35 19.597 49.482 19.579 C 49.619 19.56 49.759 19.562 49.901 19.568 C 49.972 19.57 50.043 19.585 50.111 19.604 C 50.182 19.622 50.256 19.649 50.322 19.679 C 50.393 19.712 50.464 19.751 50.526 19.793 C 50.599 19.841 50.667 19.895 50.729 19.953 C 50.8 20.018 50.866 20.088 50.923 20.161 C 50.989 20.246 51.06 20.332 51.103 20.427 C 51.224 20.681 51.332 20.941 51.413 21.207 C 51.529 21.586 51.619 21.971 51.692 22.36 C 51.872 23.308 52.038 24.257 52.168 25.209 C 52.338 26.442 52.461 27.678 52.601 28.913 L 53.353 35.486 L 44.355 33.801 L 35.957 32.676 L 33.925 32.549 L 33.264 32.535 C 35.127 30.931 36.975 29.315 38.856 27.726 L 38.856 27.726 Z  M 33.212 36.867 L 33.246 36.826 L 33.293 36.805 L 33.361 36.799 L 33.47 36.813 L 33.785 36.886 L 34.599 37.14 L 35.706 37.541 C 38.565 38.537 41.423 39.532 44.284 40.524 C 46.179 41.183 48.077 41.836 49.969 42.495 L 53.715 43.797 L 54.049 43.918 C 54.25 46.327 54.496 48.735 54.652 51.146 C 54.775 53.03 54.825 54.917 54.882 56.803 C 54.889 57.042 54.865 57.278 54.844 57.515 C 54.834 57.648 54.818 57.783 54.794 57.916 C 54.768 58.049 54.737 58.182 54.69 58.309 C 54.643 58.434 54.591 58.561 54.512 58.677 C 54.439 58.79 54.337 58.894 54.236 58.994 C 54.186 59.045 54.117 59.089 54.053 59.129 C 53.987 59.17 53.914 59.21 53.838 59.245 C 53.76 59.28 53.673 59.308 53.587 59.333 C 53.493 59.36 53.396 59.384 53.296 59.399 C 53.176 59.416 53.053 59.426 52.932 59.43 C 52.804 59.432 52.676 59.43 52.549 59.416 C 52.411 59.403 52.279 59.38 52.149 59.353 C 52.007 59.324 51.867 59.293 51.735 59.249 C 51.444 59.149 51.153 59.043 50.878 58.916 C 50.566 58.771 50.265 58.607 49.974 58.434 C 49.652 58.241 49.345 58.035 49.047 57.822 C 48.72 57.587 48.401 57.348 48.105 57.092 C 47.457 56.527 46.815 55.953 46.214 55.354 C 45.128 54.274 44 53.213 43.046 52.053 C 41.731 50.455 40.382 48.875 39.102 47.258 C 38.337 46.293 37.554 45.332 36.918 44.303 L 34.029 39.644 L 33.406 38.159 L 33.264 37.718 L 33.179 37.293 L 33.172 36.984 L 33.212 36.867 L 33.212 36.867 Z  M 65.137 78.162 C 65.915 78.562 66.698 78.957 67.465 79.369 C 68.456 79.901 69.45 80.429 70.411 80.995 C 71.102 81.401 71.762 81.84 72.415 82.289 C 72.703 82.49 72.976 82.705 73.236 82.933 C 73.446 83.119 73.631 83.323 73.818 83.528 C 73.83 83.541 73.832 83.558 73.83 83.574 C 73.83 83.61 73.825 83.645 73.811 83.68 C 73.804 83.703 73.782 83.722 73.763 83.738 C 73.735 83.759 73.704 83.778 73.671 83.79 C 73.626 83.807 73.579 83.817 73.529 83.824 C 73.461 83.836 73.39 83.844 73.321 83.847 C 69.526 84.078 65.726 84.29 61.933 84.533 L 47.104 85.481 L 46.643 85.504 L 46.856 85.317 L 47.79 84.645 C 49.714 83.481 51.574 82.247 53.557 81.153 L 61.954 76.519 C 63.012 77.066 64.074 77.613 65.137 78.162 L 65.137 78.162 Z  M 76.558 54.399 C 76.518 54.511 76.466 54.621 76.402 54.723 C 76.324 54.842 76.234 54.958 76.127 55.06 C 75.874 55.304 75.607 55.543 75.318 55.761 C 74.698 56.221 74.085 56.693 73.401 57.088 C 71.045 58.448 68.714 59.84 66.329 61.167 C 64.687 62.082 62.993 62.937 61.318 63.813 L 51.576 68.908 C 50.197 68.264 48.817 67.619 47.438 66.978 L 29.796 58.769 C 25.811 56.832 21.803 54.927 17.844 52.955 C 17.099 52.583 16.399 52.151 15.686 51.739 C 15.459 51.608 15.249 51.458 15.031 51.319 C 14.962 51.277 14.887 51.239 14.823 51.192 C 14.674 51.081 14.522 50.965 14.383 50.842 C 14.297 50.765 14.226 50.682 14.155 50.595 C 14.087 50.505 14.018 50.41 13.971 50.31 C 13.921 50.208 13.876 50.1 13.857 49.989 C 13.836 49.873 13.834 49.756 13.855 49.64 C 13.876 49.513 13.919 49.39 13.973 49.27 C 14.03 49.141 14.101 49.014 14.189 48.897 C 14.364 48.654 14.551 48.413 14.764 48.188 C 15.01 47.93 15.272 47.683 15.551 47.45 C 17.83 45.541 20.144 43.66 22.435 41.759 L 28.61 36.63 L 28.904 37.458 L 29.654 38.914 L 29.703 39.003 C 31.336 41.306 32.869 43.658 34.601 45.913 C 36.591 48.506 38.728 51.023 40.862 53.536 C 41.865 54.713 42.911 55.867 44.014 56.986 C 44.972 57.958 45.964 58.914 47.04 59.803 C 47.984 60.583 49.018 61.296 50.069 61.984 C 50.589 62.323 51.174 62.596 51.746 62.875 C 52.016 63.01 52.307 63.118 52.598 63.224 C 52.875 63.322 53.157 63.409 53.443 63.484 C 53.722 63.557 54.006 63.617 54.295 63.665 C 54.555 63.709 54.822 63.744 55.087 63.763 C 55.329 63.781 55.573 63.784 55.816 63.777 C 56.039 63.773 56.263 63.756 56.486 63.727 C 56.692 63.702 56.898 63.663 57.096 63.617 C 57.286 63.574 57.47 63.521 57.652 63.457 C 57.82 63.401 57.986 63.334 58.147 63.261 C 58.298 63.191 58.452 63.12 58.592 63.033 C 58.847 62.875 59.103 62.712 59.335 62.533 C 59.533 62.378 59.716 62.209 59.881 62.032 C 60.094 61.806 60.286 61.568 60.463 61.323 C 60.679 61.026 60.882 60.72 61.06 60.406 C 61.258 60.056 61.443 59.699 61.592 59.333 C 61.9 58.571 62.193 57.802 62.427 57.02 C 62.742 55.965 63.09 54.908 63.229 53.825 L 64.029 47.564 C 65.853 48.255 67.72 48.883 69.504 49.64 C 71.246 50.38 72.914 51.235 74.606 52.051 C 74.805 52.148 74.989 52.259 75.167 52.379 C 75.417 52.548 75.659 52.727 75.888 52.918 C 76.009 53.018 76.115 53.132 76.21 53.247 C 76.302 53.361 76.388 53.482 76.451 53.608 C 76.511 53.731 76.551 53.864 76.582 53.995 C 76.596 54.06 76.591 54.128 76.586 54.195 C 76.589 54.266 76.582 54.336 76.558 54.399 L 76.558 54.399 Z " fill-rule="evenodd" fill="rgb(234,193,2)"/></g></g></svg>