<svg width="196" height="43" viewBox="0 0 196 43" fill="none" xmlns="http://www.w3.org/2000/svg">
<path fill-rule="evenodd" clip-rule="evenodd" d="M78.334 0.529233V19.4615H81.8957V10.1626C82.2212 10.6151 82.894 11.5086 83.9053 12.8402L88.9712 19.4615H93.2721L88.2451 12.9706C86.9883 11.3529 86.0297 10.0991 85.3685 9.2323L93.0636 0.529233H88.7374L88.1015 1.27934C86.4051 3.271 84.3456 5.75271 81.8957 8.71562V0.529233H78.334ZM94.3983 0.529233V19.4615H106.318V16.3314H97.8964V11.3789H105.489V8.26173H97.8964V3.69827H106.123V0.529233H94.3983ZM108.965 0.529233V19.4615H112.438V11.5215C112.438 10.2677 112.399 8.22282 112.321 5.4053C112.308 5.28858 112.308 5.14525 112.308 4.97803H112.36C112.527 5.35274 112.903 6.06327 113.462 7.11233C114.031 8.15866 114.574 9.14152 115.093 10.0343L120.638 19.4615H124.809V0.529233H121.324V7.40923C121.324 8.83096 121.363 11.0171 121.441 13.965L121.466 14.8578L121.416 14.883C121.324 14.7029 121.221 14.5083 121.105 14.3145C119.951 12.1938 119.109 10.654 118.566 9.71008L113.214 0.529233H108.965ZM127.234 10.0595C127.234 12 127.648 13.707 128.477 15.1936C129.307 16.6815 130.472 17.833 131.988 18.6466C133.504 19.4615 135.241 19.8622 137.209 19.8622C138.828 19.8622 140.331 19.656 141.73 19.2411C143.142 18.8152 144.283 18.2719 145.163 17.6118V8.67739H136.976V11.7795H141.717V15.6987C140.785 16.3184 139.347 16.732 137.39 16.732C133.464 16.732 130.926 14.1336 130.926 9.93122C130.887 6.2066 133.362 3.3099 136.976 3.36041C139.256 3.36041 140.954 4.31801 141.989 5.9213L145.111 4.15079C143.44 1.65338 140.694 0.153837 137.001 0.153837C131.263 0.0767097 127.156 4.31801 127.234 10.0595ZM149.232 17.3402C149.801 18.1299 150.605 18.7633 151.64 19.2158C152.677 19.6683 153.805 19.8874 155.023 19.8874C156.227 19.8874 157.353 19.6683 158.39 19.2158C159.427 18.7633 160.23 18.1299 160.8 17.3402C161.771 16.0352 162.121 14.4558 162.121 12.1802V0.529233H158.571V11.9352C158.571 13.4866 158.493 14.3145 158.092 15.0387C157.536 16.1123 156.46 16.7587 155.023 16.7587C153.572 16.7587 152.495 16.1123 151.939 15.0387C151.537 14.3145 151.459 13.4866 151.459 11.9352V0.529233H147.909V12.1802C147.909 14.4558 148.259 16.0352 149.232 17.3402ZM165.485 0.529233V19.4615H168.984V12.1802H171.005L175.46 19.4615H179.58L174.592 11.7277C175.915 11.4308 176.989 10.8096 177.831 9.86569C178.674 8.92174 179.101 7.66723 179.101 6.08988C179.101 4.16239 178.298 2.58573 176.847 1.61515C175.565 0.748329 174.049 0.529233 171.859 0.529233H165.485ZM171.691 9.12992H168.984V3.59315H171.691C174.191 3.59315 175.538 4.42244 175.538 6.34857C175.538 8.19757 174.255 9.12992 171.691 9.12992ZM182.703 17.3402C183.272 18.1299 184.076 18.7633 185.113 19.2158C186.147 19.6683 187.276 19.8874 188.493 19.8874C189.698 19.8874 190.826 19.6683 191.861 19.2158C192.897 18.7633 193.702 18.1299 194.271 17.3402C195.243 16.0352 195.592 14.4558 195.592 12.1802V0.529233H192.043V11.9352C192.043 13.4866 191.966 14.3145 191.563 15.0387C191.007 16.1123 189.931 16.7587 188.493 16.7587C187.042 16.7587 185.967 16.1123 185.41 15.0387C185.007 14.3145 184.93 13.4866 184.93 11.9352V0.529233H181.382V12.1802C181.382 14.4558 181.732 16.0352 182.703 17.3402Z" fill="black"/>
<path fill-rule="evenodd" clip-rule="evenodd" d="M84.5733 31.6094C85.6762 31.6094 86.5453 31.3896 87.2065 30.9487C87.8677 30.5092 88.1918 29.8225 88.1918 28.8772C88.1918 27.0774 86.9603 26.2488 84.4174 26.2488H81.9012V31.6094H84.5733ZM78.334 23.1282H84.016C85.2995 23.1282 86.2984 23.193 87.0116 23.3097C87.7254 23.4265 88.4126 23.6722 89.0608 24.0223C90.6827 24.9021 91.6947 26.7149 91.6947 28.8513C91.6947 29.8225 91.4868 30.7419 91.0848 31.5958C90.6827 32.438 90.0988 33.1247 89.3596 33.6291C88.6984 34.0693 87.9593 34.3669 87.1155 34.5102C86.2724 34.6522 85.2352 34.717 83.9894 34.717H81.9012V42.0844H78.334V23.1282Z" fill="black"/>
<path fill-rule="evenodd" clip-rule="evenodd" d="M99.7163 31.7388C102.284 31.7388 103.569 30.8064 103.569 28.9554C103.569 27.0258 102.22 26.1972 99.7163 26.1972H97.0052V31.7388H99.7163ZM93.5029 23.1285H99.8852C102.077 23.1285 103.595 23.3483 104.879 24.2165C106.332 25.1871 107.136 26.7672 107.136 28.696C107.136 30.2754 106.708 31.5313 105.865 32.4773C105.022 33.4226 103.945 34.0437 102.622 34.3413L107.616 42.084H103.491L99.0291 34.7952H97.0052V42.084H93.5029V23.1285Z" fill="black"/>
<path fill-rule="evenodd" clip-rule="evenodd" d="M118.191 25.8605C114.533 25.8087 112.238 28.7347 112.276 32.619C112.238 36.4522 114.559 39.4301 118.191 39.3789C121.758 39.4431 124.184 36.4522 124.145 32.619C124.184 28.7095 121.784 25.8087 118.191 25.8605ZM109.76 27.5566C110.564 26.0544 111.693 24.877 113.146 24.0347C114.611 23.1802 116.284 22.7529 118.164 22.7529C123.847 22.6751 127.946 26.9608 127.867 32.645C127.946 38.291 123.937 42.5377 118.191 42.4599C112.496 42.5377 108.476 38.291 108.553 32.645C108.553 30.7421 108.956 29.046 109.76 27.5566Z" fill="black"/>
<path fill-rule="evenodd" clip-rule="evenodd" d="M56.2843 16.0337C51.7175 17.1373 49.459 18.5284 46.43 21.264C45.9493 21.696 45.6607 21.4558 46.0457 20.8804C48.0648 17.8574 50.4683 15.9859 53.9766 14.5942C54.698 14.3062 54.6023 13.7308 54.458 13.2032C54.0252 11.5712 52.7274 9.79594 50.6125 7.58861C50.0833 7.01255 50.4683 6.77297 51.0932 7.30058C53.2559 9.12432 55.8036 11.619 56.9093 13.6345C57.5342 14.786 57.7264 15.6979 56.2843 16.0337ZM43.2095 37.6743C39.7968 31.7239 36.0956 30.2844 30.9038 28.4136C27.6354 27.2137 28.2604 24.5265 31.2881 22.4632C34.7493 20.1125 38.739 18.2888 41.9117 17.2336C42.9695 16.8978 43.2095 17.3776 42.3445 17.8096C39.5561 19.2484 35.9028 21.4558 33.5958 23.9511C32.5865 25.0548 32.538 25.9182 33.7401 26.4936C37.1534 28.0778 41.0946 30.524 43.7865 37.434C44.123 38.2974 43.5937 38.3459 43.2095 37.6743ZM5.81185 16.5135C5.23475 16.1299 5.42757 15.6979 6.05253 15.9859C7.83099 16.8015 11.0515 18.0485 13.1185 18.0485C23.405 18.0485 25.8084 6.53272 37.057 6.53272C41.9117 6.53272 46.0457 8.78852 49.7948 12.0511C50.324 12.4831 50.0833 12.8667 49.459 12.5309C46.19 10.6594 42.7773 9.22056 38.9797 9.22056C30.3753 9.22056 25.1356 20.2565 16.2426 20.2565C13.1664 20.2565 8.55167 18.3366 5.81185 16.5135ZM0.492188 42.0992H62.3554V0.537292H0.492188V42.0992Z" fill="black"/>
</svg>
