<svg width="216" height="24" viewBox="0 0 216 24" fill="none" xmlns="http://www.w3.org/2000/svg">
<path d="M18.3191 14.3149L14.415 17.5433H13.9645V2.57769L16.2169 0.800834V0.70073H2.4025V0.800834L5.40563 2.82795C4.90511 10.2357 4.15433 13.8644 2.72784 17.5433H2.22732L0.12513 14.3149H0V23.4995H0.150156L1.77685 19.9958C2.27737 18.9197 2.35245 18.7946 3.47862 18.7946H13.0886C14.365 18.7946 14.4901 18.9698 14.4901 20.146V23.4995H14.6402L18.4192 14.365L18.3191 14.3149ZM4.50469 17.5433C5.9562 13.7894 6.60688 10.1356 7.28259 1.8269H10.2857C10.6611 1.8269 10.9614 1.92701 10.9614 2.45255V17.5433H4.50469Z" fill="black"/>
<path d="M30.4581 11.7873C30.4581 8.7341 28.5811 6.00626 24.7271 6.00626C20.6979 6.00626 18.5707 9.05944 18.5707 12.7132C18.5707 16.3671 20.8981 19.17 24.7522 19.17C27.4299 19.17 29.4571 17.9687 30.3079 15.2158L30.2078 15.1908C28.9565 16.1668 27.7303 16.5923 25.9784 16.5923C23.4258 16.5923 20.9482 14.9906 20.4727 12.3879H30.408C30.4331 12.2377 30.4581 12.0375 30.4581 11.7873ZM20.3976 11.2367C20.4977 9.15954 21.8241 7.60792 23.8762 7.60792C26.1036 7.60792 27.8053 9.10949 28.8564 11.2367H20.3976Z" fill="black"/>
<path d="M36.434 7.28259H38.6363C39.2119 7.28259 39.4121 7.43274 39.4121 8.00834V17.243L37.4101 18.6945V18.7946H44.067V18.6945L42.0649 17.243V7.83316L44.067 6.38165V6.28154H32.8803V6.40667L34.9325 7.83316L34.482 12.8133C34.2067 15.7414 33.7312 16.7675 32.8303 16.7675C32.0795 16.7675 31.8793 15.8916 31.4789 13.5391H31.3037L30.7281 18.4192C31.1035 18.8947 31.7291 19.17 32.4549 19.17C34.5821 19.17 35.458 17.268 35.8584 13.1637L36.434 7.28259Z" fill="black"/>
<path d="M44.941 12.6131C44.941 16.4171 47.6187 19.17 51.0223 19.17C54.601 19.17 57.1036 16.4171 57.1036 12.7633C57.1036 8.55892 54.3758 6.00626 51.0473 6.00626C47.5186 6.00626 44.941 8.7341 44.941 12.6131ZM47.3685 10.3858C47.3685 8.33368 48.4947 7.33264 50.1213 7.33264C52.7241 7.33264 55.3518 10.586 55.3518 13.9395C55.3518 15.9917 54.2256 16.9927 52.5989 16.9927C49.821 16.9927 47.3685 13.8895 47.3685 10.3858Z" fill="black"/>
<path d="M66.3109 2.57769V16.0417L63.8083 18.7195V18.7946H70.315V18.7195L67.8124 16.0417V3.62878H67.9626L73.0679 14.0396H73.4683L78.5736 3.62878H78.7238V16.9176L76.4715 18.6945V18.7946H83.9793V18.6945L81.7269 16.9176V2.57769L83.9793 0.800834V0.70073H75.6956V0.800834L77.5726 2.57769L74.1691 9.66006L70.7655 2.57769L72.6174 0.800834V0.70073H64.0585V0.800834L66.3109 2.57769Z" fill="black"/>
<path d="M85.1195 12.6131C85.1195 16.4171 87.7973 19.17 91.2009 19.17C94.7796 19.17 97.2822 16.4171 97.2822 12.7633C97.2822 8.55892 94.5544 6.00626 91.2259 6.00626C87.6972 6.00626 85.1195 8.7341 85.1195 12.6131ZM87.5471 10.3858C87.5471 8.33368 88.6732 7.33264 90.2999 7.33264C92.9026 7.33264 95.5304 10.586 95.5304 13.9395C95.5304 15.9917 94.4042 16.9927 92.7775 16.9927C89.9996 16.9927 87.5471 13.8895 87.5471 10.3858Z" fill="black"/>
<path d="M112.939 15.7664L109.885 17.6934H109.11V7.83316L111.112 6.38165V6.28154H99.4995V6.40667L101.552 7.83316C101.326 13.1387 100.776 15.5162 99.6497 17.6934H99.4995L97.5225 15.7664L97.4224 15.8165V23.1741H97.5225L99.0991 19.4703C99.3494 18.8697 99.4245 18.7946 99.95 18.7946H109.034C109.61 18.7946 109.685 18.8697 109.685 19.6455V23.0991H109.785L113.039 15.8165L112.939 15.7664ZM103.203 7.28259H105.781C106.407 7.28259 106.457 7.50782 106.457 8.00834V17.6934H101.276C102.428 15.341 102.778 13.1887 103.203 7.28259Z" fill="black"/>
<path d="M121.887 7.85819L119.309 15.5662H119.284L116.381 7.83316L118.007 6.38165V6.28154H111.451V6.38165L113.253 7.85819L117.857 19.0949L117.482 20.0459C116.956 21.3973 116.181 21.8227 115.48 21.8227C114.479 21.8227 113.978 20.9718 113.253 19.17H113.152L112.577 23.4494C113.127 23.8248 113.828 24 114.629 24C116.281 24 117.807 23.2492 119.259 19.195L123.338 7.85819L125.14 6.38165V6.28154H120.26V6.38165L121.887 7.85819Z" fill="black"/>
<path d="M129.451 7.28259H131.653C132.229 7.28259 132.429 7.43274 132.429 8.00834V17.243L130.427 18.6945V18.7946H137.084V18.6945L135.082 17.243V7.83316L137.084 6.38165V6.28154H125.897V6.40667L127.949 7.83316L127.499 12.8133C127.224 15.7414 126.748 16.7675 125.847 16.7675C125.096 16.7675 124.896 15.8916 124.496 13.5391H124.321L123.745 18.4192C124.12 18.8947 124.746 19.17 125.472 19.17C127.599 19.17 128.475 17.268 128.875 13.1637L129.451 7.28259Z" fill="black"/>
<path d="M137.827 18.7946H144.258C147.587 18.7946 149.239 17.0428 149.239 14.2398C149.239 12.438 148.363 10.2857 145.61 10.2857C143.608 10.2857 142.582 11.8874 142.582 11.8874H142.482V7.83316L144.484 6.38165V6.28154H137.827V6.38165L139.829 7.83316V17.243L137.827 18.6945V18.7946ZM142.482 12.5381C142.482 12.5381 142.907 12.4129 143.708 12.4129C146.085 12.4129 147.312 13.6642 147.312 15.5412C147.312 17.1178 146.16 17.8936 144.634 17.8936C143.833 17.8936 143.057 17.6684 142.482 17.2179V12.5381Z" fill="black"/>
<path d="M157.38 19.17C160.609 19.17 162.461 16.6924 162.461 13.2638C162.461 8.88425 160.283 6.35662 157.255 6.35662C155.178 6.35662 153.802 7.53285 153.076 9.18457H152.951C152.45 3.92909 153.426 3.37852 156.354 3.37852H160.984L161.935 0H161.835L160.158 0.875913H158.607C153.626 0.875913 150.623 4.0292 150.623 10.0355C150.623 13.9896 152.55 19.17 157.38 19.17ZM153.151 10.0605C153.752 9.61001 154.653 9.20959 155.879 9.20959C158.657 9.20959 160.634 11.4119 160.634 14.5401C160.634 16.6423 159.583 17.7685 158.156 17.7685C155.178 17.7685 153.752 14.3399 153.151 10.0605Z" fill="black"/>
<path d="M171.016 18.7946H175.42V18.6945L173.418 17.243V9.73514C173.418 7.13243 172.367 6.00626 170.14 6.00626C169.289 6.00626 168.313 6.23149 167.612 6.68196L166.711 5.35558H166.611L165.285 10.0355L165.385 10.0855C167.412 8.00834 168.688 6.98227 169.539 6.98227C170.54 6.98227 170.766 7.683 170.766 9.61001V11.487C170.165 11.1116 169.239 10.8613 168.188 10.8613C165.435 10.8613 163.833 12.6382 163.833 15.1408C163.833 17.6184 165.36 19.17 167.712 19.17C169.139 19.17 170.29 18.4192 170.916 17.243H171.016V18.7946ZM170.766 16.5923C170.34 16.7174 169.714 16.7925 169.164 16.7925C166.912 16.7925 165.76 15.6913 165.76 14.1648C165.76 12.7383 166.636 11.8874 167.888 11.8874C169.114 11.8874 170.09 12.6131 170.766 13.9645V16.5923Z" fill="black"/>
<path d="M189.867 6.28154H183.461V6.38165L185.213 7.83316V11.562H180.583V7.83316L182.335 6.38165V6.28154H175.928V6.38165L177.93 7.83316V17.2179L175.928 18.6945V18.7946H182.335V18.6945L180.583 17.2179V12.7132H185.213V17.243L183.461 18.6945V18.7946H189.867V18.6945L187.865 17.243V7.83316L189.867 6.38165V6.28154Z" fill="black"/>
<path d="M201.903 17.243L197.824 11.8874L198.599 10.0355C199.125 8.78415 199.475 8.18353 200.301 8.18353C201.027 8.18353 201.477 8.70907 202.729 10.8863L202.829 10.8613L202.479 6.4317C201.978 6.13139 201.553 6.00626 200.902 6.00626C199.701 6.00626 198.725 6.60688 197.523 9.50991L196.722 11.4369H195.271V7.98332L196.773 6.38165V6.28154H190.616V6.38165L192.618 7.98332V17.243L190.616 18.6945V18.7946H196.823V18.6945L195.271 17.243V12.5381H195.421L198.925 17.243L197.849 18.6945V18.7946H203.48V18.6945L201.903 17.243Z" fill="black"/>
<path d="M211.121 18.7946H215.526V18.6945L213.524 17.243V9.73514C213.524 7.13243 212.472 6.00626 210.245 6.00626C209.394 6.00626 208.418 6.23149 207.718 6.68196L206.817 5.35558H206.716L205.39 10.0355L205.49 10.0855C207.517 8.00834 208.794 6.98227 209.645 6.98227C210.646 6.98227 210.871 7.683 210.871 9.61001V11.487C210.27 11.1116 209.344 10.8613 208.293 10.8613C205.54 10.8613 203.939 12.6382 203.939 15.1408C203.939 17.6184 205.465 19.17 207.818 19.17C209.244 19.17 210.395 18.4192 211.021 17.243H211.121V18.7946ZM210.871 16.5923C210.445 16.7174 209.82 16.7925 209.269 16.7925C207.017 16.7925 205.866 15.6913 205.866 14.1648C205.866 12.7383 206.742 11.8874 207.993 11.8874C209.219 11.8874 210.195 12.6131 210.871 13.9645V16.5923Z" fill="black"/>
</svg>
