<?xml version="1.0" encoding="UTF-8"?> <svg xmlns="http://www.w3.org/2000/svg" width="60" height="60" viewBox="0 0 60 60" fill="none"> <path d="M0 11.25C0 5.0368 5.0368 0 11.25 0H48.75C54.9632 0 60 5.0368 60 11.25V48.75C60 54.9632 54.9632 60 48.75 60H11.25C5.0368 60 0 54.9632 0 48.75V11.25Z" fill="#072DA0"></path> <path d="M15 15H21V21H27V27H33V33H27V39H21V45H15V33H21V27H15V15Z" fill="white"></path> <path d="M33 39V33H39V39H33Z" fill="white"></path> <path d="M39 39H45V45H39V39Z" fill="white"></path> <path d="M33 39H27V45H33V39Z" fill="white"></path> <path d="M39 33V27H33V21H27V15H39V21H45V33H39Z" fill="white"></path> </svg> 