<?xml version="1.0" encoding="UTF-8" standalone="no"?><!-- Generator: Gravit.io --><svg xmlns="http://www.w3.org/2000/svg" xmlns:xlink="http://www.w3.org/1999/xlink" style="isolation:isolate" viewBox="0 0 100 100" width="100pt" height="100pt"><clipPath id="_clipPath_5AAn2b4A2D6UgDbIFZfaTkk3zqAL39Qi"><rect x="0" y="0" width="100" height="100" transform="matrix(1,0,0,1,0,0)" fill="rgb(255,255,255)"/></clipPath><g clip-path="url(#_clipPath_5AAn2b4A2D6UgDbIFZfaTkk3zqAL39Qi)"><g><g><linearGradient id="_lgradient_1" x1="-0.00023369946249104934" y1="0.4998853473973863" x2="0.9997663005375089" y2="0.4998853473973863" gradientTransform="matrix(81.939,0,0,83.509,10,13.491)" gradientUnits="userSpaceOnUse"><stop offset="30%" stop-opacity="1" style="stop-color:rgb(231,74,33)"/><stop offset="70%" stop-opacity="1" style="stop-color:rgb(236,154,30)"/></linearGradient><path d=" M 66.567 45.872 L 66.337 46.465 C 70.167 48.151 78.765 54.834 78.765 68.295 C 78.765 80.972 68.079 93.745 51.286 93.745 C 30.394 93.745 23.194 81.527 23.194 70.306 C 23.194 55.925 33.247 46.351 33.247 33.253 C 33.134 23.713 26.446 15.516 17.123 13.491 L 16.779 14.084 C 20.096 17.303 21.957 21.736 21.93 26.359 C 21.93 40.51 10 50.563 10 66.802 C 10 81.757 20.455 97 50.73 97 C 77.711 97 91.939 83.787 91.939 69.732 C 91.92 57.668 83.284 47.461 66.567 45.872 L 66.567 45.872 Z " fill="url(#_lgradient_1)"/><path d=" M 51.094 76.74 L 58.754 4.376 L 42.86 4.376 L 50.52 76.74 L 51.094 76.74 Z " fill="rgb(4,96,169)"/></g></g></g></svg>