<?xml version="1.0" encoding="UTF-8" standalone="no"?><!-- Generator: Gravit.io --><svg xmlns="http://www.w3.org/2000/svg" xmlns:xlink="http://www.w3.org/1999/xlink" style="isolation:isolate" viewBox="0 0 100 100" width="100pt" height="100pt"><defs><clipPath id="_clipPath_ldGqvKdO23ne7l4dKtaGe62nxXn4HeJr"><rect width="100" height="100"/></clipPath></defs><g clip-path="url(#_clipPath_ldGqvKdO23ne7l4dKtaGe62nxXn4HeJr)"><clipPath id="_clipPath_7UeKWX08mt9Qj4yPqEFhN6RQRkE6bCvN"><rect x="0" y="0" width="100" height="100" transform="matrix(1,0,0,1,0,0)" fill="rgb(255,255,255)"/></clipPath><g clip-path="url(#_clipPath_7UeKWX08mt9Qj4yPqEFhN6RQRkE6bCvN)"><g><clipPath id="_clipPath_ZjiDcPbZLwM5xXeNNd6Tuo3MJJy1o4CJ"><path d=" M 21.75 13.116 L 21.75 8.5 L 78.25 8.5 L 78.25 65 L 21.75 65 L 21.75 13.116 Z " fill="rgb(255,255,255)"/></clipPath><g clip-path="url(#_clipPath_ZjiDcPbZLwM5xXeNNd6Tuo3MJJy1o4CJ)"><g><g><g><g><linearGradient id="_lgradient_4" x1="-0.0002336994624910771" y1="0.4998853473973863" x2="0.9997663005375088" y2="0.4998853473973863" gradientTransform="matrix(46.296,0,0,47.183,27.4,16.122)" gradientUnits="userSpaceOnUse"><stop offset="30%" stop-opacity="1" style="stop-color:rgb(231,74,33)"/><stop offset="70%" stop-opacity="1" style="stop-color:rgb(236,154,30)"/></linearGradient><path d=" M 59.36 34.418 L 59.23 34.753 C 61.394 35.705 66.252 39.481 66.252 47.087 C 66.252 54.249 60.215 61.466 50.727 61.466 C 38.923 61.466 34.855 54.563 34.855 48.223 C 34.855 40.098 40.535 34.688 40.535 27.288 C 40.471 21.898 36.692 17.267 31.424 16.122 L 31.23 16.457 C 33.104 18.276 34.156 20.781 34.14 23.393 C 34.14 31.388 27.4 37.068 27.4 46.243 C 27.4 54.693 33.307 63.305 50.412 63.305 C 65.657 63.305 73.696 55.84 73.696 47.899 C 73.685 41.082 68.805 35.315 59.36 34.418 L 59.36 34.418 Z " fill="url(#_lgradient_4)"/><path d=" M 50.618 51.858 L 54.946 10.972 L 45.966 10.972 L 50.294 51.858 L 50.618 51.858 Z " fill="rgb(4,96,169)"/></g></g></g></g></g><g><path d=" M 14.146 87.137 L 6.537 77.327 L 6.537 86.171 L 8.089 86.54 L 8.089 86.947 L 4.55 86.947 L 4.55 86.54 L 5.818 86.171 L 5.818 76.535 C 5.509 76.247 5.138 76.036 4.733 75.917 C 4.579 75.885 4.372 75.848 4.372 75.848 L 4.372 75.442 L 7.374 75.442 L 13.873 83.892 L 13.873 76.226 L 12.322 75.852 L 12.322 75.446 L 15.86 75.446 L 15.86 75.852 L 14.592 76.226 L 14.592 84.997 C 14.592 85.809 14.649 86.991 14.661 87.142 L 14.146 87.137 Z  M 30.053 80.89 C 30.053 84.952 27.21 87.308 24.102 87.308 C 20.995 87.308 18.139 84.919 18.139 81.206 C 18.139 77.494 20.982 75.081 24.074 75.081 C 25.646 75.029 27.172 75.619 28.3 76.716 C 29.428 77.812 30.061 79.321 30.053 80.894 L 30.053 80.89 Z  M 28.075 81.499 C 28.075 78.513 26.288 75.617 23.858 75.617 C 21.275 75.617 20.109 78.115 20.109 80.788 C 20.109 83.461 21.584 86.776 24.358 86.776 C 26.966 86.776 28.075 84.135 28.075 81.499 Z  M 32.511 76.218 L 31.292 75.844 L 31.292 75.438 L 35.96 75.438 L 35.96 75.844 L 34.498 76.218 L 37.719 85.001 L 40.94 76.218 L 39.478 75.844 L 39.478 75.438 L 42.931 75.438 L 42.931 75.844 L 41.712 76.218 L 37.678 87.166 L 36.647 87.166 L 32.511 76.218 Z  M 60.094 81.072 L 59.355 81.072 L 59.355 76.043 C 61.792 76.043 63.242 76.604 63.242 78.594 C 63.23 80.073 61.963 81.072 60.094 81.072 Z  M 80.978 86.54 L 82.603 86.171 L 82.603 76.222 L 80.978 75.848 L 80.978 75.442 L 86.044 75.442 L 86.044 75.848 L 84.419 76.222 L 84.419 86.171 L 86.044 86.54 L 86.044 86.947 L 80.978 86.947 L 80.978 86.54 Z  M 89.148 83.786 L 89.469 83.786 L 90.545 86.264 C 91.185 86.585 91.889 86.76 92.605 86.776 C 94.002 86.776 95.278 85.963 95.278 84.509 C 95.278 83.404 94.563 82.746 93.405 82.141 L 92.259 81.548 C 90.89 80.837 89.521 79.829 89.521 78.209 C 89.521 76.445 90.74 75.085 93.348 75.085 C 94.264 75.094 95.174 75.243 96.045 75.527 L 96.318 78.192 L 95.972 78.192 L 94.977 76.056 C 94.462 75.768 93.881 75.617 93.291 75.617 C 91.971 75.617 91.073 76.429 91.073 77.555 C 91.073 78.574 91.752 79.216 92.913 79.817 L 94.27 80.524 C 96.123 81.483 97 82.372 97 84.018 C 97 86.049 95.095 87.312 92.726 87.312 C 91.612 87.329 90.501 87.163 89.44 86.821 L 89.148 83.786 Z  M 42.188 86.54 L 43.492 86.171 L 47.517 75.434 L 48.862 75.089 L 53.018 86.167 L 54.322 86.54 L 54.322 86.947 L 49.39 86.947 L 49.39 86.54 L 51.06 86.167 L 49.882 82.982 L 45.454 82.982 L 44.284 86.167 L 45.953 86.536 L 45.953 86.942 L 42.188 86.942 L 42.188 86.54 Z  M 45.762 82.133 L 49.593 82.133 L 47.692 76.998 L 45.762 82.133 Z  M 62.418 81.32 C 62.824 81.219 65.103 80.638 65.103 78.477 C 65.103 76.742 63.775 75.397 60.5 75.397 C 58.469 75.397 56.438 75.442 56.182 75.45 L 56.182 75.856 L 57.519 76.23 L 57.519 86.167 L 56.182 86.54 L 56.182 86.947 L 60.911 86.947 L 60.911 86.54 L 59.359 86.167 L 59.359 81.674 L 60.695 81.674 L 64.112 86.955 L 67.138 86.955 L 67.138 86.548 L 65.607 86.142 L 62.418 81.32 Z  M 72.403 76.039 L 72.403 86.171 L 70.778 86.54 L 70.778 86.947 L 75.844 86.947 L 75.844 86.54 L 74.219 86.171 L 74.219 76.043 L 76.953 76.043 L 77.854 77.985 L 78.204 77.985 L 77.944 75.454 L 68.678 75.454 L 68.418 77.985 L 68.767 77.985 L 69.661 76.064 L 72.403 76.039 Z " fill="rgb(4,96,169)"/></g></g></g></g></svg>