<svg width="651" height="72" viewBox="0 0 651 72" fill="none" xmlns="http://www.w3.org/2000/svg">
<g clip-path="url(#clip0_5_51)">
<path d="M33.129 59.1991V16.7338H5.97581V59.3032H0V8.30322H39V59.3032H33.129V59.1991Z" fill="#1F1F1F"/>
<path d="M148.084 50.717C149.022 50.717 149.856 50.6136 150.586 50.4067C151.315 50.1998 152.045 49.5791 152.566 48.5446C153.191 47.5101 153.608 46.0618 154.025 44.0963C154.442 42.1308 154.65 39.3377 154.754 35.8205L155.797 8.30322H188V58.9929H182.06V16.6825H161.216L160.591 35.717C160.382 41.0963 159.965 45.3377 159.444 48.4412C158.819 51.5446 158.089 53.9239 157.047 55.5791C156.005 57.2343 154.754 58.2687 153.295 58.6825C151.836 59.0963 150.065 59.3032 148.189 59.3032H146V50.6136H148.084V50.717Z" fill="#1F1F1F"/>
<path d="M339.177 59.3032V37.5502H312.823V59.3032H307V8.30322H312.823V29.1195H339.177V8.30322H345V59.3032H339.177Z" fill="#1F1F1F"/>
<path d="M382 50.5016V73.3032H387.784V58.8588H424.114V73.2001L430 73.3032L429.899 50.5016H424.216V8.30322H391.641L391.336 16.6604C391.133 21.9223 390.93 26.462 390.626 30.1762C390.321 33.8905 390.118 37.0889 389.712 39.7715C389.408 42.3508 389.002 44.5175 388.596 46.2715C388.19 47.9223 387.784 49.3667 387.378 50.5016H382ZM418.533 16.7635V50.6048H393.163C393.975 48.0254 394.786 44.208 395.497 39.0493C396.207 33.9937 396.715 26.5651 397.121 16.7635H418.533Z" fill="#1F1F1F"/>
<path d="M467 8.30322V59.3032H472.855V39.5277H484.668C489.906 39.5277 493.912 38.1747 496.789 35.4685C499.665 32.7624 501 28.9114 501 23.9155C501 18.9195 499.562 15.1726 496.789 12.3624C493.912 9.65628 489.906 8.30322 484.668 8.30322H467ZM484.668 16.8379C491.653 16.8379 495.145 19.2318 495.145 24.0195C495.145 28.8073 491.653 31.2012 484.668 31.2012H472.855V16.8379H484.668Z" fill="#1F1F1F"/>
<path d="M567.196 15.1949C562.408 10.297 554.761 12.1416 549.911 16.8487C545.062 12.3324 537.538 10.615 532.813 15.3857C528.088 20.22 529.829 27.9167 534.243 32.8782C529.829 37.8397 528.088 45.6 532.813 50.3707C537.538 55.2049 545.124 53.4239 549.973 48.844C554.823 53.4875 562.47 55.2686 567.196 50.4343C571.921 45.6 570.18 37.7761 565.641 32.7509C570.18 27.853 571.921 20.0291 567.196 15.1949Z" fill="#1F1F1F"/>
<path d="M651 8.30322H640.08L625.104 39.5277H624.896L610.024 8.30322H599V59.3032H607.528V22.8747L607.424 17.1502H607.736L623.336 49.8318H629.056L644.656 17.1502H644.968L644.864 22.8747V59.3032H650.792V8.30322H651Z" fill="#1F1F1F"/>
<path d="M247.446 45.5169H276.479C276.989 45.5169 277.181 44.8889 276.798 44.575L258.038 31.8275C257.911 31.7019 257.847 31.5763 257.847 31.388V2.81611C257.847 2.31375 257.209 2.12536 256.89 2.50213L243.937 20.9011C243.809 21.0267 243.681 21.0895 243.49 21.0895H214.521C214.011 21.0895 213.819 21.7175 214.202 22.0315L232.898 34.7789C233.026 34.9045 233.089 35.0301 233.089 35.2185V63.7903C233.089 64.2927 233.727 64.4811 234.046 64.1043L246.999 45.7053C247.127 45.5797 247.255 45.5169 247.446 45.5169Z" fill="#1F1F1F"/>
<path fill-rule="evenodd" clip-rule="evenodd" d="M125.602 31.9073L103.268 39.9747C103.142 40.0377 103.079 40.1638 103.016 40.2898L94.94 62.6013C94.7507 63.0425 94.1829 63.0425 93.9936 62.6013L85.9179 40.2268C85.9179 40.1007 85.7917 40.0377 85.6656 39.9747L63.3312 31.9073C62.8896 31.7182 62.8896 31.151 63.3312 30.9619L85.6656 22.8945C85.7917 22.8945 85.8548 22.7684 85.9179 22.6423L93.9936 0.33089C94.1829 -0.110297 94.7507 -0.110297 94.94 0.33089L103.016 22.6423C103.016 22.7684 103.142 22.8314 103.268 22.8945L125.602 30.9619C126.044 31.151 126.044 31.7182 125.602 31.9073ZM94.435 36.4442C99.3561 36.4442 103.331 31.4651 103.331 31.4651C103.331 31.4651 99.3561 26.486 94.435 26.486C89.5138 26.486 85.5391 31.4651 85.5391 31.4651C85.5391 31.4651 89.5138 36.4442 94.435 36.4442Z" fill="#1F1F1F"/>
</g>
<defs>
<clipPath id="clip0_5_51">
<rect width="651" height="72" fill="white"/>
</clipPath>
</defs>
</svg>
