<svg width="85" height="85" viewBox="0 0 85 85" fill="none" xmlns="http://www.w3.org/2000/svg">
<path fill-rule="evenodd" clip-rule="evenodd" d="M84.2937 59.1921C84.4412 59.1921 84.585 59.1459 84.7049 59.06C84.8249 58.9741 84.9149 58.8527 84.9624 58.713C85.0099 58.5733 85.0125 58.4223 84.9698 58.281C84.9271 58.1398 84.8412 58.0155 84.7243 57.9255L84.2939 57.628L59.4293 40.4436C59.3408 40.3777 59.269 40.2918 59.2197 40.1931C59.1703 40.0943 59.1448 39.9854 59.1451 39.875V0.698049C59.1434 0.55122 59.0959 0.408586 59.0094 0.28998C58.9228 0.171374 58.8015 0.0826913 58.6623 0.0362567C58.523 -0.0101779 58.3728 -0.0120561 58.2324 0.0308862C58.092 0.0738285 57.9685 0.159459 57.8791 0.275867L40.4818 25.5466C40.414 25.6326 40.3277 25.702 40.2292 25.7498C40.1308 25.7975 40.0228 25.8223 39.9134 25.8223H0.709145C0.560179 25.8217 0.414832 25.8682 0.293892 25.9552C0.172951 26.0422 0.0826106 26.1653 0.0357896 26.3067C-0.0110314 26.4482 -0.0119349 26.6009 0.0332083 26.7429C0.0783516 26.8849 0.167229 27.009 0.287132 27.0975L25.5477 44.5793C25.6313 44.6408 25.7007 44.7195 25.7513 44.8102C25.8018 44.9009 25.8322 45.0014 25.8405 45.1049V84.2818C25.838 84.4316 25.8832 84.5783 25.9695 84.7007C26.0558 84.8231 26.1787 84.9149 26.3206 84.9628C26.4624 85.0108 26.6158 85.0124 26.7587 84.9674C26.9015 84.9224 27.0263 84.8332 27.1151 84.7126L44.59 59.4419C44.6563 59.3627 44.7393 59.2992 44.8332 59.256C44.927 59.2127 45.0293 59.1909 45.1325 59.1921H84.2937Z" fill="#FAFAFA"/>
<path fill-rule="evenodd" clip-rule="evenodd" d="M84.2937 59.1921C84.4412 59.1921 84.585 59.1459 84.7049 59.06C84.8249 58.9741 84.9149 58.8527 84.9624 58.713C85.0099 58.5733 85.0125 58.4223 84.9698 58.281C84.9271 58.1398 84.8412 58.0155 84.7243 57.9255L84.2939 57.628L59.4293 40.4436C59.3408 40.3777 59.269 40.2918 59.2197 40.1931C59.1703 40.0943 59.1448 39.9854 59.1451 39.875V0.698049C59.1434 0.55122 59.0959 0.408586 59.0094 0.28998C58.9228 0.171374 58.8015 0.0826913 58.6623 0.0362567C58.523 -0.0101779 58.3728 -0.0120561 58.2324 0.0308862C58.092 0.0738285 57.9685 0.159459 57.8791 0.275867L40.4818 25.5466C40.414 25.6326 40.3277 25.702 40.2292 25.7498C40.1308 25.7975 40.0228 25.8223 39.9134 25.8223H0.709145C0.560179 25.8217 0.414832 25.8682 0.293892 25.9552C0.172951 26.0422 0.0826106 26.1653 0.0357896 26.3067C-0.0110314 26.4482 -0.0119349 26.6009 0.0332083 26.7429C0.0783516 26.8849 0.167229 27.009 0.287132 27.0975L25.5477 44.5793C25.6313 44.6408 25.7007 44.7195 25.7513 44.8102C25.8018 44.9009 25.8322 45.0014 25.8405 45.1049V84.2818C25.838 84.4316 25.8832 84.5783 25.9695 84.7007C26.0558 84.8231 26.1787 84.9149 26.3206 84.9628C26.4624 85.0108 26.6158 85.0124 26.7587 84.9674C26.9015 84.9224 27.0263 84.8332 27.1151 84.7126L44.59 59.4419C44.6563 59.3627 44.7393 59.2992 44.8332 59.256C44.927 59.2127 45.0293 59.1909 45.1325 59.1921H84.2937ZM80.1453 57.1921L58.2627 42.0685L58.2339 42.0471C57.8948 41.7942 57.6197 41.4654 57.4307 41.0872C57.2426 40.7108 57.1448 40.2958 57.1451 39.875M80.1453 57.1921H45.1398C44.7453 57.1899 44.3551 57.2742 43.9966 57.4393C43.6337 57.6064 43.3125 57.852 43.0561 58.1584L42.9972 58.2288L27.8405 80.1473V45.0251L27.8341 44.9455C27.803 44.5562 27.6885 44.1781 27.4984 43.8368C27.3083 43.4955 27.0469 43.1991 26.7321 42.9678L26.7092 42.9509L4.84896 27.8223H39.9126C39.9124 27.8223 39.9129 27.8223 39.9126 27.8223C40.3244 27.8223 40.7315 27.729 41.1021 27.5493C41.4727 27.3695 41.7978 27.108 42.0527 26.7844L42.0926 26.7338L57.1451 4.869V39.875" fill="#1F1F1F"/>
</svg>
