<svg width="80" height="96" viewBox="0 0 80 96" fill="none" xmlns="http://www.w3.org/2000/svg">
<path d="M6.92255 84.414C6.58271 84.1817 6.20358 84.0128 5.80352 83.9157C5.46062 83.8582 5.11372 83.8279 4.76605 83.8251H0.39415C0.289615 83.8251 0.189361 83.8666 0.115444 83.9405C0.0415264 84.0144 0 84.1147 0 84.2192L0 94.8205C0 94.8723 0.010195 94.9235 0.0300029 94.9713C0.0498108 95.0192 0.0788437 95.0626 0.115444 95.0992C0.152044 95.1358 0.195495 95.1648 0.243315 95.1847C0.291136 95.2045 0.34239 95.2147 0.39415 95.2147H1.01482C1.11936 95.2147 1.21961 95.1731 1.29353 95.0992C1.36745 95.0253 1.40897 94.925 1.40897 94.8205V90.4939H4.53046C7.47526 90.4667 8.12312 88.6817 8.15483 87.1821C8.17489 86.5927 8.06347 86.0061 7.82864 85.4651C7.62739 85.0391 7.31421 84.6758 6.92255 84.414V84.414ZM5.66308 88.9445C5.34083 89.0862 4.99106 89.1543 4.63919 89.1438H1.40897V85.1751H4.72074C5.09344 85.1607 5.46472 85.2288 5.80805 85.3745C6.04055 85.493 6.23869 85.6693 6.38342 85.8864C6.51008 86.0796 6.60777 86.2902 6.67337 86.5116C6.71223 86.7285 6.73344 86.9482 6.7368 87.1685C6.73669 87.4073 6.70469 87.645 6.64166 87.8753C6.56594 88.1068 6.44246 88.3198 6.27922 88.5005C6.11319 88.6955 5.90154 88.8465 5.66308 88.94V88.9445Z" fill="#231F20"/>
<path d="M17.6235 93.86H11.6704V89.9865H17.1795C17.284 89.9865 17.3843 89.945 17.4582 89.8711C17.5321 89.7971 17.5736 89.6969 17.5736 89.5923V89.026C17.5736 88.9743 17.5634 88.923 17.5436 88.8752C17.5238 88.8274 17.4948 88.7839 17.4582 88.7473C17.4216 88.7107 17.3781 88.6817 17.3303 88.6619C17.2825 88.6421 17.2312 88.6319 17.1795 88.6319H11.6704V85.1751H17.56C17.6646 85.1751 17.7648 85.1336 17.8387 85.0597C17.9127 84.9858 17.9542 84.8855 17.9542 84.781V84.2192C17.9542 84.1147 17.9127 84.0144 17.8387 83.9405C17.7648 83.8666 17.6646 83.8251 17.56 83.8251H10.6556C10.5511 83.8251 10.4508 83.8666 10.3769 83.9405C10.303 84.0144 10.2615 84.1147 10.2615 84.2192V94.8205C10.2615 94.925 10.303 95.0253 10.3769 95.0992C10.4508 95.1731 10.5511 95.2147 10.6556 95.2147H17.6235C17.728 95.2147 17.8282 95.1731 17.9022 95.0992C17.9761 95.0253 18.0176 94.925 18.0176 94.8205V94.2361C18.0129 94.1347 17.9694 94.0391 17.8959 93.969C17.8225 93.899 17.7249 93.8599 17.6235 93.86Z" fill="#231F20"/>
<path d="M26.9833 84.414C26.6451 84.1817 26.2675 84.0129 25.8688 83.9157C25.5244 83.858 25.176 83.8277 24.8268 83.8251H20.4549C20.3504 83.8251 20.2502 83.8666 20.1762 83.9405C20.1023 84.0144 20.0608 84.1147 20.0608 84.2192V94.8205C20.0608 94.925 20.1023 95.0253 20.1762 95.0992C20.2502 95.1731 20.3504 95.2147 20.4549 95.2147H21.0801C21.1847 95.2147 21.2849 95.1731 21.3589 95.0992C21.4328 95.0253 21.4743 94.925 21.4743 94.8205V90.4939H24.5958C27.5361 90.4667 28.1839 88.6817 28.2202 87.1821C28.2402 86.5927 28.1288 86.0061 27.894 85.4651C27.6896 85.0398 27.3752 84.6769 26.9833 84.414V84.414ZM25.7239 88.9445C25.4018 89.0866 25.0519 89.1547 24.7 89.1438H21.4743V85.1751H24.7861C25.1587 85.1612 25.5299 85.2292 25.8734 85.3745C26.1059 85.493 26.304 85.6693 26.4487 85.8864C26.5766 86.0859 26.6715 86.3046 26.7296 86.5343C26.772 86.7508 26.7947 86.9706 26.7976 87.1912C26.7959 87.4302 26.7624 87.6679 26.6979 87.898C26.6257 88.13 26.5036 88.3434 26.34 88.5232C26.1709 88.7094 25.9596 88.8523 25.7239 88.94V88.9445Z" fill="#231F20"/>
<path d="M37.476 83.8158H29.6156C29.5111 83.8158 29.4108 83.8573 29.3369 83.9312C29.263 84.0051 29.2215 84.1054 29.2215 84.2099V84.7717C29.2215 84.8762 29.263 84.9765 29.3369 85.0504C29.4108 85.1243 29.5111 85.1658 29.6156 85.1658H32.8323V94.8112C32.8323 94.9157 32.8738 95.016 32.9477 95.0899C33.0216 95.1638 33.1219 95.2054 33.2264 95.2054H33.8471C33.9516 95.2054 34.0519 95.1638 34.1258 95.0899C34.1997 95.016 34.2412 94.9157 34.2412 94.8112V85.1749H37.476C37.5805 85.1749 37.6808 85.1334 37.7547 85.0595C37.8286 84.9855 37.8701 84.8853 37.8701 84.7808V84.219C37.8714 84.1665 37.862 84.1142 37.8428 84.0654C37.8235 84.0165 37.7947 83.972 37.758 83.9344C37.7212 83.8968 37.6774 83.867 37.629 83.8466C37.5805 83.8262 37.5285 83.8158 37.476 83.8158V83.8158Z" fill="#231F20"/>
<path d="M40.5296 83.8251H39.9089C39.6913 83.8251 39.5148 84.0015 39.5148 84.2192V94.8205C39.5148 95.0382 39.6913 95.2147 39.9089 95.2147H40.5296C40.7473 95.2147 40.9238 95.0382 40.9238 94.8205V84.2192C40.9238 84.0015 40.7473 83.8251 40.5296 83.8251Z" fill="#231F20"/>
<path d="M47.2798 83.8158H43.9182C43.8137 83.8158 43.7134 83.8573 43.6395 83.9312C43.5656 84.0051 43.5241 84.1054 43.5241 84.2099V94.8112C43.5241 94.9157 43.5656 95.016 43.6395 95.0899C43.7134 95.1638 43.8137 95.2054 43.9182 95.2054H47.2572C49.0241 95.2054 50.3515 94.6209 51.1987 93.5064C52.0455 92.3471 52.4765 90.9361 52.4219 89.5015C52.4701 88.1274 52.1056 86.7703 51.3754 85.6053C50.6007 84.4591 49.2279 83.8565 47.2798 83.8158ZM49.835 92.9401C49.1527 93.5286 48.2805 93.8504 47.3795 93.8462H44.9376V85.1749H47.2028C47.622 85.1796 48.0401 85.2175 48.4532 85.2882C48.9394 85.3816 49.3939 85.5969 49.7742 85.9139C50.1545 86.2308 50.4482 86.639 50.6279 87.1004C50.9185 87.8713 51.0554 88.6916 51.0311 89.5151C50.9812 91.1642 50.5916 92.324 49.835 92.9401Z" fill="#231F20"/>
<path d="M56.753 92.9041H56.0281C55.8105 92.9041 55.634 93.0806 55.634 93.2983V94.8205C55.634 95.0382 55.8105 95.2147 56.0281 95.2147H56.753C56.9707 95.2147 57.1472 95.0382 57.1472 94.8205V93.2983C57.1472 93.0806 56.9707 92.9041 56.753 92.9041Z" fill="#231F20"/>
<path d="M68.7226 93.579C68.7226 93.067 68.6864 92.5143 68.6456 91.957C68.6353 91.3488 68.4548 90.7555 68.1246 90.2445C67.9464 89.9963 67.7199 89.7868 67.4586 89.6284C67.9117 89.3487 68.281 88.9519 68.5274 88.4799C68.7738 88.0078 68.8882 87.478 68.8586 86.9464C68.8586 85.8047 68.4735 84.9756 67.7486 84.4818C67.0049 84.0244 66.143 83.7959 65.2704 83.8249H60.9212C60.8166 83.8249 60.7164 83.8664 60.6425 83.9403C60.5686 84.0142 60.527 84.1145 60.527 84.219V94.8203C60.527 94.9248 60.5686 95.0251 60.6425 95.099C60.7164 95.1729 60.8166 95.2144 60.9212 95.2144H61.5464C61.6509 95.2144 61.7512 95.1729 61.8251 95.099C61.899 95.0251 61.9405 94.9248 61.9405 94.8203V90.3895H65.207C65.5506 90.3802 65.8939 90.4199 66.2263 90.5073C66.4384 90.567 66.6327 90.6774 66.7927 90.829C66.9265 90.9447 67.0333 91.0886 67.1053 91.2503C67.1807 91.4523 67.225 91.6647 67.2366 91.88C67.2776 92.4 67.2912 92.9217 67.2774 93.443C67.2758 93.7073 67.2985 93.9712 67.3454 94.2313C67.3454 94.3627 67.3907 94.485 67.4179 94.5847C67.445 94.6844 67.4904 94.8475 67.5311 94.9607C67.5598 95.0359 67.6107 95.1004 67.6771 95.1458C67.7435 95.1911 67.8222 95.2151 67.9026 95.2144H68.6003C68.6708 95.2148 68.74 95.196 68.8006 95.1601C68.8613 95.1242 68.911 95.0725 68.9446 95.0106C68.9815 94.9506 69.001 94.8816 69.001 94.8112C69.001 94.7409 68.9815 94.6719 68.9446 94.6119C68.7803 94.2934 68.7037 93.9369 68.7226 93.579ZM67.445 86.9871C67.4713 87.2714 67.4323 87.558 67.331 87.8249C67.2297 88.0918 67.0688 88.3321 66.8606 88.5275C66.3869 88.8837 65.8036 89.0632 65.2115 89.0349H61.9405V85.1749H65.2115C65.7828 85.1573 66.3471 85.3035 66.838 85.5963C67.049 85.7575 67.2154 85.9697 67.3216 86.2131C67.4279 86.4564 67.4703 86.7228 67.445 86.9871V86.9871Z" fill="#231F20"/>
<path d="M79.6092 83.8158H78.984C78.8795 83.8158 78.7792 83.8573 78.7053 83.9312C78.6314 84.0051 78.5899 84.1054 78.5899 84.2099V90.5526C78.6503 91.4746 78.4274 92.393 77.9511 93.1848C77.498 93.7782 76.7233 94.0908 75.6179 94.0908C75.0802 94.1118 74.5477 93.9798 74.082 93.7103C73.7248 93.4923 73.4359 93.1784 73.2484 92.8042C73.0675 92.4299 72.9409 92.0318 72.8724 91.6217C72.8144 91.2621 72.7826 90.8987 72.7773 90.5344V84.1918C72.7773 84.0873 72.7357 83.987 72.6618 83.9131C72.5879 83.8392 72.4877 83.7976 72.3831 83.7976H71.7624C71.6579 83.7976 71.5577 83.8392 71.4837 83.9131C71.4098 83.987 71.3683 84.0873 71.3683 84.1918V90.5344C71.3635 90.9895 71.3969 91.4441 71.468 91.8936C71.5488 92.4531 71.7185 92.996 71.9708 93.5019C72.2743 94.0665 72.7273 94.5367 73.2802 94.861C73.9905 95.2579 74.7955 95.4537 75.6088 95.4273C77.2488 95.4047 78.4177 94.9063 79.0882 93.9368C79.731 92.9203 80.0472 91.7314 79.9943 90.5299V84.1873C79.9886 84.0882 79.9458 83.995 79.8745 83.9261C79.8031 83.8573 79.7084 83.8179 79.6092 83.8158V83.8158Z" fill="#231F20"/>
<path d="M57.3309 71.1939C53.9194 68.1222 47.4454 62.9303 40.5953 60.8101L40.4051 60.7512C32.1687 58.1915 23.8145 54.9884 23.8145 50.6392C23.8145 46.2899 32.1324 43.1005 40.3507 40.5408L40.5953 40.4683C49.8647 37.596 59.7501 33.9535 59.7501 27.0717C59.7501 20.1899 49.8647 16.552 40.5953 13.6796L40.4911 13.6479C34.7737 11.8357 29.165 7.51369 26.0571 4.83618C24.9273 5.30563 23.822 5.83184 22.7453 6.41278C26.202 9.5388 32.7123 14.7624 39.5941 16.9008L39.7844 16.9597C48.0208 19.5194 56.3795 22.7225 56.3795 27.0717C56.3795 31.4209 48.0842 34.6104 39.8387 37.152L39.5941 37.2245C30.3293 40.1149 20.4484 43.7574 20.4484 50.6392C20.4484 57.5209 30.3293 61.1634 39.5941 64.0312L39.6983 64.0629C45.3568 65.8479 50.9384 70.1338 54.001 72.7614C55.1381 72.2903 56.239 71.7693 57.3309 71.1939Z" fill="url(#paint0_linear_1_5)"/>
<path d="M29.3688 69.1325C28.8523 69.5131 28.3585 69.8891 27.8873 70.2561H50.893C50.3992 69.8846 49.8827 69.5085 49.3482 69.1325H29.3688Z" fill="#104FEC"/>
<path d="M53.72 55.6411H27.7559C28.3811 56.0262 29.0652 56.4022 29.7992 56.7646H51.9078C52.5304 56.4209 53.1353 56.0459 53.72 55.6411V55.6411Z" fill="#104FEC"/>
<path d="M52.2658 7.28723H29.0562C29.5455 7.65873 30.0575 8.03476 30.5875 8.41079H50.8025C51.3053 8.03023 51.7992 7.6542 52.2658 7.28723Z" fill="#104FEC"/>
<path d="M26.4014 32.0234C26.9858 32.4301 27.5907 32.8066 28.2136 33.1515H50.5035C51.2284 32.7845 51.908 32.413 52.5241 32.0234H26.4014Z" fill="#104FEC"/>
<path d="M56.3071 26.4015H23.0716C23.0466 26.5923 23.033 26.7844 23.0308 26.9768C23.0309 27.1618 23.0445 27.3466 23.0716 27.5295H56.3433C56.3664 27.3796 56.3785 27.2282 56.3796 27.0765C56.3784 26.8496 56.3541 26.6234 56.3071 26.4015V26.4015Z" fill="#104FEC"/>
<path d="M26.4287 21.9071H52.1617C51.5138 21.5174 50.8026 21.1459 50.055 20.7835H28.2318C27.6105 21.1245 27.0086 21.4996 26.4287 21.9071V21.9071Z" fill="#104FEC"/>
<path d="M57.1452 50.5397C57.1446 50.3654 57.1325 50.1914 57.109 50.0187H23.878C23.8094 50.3901 23.8094 50.7709 23.878 51.1423H57.1362C57.1551 50.942 57.1581 50.7405 57.1452 50.5397V50.5397Z" fill="#104FEC"/>
<path d="M52.0438 44.4008H30.0394C29.2918 44.7632 28.5896 45.1392 27.9508 45.5243H53.8334C53.2571 45.1184 52.6598 44.7434 52.0438 44.4008Z" fill="#104FEC"/>
<path d="M56.6332 5.99165C56.0488 5.69717 55.4598 5.41628 54.8572 5.14899C51.9985 7.64074 46.7024 11.7771 41.1843 13.8611C42.0632 14.1374 42.9467 14.4183 43.8256 14.7128C49.0673 12.3117 53.7926 8.52871 56.6332 5.99165Z" fill="url(#paint1_linear_1_5)"/>
<path d="M36.0241 38.3934C36.9936 38.0672 37.9676 37.7546 38.9417 37.4465C30.5014 34.7554 23.0307 31.5932 23.0307 26.9766C23.0307 22.3601 30.3429 19.2748 38.6699 16.5883C37.7955 16.2802 36.9302 15.9268 36.0739 15.5372C28.3721 18.1467 21.2231 21.5084 21.2231 26.9766C21.2231 32.4449 28.3132 35.7929 36.0241 38.3934Z" fill="url(#paint2_linear_1_5)"/>
<path d="M23.5381 71.543C24.1225 71.8374 24.7115 72.1183 25.314 72.3856C28.132 69.9301 33.2831 65.8799 38.7287 63.7777C37.8589 63.5014 36.9845 63.2205 36.1146 62.9305C30.9635 65.3226 26.3379 69.0376 23.5381 71.543Z" fill="url(#paint3_linear_1_5)"/>
<path d="M44.4597 39.2182C43.4993 39.5444 42.5298 39.8615 41.5602 40.165C49.8963 42.8335 57.145 45.9776 57.145 50.5398C57.145 55.102 49.6562 58.3277 41.2069 61.0233C42.113 61.3223 42.9783 61.6711 43.8481 62.0608C51.7085 59.4422 58.9572 56.067 58.9572 50.5398C58.9572 45.1531 52.0528 41.8141 44.4597 39.2182Z" fill="url(#paint4_linear_1_5)"/>
<path d="M3.36843 38.774C3.37923 29.0363 7.25229 19.7005 14.1379 12.8149C21.0235 5.92936 30.3592 2.0563 40.0969 2.0455V0.00226541C34.9704 -0.0531534 29.8837 0.908717 25.1314 2.83221C20.3791 4.7557 16.0554 7.60262 12.4106 11.2082C8.76587 14.8138 5.87239 19.1064 3.89764 23.8377C1.92289 28.5689 0.90609 33.6449 0.90609 38.7717C0.90609 43.8985 1.92289 48.9745 3.89764 53.7057C5.87239 58.437 8.76587 62.7297 12.4106 66.3352C16.0554 69.9408 20.3791 72.7877 25.1314 74.7112C29.8837 76.6347 34.9704 77.5966 40.0969 77.5412V75.5024C30.3592 75.4917 21.0235 71.6186 14.1379 64.733C7.25229 57.8474 3.37923 48.5117 3.36843 38.774Z" fill="url(#paint5_linear_1_5)"/>
<path d="M40.097 77.5411V75.5024C49.838 75.5024 59.1801 71.6328 66.068 64.7449C72.9559 57.8569 76.8255 48.5149 76.8255 38.7739C76.8255 29.0329 72.9559 19.6909 66.068 12.803C59.1801 5.91503 49.838 2.04544 40.097 2.04544V0.00219727C50.3067 0.112566 60.0608 4.24579 67.2414 11.5045C74.4221 18.7632 78.4496 28.5613 78.4496 38.7716C78.4496 48.9819 74.4221 58.7801 67.2414 66.0388C60.0608 73.2975 50.3067 77.4307 40.097 77.5411V77.5411Z" fill="url(#paint6_linear_1_5)"/>
<defs>
<linearGradient id="paint0_linear_1_5" x1="36.7156" y1="206.186" x2="90.3681" y2="197.393" gradientUnits="userSpaceOnUse">
<stop stop-color="#DE17EB"/>
<stop offset="0.1875" stop-color="#C207F0"/>
<stop offset="0.755208" stop-color="#104FEC"/>
<stop offset="1" stop-color="#07B8E3"/>
</linearGradient>
<linearGradient id="paint1_linear_1_5" x1="47.5787" y1="33.4989" x2="70.6075" y2="23.4626" gradientUnits="userSpaceOnUse">
<stop stop-color="#07B8E3"/>
<stop offset="0.1875" stop-color="#07B8E3"/>
<stop offset="0.755208" stop-color="#104FEC"/>
<stop offset="1" stop-color="#07B8E3"/>
</linearGradient>
<linearGradient id="paint2_linear_1_5" x1="27.1828" y1="83.134" x2="48.3204" y2="78.903" gradientUnits="userSpaceOnUse">
<stop offset="0.118266" stop-color="#DE17EB"/>
<stop offset="0.385288" stop-color="#C207F0"/>
<stop offset="0.721449" stop-color="#104FEC"/>
<stop offset="0.966549" stop-color="#07B8E3"/>
</linearGradient>
<linearGradient id="paint3_linear_1_5" x1="29.8256" y1="90.9581" x2="47.4665" y2="82.93" gradientUnits="userSpaceOnUse">
<stop stop-color="#DE17EB"/>
<stop offset="0.114583" stop-color="#C207F0"/>
<stop offset="0.640625" stop-color="#104FEC"/>
<stop offset="0.895833" stop-color="#07B8E3"/>
</linearGradient>
<linearGradient id="paint4_linear_1_5" x1="71.5813" y1="55.7247" x2="41.2272" y2="39.415" gradientUnits="userSpaceOnUse">
<stop offset="0.0833306" stop-color="#07B8E3"/>
<stop offset="0.447917" stop-color="#104FEC"/>
<stop offset="1" stop-color="#07B8E3"/>
</linearGradient>
<linearGradient id="paint5_linear_1_5" x1="0.967367" y1="38.962" x2="78.1505" y2="38.962" gradientUnits="userSpaceOnUse">
<stop stop-color="#DE17EB"/>
<stop offset="0.484375" stop-color="#7C32EB"/>
<stop offset="1" stop-color="#104FEC"/>
</linearGradient>
<linearGradient id="paint6_linear_1_5" x1="39.9294" y1="38.962" x2="78.8642" y2="38.7739" gradientUnits="userSpaceOnUse">
<stop stop-color="#7C32EB"/>
<stop offset="0.49" stop-color="#104FEC"/>
<stop offset="1" stop-color="#07B8E3"/>
</linearGradient>
</defs>
</svg>
