<?xml version="1.0" encoding="UTF-8"?> <svg xmlns="http://www.w3.org/2000/svg" viewBox="0 0 453.8 78.5"> <defs> <style>.cls-1{fill:#00addc;}</style> </defs> <title>фармакей лого</title> <g id="Слой_2" data-name="Слой 2"> <g id="Layer_1" data-name="Layer 1"> <path class="cls-1" d="M0,33.3C0,19.5,8.4,12.5,22.5,12.5h12V4H51.2v8.5h12c14,0,22.5,7.1,22.5,20.8,0,13.5-8.4,20.8-22.5,20.8H51.3v9.7H34.6V54.1H22.5C8.4,54.1,0,46.8,0,33.3Zm34.4-6.4H24.6c-5,0-7.3,2-7.3,6.4,0,3.9,2.5,6.4,7.3,6.4h9.8Zm16.7,0V39.7h9.8c4.8,0,7.3-2.5,7.3-6.4,0-4.4-2.3-6.4-7.3-6.4Z"></path> <path class="cls-1" d="M106.1,63.8c-10.7,0-19-8.5-19-22.5s8.4-22.5,19.1-22.5c8.7,0,12.4,5.2,13,6.2V19.6h16.2V63H119.5V57.2C118.8,58.2,114.9,63.8,106.1,63.8Zm5.2-31.5c-4.8,0-8,3.9-8,8.9,0,5.2,3.2,9,8,9s8-3.9,8-9S116.2,32.3,111.3,32.3Z"></path> <path class="cls-1" d="M155.4,78.5H139.5V19.6h16.2v5.9c.4-.8,4.6-6.7,13.4-6.7,10.8,0,19.3,8.5,19.3,22.5S180,63.8,169.1,63.8c-9,0-13-5.6-13.6-6.6V78.5Zm8.4-28.2c5.1,0,8.2-3.8,8.2-9s-3.1-8.9-8.2-8.9-8.4,3.8-8.4,8.9S158.6,50.3,163.8,50.3Z"></path> <path class="cls-1" d="M191,19.6h22.6l9.3,21.8,9.2-21.8h22.2V63H238.6V34.5L227.3,63H217.1L205.6,34.5V63H190.9V19.6Z"></path> <path class="cls-1" d="M276.1,63.8c-10.7,0-19-8.5-19-22.5s8.4-22.5,19.1-22.5c8.7,0,12.4,5.2,13,6.2V19.6h16.2V63H289.5V57.2C288.8,58.2,284.9,63.8,276.1,63.8Zm5.2-31.5c-4.8,0-8,3.9-8,8.9,0,5.2,3.2,9,8,9s8-3.9,8-9S286.2,32.3,281.3,32.3Z"></path> <path class="cls-1" d="M310.1,19.6h16.2V36.5l15-16.9h19.6L342.4,40.2,362.1,63H341.5L326.3,44.8V63H310.1V19.6Z"></path> <path class="cls-1" d="M403.9,41.3v3.4H372.3a8.54,8.54,0,0,0,8.8,7.4c3.8,0,5.8-1.5,6.4-2.2h16c-.7,5.9-7.2,14.4-22.4,14.4-15.4,0-24.8-9.3-24.8-22.9,0-14,9.7-22.8,23.9-22.8C394.6,18.5,403.9,27.1,403.9,41.3Zm-31.5-5.8H388c-.8-3.6-3.8-5.8-7.8-5.8S373.2,31.9,372.4,35.5Z"></path> <path class="cls-1" d="M406.3,19.6h15.9V41.9l15.7-22.3h15.9V63H437.9V40.7L422.2,63H406.3ZM433.4,1.2V0h12.2V1.5c0,7.7-4.6,14.2-15.5,14.2S414.6,9.2,414.6,1.5V0h12.2V1.2c0,1.8.8,3.4,3.3,3.4A3.07,3.07,0,0,0,433.4,1.2Z"></path> </g> </g> </svg> 