<svg width="158" height="19" viewBox="0 0 158 19" fill="none" xmlns="http://www.w3.org/2000/svg"> <path fill-rule="evenodd" clip-rule="evenodd" d="M79.4627 3.85254C79.212 3.85254 78.9753 3.95151 78.8207 4.11605C78.6346 4.29235 78.5363 4.52181 78.5363 4.77927V14.6487C78.5363 14.9027 78.6327 15.1334 78.8017 15.2928C78.9779 15.479 79.2073 15.578 79.4646 15.578C79.7185 15.578 79.9497 15.4809 80.1091 15.3119C80.2955 15.1353 80.3942 14.9062 80.3942 14.6487V4.77927C80.3942 4.52817 80.2978 4.29713 80.1218 4.12814C79.9523 3.95279 79.7124 3.85254 79.4627 3.85254Z" fill="#BED8C0"></path> <path fill-rule="evenodd" clip-rule="evenodd" d="M76.671 1C76.0033 1 75.4597 1.54388 75.4597 2.21252C75.4597 2.88083 76.0033 3.42503 76.671 3.42503C77.3397 3.42503 77.8834 2.88115 77.8834 2.21252C77.8834 1.54388 77.3394 1 76.671 1Z" fill="#DFC35B"></path> <path fill-rule="evenodd" clip-rule="evenodd" d="M38.504 8.31327C38.157 8.62802 37.7482 8.78714 37.2583 8.79955L34.693 8.79923V5.68583H37.1979C37.7018 5.68583 38.1373 5.84559 38.4926 6.16065C38.8358 6.46521 39.0025 6.8191 39.0025 7.24237C39.0025 7.658 38.8393 8.00839 38.504 8.31327ZM39.7736 4.82115C39.063 4.16175 38.1964 3.82727 37.1979 3.82727H33.7641C33.5132 3.82727 33.2762 3.92656 33.1203 4.09364C32.9339 4.26963 32.8349 4.49909 32.8349 4.75655V10.6482H32.8585H33.3121L37.4279 10.6473C38.3653 10.5919 39.1753 10.2406 39.8354 9.60344C40.511 8.94531 40.853 8.15128 40.853 7.24237C40.853 6.29909 40.49 5.48438 39.774 4.82052L39.7736 4.82115Z" fill="#D75B5B"></path> <path fill-rule="evenodd" clip-rule="evenodd" d="M128.323 9.71661V9.6641C128.323 9.62559 128.323 9.58708 128.323 9.54762L128.313 9.23828L126.933 9.23892L126.472 9.26088L126.471 9.91265C126.427 10.9399 126.031 11.8317 125.294 12.5649C124.513 13.3468 123.557 13.7434 122.454 13.7434H121.977V15.5844L122.342 15.5975C122.378 15.6 122.416 15.6023 122.454 15.6023C122.492 15.6023 122.528 15.6 122.564 15.5975L122.621 15.5949C124.169 15.5555 125.511 14.9785 126.609 13.8805C127.707 12.7823 128.284 11.4367 128.323 9.88241C128.324 9.85059 128.324 9.81908 128.323 9.77039V9.71661H128.323Z" fill="#DFC35B"></path> <path fill-rule="evenodd" clip-rule="evenodd" d="M154.003 8.77706L154.657 7.20111L155.31 8.77706L155.948 10.3151H157.948L157.312 8.77706L155.506 4.41201C155.46 4.31303 155.398 4.1781 155.265 4.0648C155.093 3.91873 154.849 3.84298 154.592 3.85794C154.394 3.86781 154.248 3.94419 154.154 4.0002C154.131 4.0142 154.105 4.03202 154.094 4.04157C153.971 4.13322 153.875 4.2567 153.802 4.42346L151.997 8.77706L151.36 10.3151H153.366L154.003 8.77706Z" fill="#B196B9"></path> <path fill-rule="evenodd" clip-rule="evenodd" d="M53.5845 12.5601C52.8029 13.342 51.8469 13.7389 50.744 13.7389C49.6411 13.7389 48.6855 13.342 47.9036 12.5601C47.122 11.7779 46.7256 10.8218 46.7256 9.7188C46.7256 8.61481 47.1223 7.6588 47.9045 6.87591C48.6861 6.08953 49.6414 5.69076 50.744 5.69076C51.8469 5.69076 52.8025 6.08984 53.5854 6.87782C54.3715 7.66007 54.7701 8.61576 54.7701 9.7188C54.7701 10.8215 54.3715 11.7769 53.5854 12.5592L53.5845 12.5601ZM54.8992 5.56156C53.7578 4.41905 52.3594 3.83984 50.744 3.83984C49.1283 3.83984 47.7305 4.41905 46.5885 5.56156C45.4465 6.70406 44.8672 8.10307 44.8672 9.7188C44.8672 11.3345 45.4468 12.7332 46.5885 13.8757C47.7305 15.0182 49.1283 15.5974 50.744 15.5974C52.3594 15.5974 53.7575 15.0182 54.8992 13.8757C56.0416 12.7332 56.6206 11.3349 56.6206 9.7188C56.6206 8.10307 56.0416 6.70406 54.8992 5.56156Z" fill="currentColor"></path> <path fill-rule="evenodd" clip-rule="evenodd" d="M66.9735 5.67936C67.5047 5.67936 67.98 5.77993 68.3868 5.97915C68.8249 6.18887 69.0857 6.47529 69.1837 6.85401C69.2445 7.09842 69.394 7.29923 69.5995 7.41667C69.8174 7.55097 70.0703 7.58597 70.306 7.51819C70.55 7.45677 70.7431 7.31387 70.8825 7.08855C71.0046 6.87342 71.0358 6.63983 70.9747 6.3916C70.7444 5.51196 70.1877 4.83506 69.3211 4.38124C68.6315 4.0143 67.8416 3.82812 66.9735 3.82812C65.9561 3.82812 65.0705 4.16642 64.3411 4.83378C63.5989 5.50655 63.1994 6.34322 63.1535 7.32056C63.1173 8.13908 63.3937 8.86691 63.9749 9.48304C64.6767 10.2319 65.7121 10.6192 67.0527 10.636L67.1398 10.637C67.9269 10.6574 68.4966 10.8499 68.8344 11.2117C69.0641 11.4527 69.1691 11.7168 69.1554 12.0179C69.1316 12.4975 68.9372 12.894 68.5612 13.2307C68.1817 13.57 67.7185 13.7418 67.1847 13.7418C66.6515 13.7418 66.1766 13.6438 65.7745 13.4519C65.3349 13.2371 65.0727 12.9465 64.9728 12.5611C64.9105 12.3237 64.7661 12.1334 64.5358 11.9924C64.3178 11.8743 64.0805 11.8435 63.8531 11.903C63.6075 11.9644 63.4131 12.1095 63.2716 12.3412C63.1516 12.5605 63.1217 12.7925 63.1834 13.0302C63.4134 13.9095 63.9705 14.5883 64.8389 15.0485C65.528 15.4101 66.3169 15.5934 67.185 15.5934C68.202 15.5934 69.088 15.2551 69.8174 14.588C70.5596 13.9146 70.9566 13.0783 70.9973 12.1041C71.0386 11.2827 70.7648 10.5562 70.1836 9.94577C69.4859 9.20203 68.4578 8.81186 67.1281 8.78512L67.0937 8.77335L67.0498 8.78481C66.2466 8.76921 65.666 8.57635 65.3231 8.2091C65.094 7.96946 64.9894 7.70818 65.0034 7.40998C65.0269 6.92625 65.2213 6.52717 65.5976 6.19078C65.9775 5.85153 66.4403 5.67936 66.9735 5.67936Z" fill="currentColor"></path> <path fill-rule="evenodd" clip-rule="evenodd" d="M95.0247 3.8428L89.0635 3.82752C88.8259 3.82179 88.5794 3.91504 88.4006 4.09357C88.2148 4.26988 88.1162 4.49902 88.1162 4.75712V14.6711C88.1162 14.9251 88.2129 15.1564 88.3821 15.3159C88.558 15.5017 88.7874 15.6004 89.0448 15.6004C89.2986 15.6004 89.5296 15.5036 89.6889 15.3343C89.8754 15.158 89.974 14.9292 89.974 14.6711V10.6434H93.6307C93.8846 10.6434 94.1155 10.5466 94.2749 10.3773C94.4613 10.201 94.5599 9.97221 94.5599 9.71411C94.5599 9.46334 94.4604 9.22624 94.2937 9.06998C94.1174 8.88349 93.8881 8.78484 93.6307 8.78484H89.974V5.68767L95.0244 5.70167C95.2766 5.70167 95.5022 5.60938 95.6768 5.43466C95.8575 5.25485 95.9533 5.02603 95.9533 4.77239C95.9533 4.52448 95.8601 4.30043 95.6867 4.12763C95.5111 3.94113 95.2817 3.84311 95.0247 3.8428Z" fill="currentColor"></path> <path fill-rule="evenodd" clip-rule="evenodd" d="M108.409 13.7475H103.999V4.79273C103.999 4.53655 103.909 4.31664 103.731 4.13938C103.56 3.96657 103.326 3.87109 103.074 3.87109C102.826 3.87109 102.586 3.9688 102.416 4.13874C102.238 4.31664 102.148 4.53655 102.148 4.79273V14.6692C102.148 14.9203 102.24 15.1437 102.426 15.34C102.608 15.5116 102.827 15.5985 103.077 15.5985H108.409C108.666 15.5985 108.885 15.5087 109.063 15.3305C109.243 15.1507 109.338 14.9219 109.338 14.6692C109.338 14.4216 109.243 14.1953 109.063 14.0152C108.885 13.8373 108.665 13.7475 108.409 13.7475Z" fill="currentColor"></path> <path fill-rule="evenodd" clip-rule="evenodd" d="M135.898 5.70298H138.381C138.878 5.70298 139.309 5.86242 139.66 6.1778C139.998 6.47759 140.162 6.8267 140.162 7.24456C140.162 7.65478 140.001 7.99976 139.671 8.30018L139.669 8.30209C139.328 8.61429 138.923 8.77055 138.433 8.77883H135.897V5.70298H135.898ZM139.606 10.4334C140.195 10.2412 140.705 9.91146 141.125 9.45255C141.709 8.82179 142.005 8.07932 142.005 7.24456C142.005 6.30669 141.644 5.49675 140.932 4.83639C140.226 4.18812 139.368 3.85938 138.38 3.85938H134.968C134.723 3.85938 134.504 3.94848 134.315 4.12702C134.138 4.30492 134.047 4.52483 134.047 4.78102V14.6046C134.047 14.8513 134.139 15.0728 134.325 15.2685C134.689 15.6135 135.272 15.6093 135.622 15.259C135.805 15.0766 135.897 14.8561 135.897 14.6046V10.6304H137.639L139.832 15.0839C139.992 15.4133 140.294 15.602 140.661 15.602C140.806 15.602 140.944 15.5699 141.071 15.5062C141.295 15.3936 141.451 15.2166 141.534 14.9799C141.616 14.7418 141.601 14.4974 141.489 14.2746L139.606 10.4334Z" fill="currentColor"></path> <path fill-rule="evenodd" clip-rule="evenodd" d="M117.78 12.5641C116.998 11.7822 116.602 10.8261 116.602 9.72247C116.602 8.61943 116.998 7.6631 117.78 6.87989C118.563 6.09319 119.518 5.69474 120.62 5.69474C121.723 5.69474 122.679 6.09382 123.462 6.8818C124.122 7.5393 124.504 8.33205 124.606 9.23619H126.464C126.357 7.81808 125.793 6.58297 124.775 5.56522C123.634 4.42271 122.236 3.84351 120.62 3.84351C119.004 3.84351 117.606 4.42271 116.465 5.56522C115.322 6.70804 114.743 8.10641 114.743 9.72215C114.743 11.3379 115.322 12.7366 116.465 13.8794C117.562 14.977 118.904 15.5543 120.453 15.5941L120.769 15.6017V13.7496L120.471 13.7397C119.431 13.7066 118.526 13.311 117.78 12.5641Z" fill="currentColor"></path> <path fill-rule="evenodd" clip-rule="evenodd" d="M32.8346 10.6484H31V14.6657C31 14.9202 31.097 15.1516 31.2653 15.3095C31.4415 15.4963 31.6709 15.5946 31.9289 15.5946C32.1831 15.5946 32.414 15.4979 32.5728 15.3286C32.7592 15.1526 32.8578 14.9234 32.8578 14.6653V10.6484H32.8346Z" fill="currentColor"></path> <path fill-rule="evenodd" clip-rule="evenodd" d="M157.617 14.3124L155.963 10.3171H153.958L154.024 10.4763L154.397 11.3769L154.468 11.5491H150.866L150.937 11.3769L151.309 10.4763L151.375 10.3171H149.37L147.719 14.3067C147.617 14.5415 147.614 14.7968 147.712 15.017C147.805 15.2547 147.981 15.4348 148.2 15.5192L148.284 15.5571L148.57 15.5997C148.966 15.5997 149.278 15.3906 149.426 15.0272L150.165 13.2485H155.169L155.907 15.0234C156.056 15.3897 156.368 15.5997 156.763 15.5997C156.89 15.5997 157.017 15.5733 157.111 15.529C157.345 15.4371 157.529 15.2547 157.614 15.0348C157.717 14.8015 157.718 14.5454 157.617 14.3124Z" fill="currentColor"></path> <path d="M12.9457 9.40733C12.9457 11.3227 11.3826 12.8752 9.45421 12.8752C7.52558 12.8752 5.96224 11.3227 5.96224 9.40733C5.96224 7.49203 7.52558 5.93945 9.45421 5.93945C11.3826 5.93945 12.9457 7.4919 12.9457 9.40733Z" fill="#E87595"></path> <path d="M21.9983 9.44355L21.9993 9.3594C21.9993 9.29634 22 9.23494 21.9983 9.17102L21.9833 8.67444L19.7482 8.67529L19.0007 8.71084L18.9982 9.75879C18.9275 11.4104 18.2865 12.8456 17.0926 14.0247C15.8265 15.2819 14.2782 15.9199 12.4908 15.9199H11.7179L11.7186 18.8808L12.3096 18.9016C12.3694 18.906 12.4299 18.9093 12.4913 18.9093C12.5528 18.9093 12.6116 18.906 12.6697 18.9016L12.7617 18.8974C15.2702 18.8337 17.4441 17.9068 19.2228 16.1401C21.0008 14.3736 21.9352 12.2108 21.9992 9.71044C21.9999 9.6591 21.9999 9.6087 21.9992 9.52997L21.9983 9.44355Z" fill="#FBB36C"></path> <path d="M4.91817 14.0248C3.65211 12.7668 3.01005 11.2298 3.01005 9.45483C3.01005 7.68025 3.65283 6.14215 4.91987 4.88272C6.18615 3.61809 7.73373 2.97671 9.52037 2.97671C11.3068 2.97671 12.8553 3.61881 14.1232 4.88559C15.1937 5.94406 15.8122 7.21849 15.9765 8.67305H18.9857C18.8126 6.3923 17.8981 4.40517 16.2516 2.76882C14.4023 0.931874 12.1376 0 9.52037 0C6.90319 0 4.63813 0.931874 2.7888 2.76892C0.937914 4.60672 0 6.85608 0 9.45483C0 12.0532 0.937914 14.3028 2.78892 16.1407C4.56664 17.9063 6.74025 18.8342 9.25019 18.8979L9.76201 18.9104V15.9315L9.27924 15.9161C7.59455 15.8622 6.12724 15.225 4.91817 14.0248Z" fill="#00AAB2"></path> </svg>