<?xml version="1.0" encoding="UTF-8" standalone="no"?>
<svg width="132px" height="39px" viewBox="0 0 132 39" version="1.1" xmlns="http://www.w3.org/2000/svg" xmlns:xlink="http://www.w3.org/1999/xlink">
    <g id="Page-1" stroke="none" stroke-width="1" fill="none" fill-rule="evenodd">
        <g id="Hotline-01" transform="translate(-41.000000, -18.000000)" fill="#17AEB4">
            <g id="Group-7">
                <g id="Page-1" transform="translate(41.000000, 18.000000)">
                    <g id="Group-11" transform="translate(48.597015, 11.050000)">
                        <path d="M0,16.5348625 L0,0.3609125 C0.910208955,0.3609125 5.38737313,0.3150875 6.41447761,0.3150875 C11.0830746,0.3150875 12.4605373,2.8104375 12.4605373,5.3288625 C12.4605373,7.9629875 10.5695224,10.4118625 6.57767164,10.4118625 C5.92423881,10.4118625 2.9998806,10.4352625 1.98426866,10.4352625 L1.98426866,16.5348625 L0,16.5348625 Z M1.98426866,2.2095125 L1.98426866,8.5960875 C3.06686567,8.5960875 5.32695522,8.5635875 6.5080597,8.5635875 C8.91229851,8.5635875 10.3597015,7.3389875 10.3597015,5.3054625 C10.3597015,3.3879625 9.1920597,2.1633625 6.60098507,2.1633625 C5.94722388,2.1633625 2.75426866,2.1867625 1.98426866,2.2095125 L1.98426866,2.2095125 Z" id="Fill-7"></path>
                        <path d="M23.5789433,0.13013 C28.3184657,0.13013 31.913003,3.526705 31.913003,8.44818 C31.913003,13.253955 28.3184657,16.765905 23.5789433,16.765905 C18.8407343,16.765905 15.2452119,13.36933 15.2452119,8.44818 C15.2452119,3.757455 18.7235104,0.13013 23.5789433,0.13013 M23.5789433,14.91763 C27.3140179,14.91763 29.8124955,12.098905 29.8124955,8.44818 C29.8124955,4.681755 27.0805552,1.978405 23.5789433,1.978405 C20.0310328,1.978405 17.3467045,4.681755 17.3467045,8.44818 C17.3467045,12.12198 20.0773313,14.91763 23.5789433,14.91763" id="Fill-9"></path>
                    </g>
                    <polygon id="Fill-12" points="84.1342388 11.41101 86.1178507 11.41101 86.1178507 25.73636 94.8728657 25.73636 94.8728657 11.41101 96.8564776 11.41101 96.8564776 25.73636 99.074209 25.73636 99.074209 30.58861 97.2068358 30.58861 97.2068358 27.58496 84.1342388 27.58496"></polygon>
                    <polygon id="Fill-13" points="102.230782 27.5848625 102.230782 11.4109125 104.214394 11.4109125 104.214394 24.3498125 114.135737 11.4109125 115.8872 11.4109125 115.8872 27.5848625 113.902275 27.5848625 113.902275 14.6459625 103.980931 27.5848625"></polygon>
                    <polygon id="Fill-14" points="118.576913 11.41101 131.999869 11.41101 131.999869 13.259285 126.280197 13.259285 126.280197 27.58496 124.296585 27.58496 124.296585 13.259285 118.576913 13.259285"></polygon>
                    <g id="Group-21">
                        <path d="M19.7014925,1.95 C29.4786866,1.95 37.4328358,9.8228 37.4328358,19.5 C37.4328358,29.1772 29.4786866,37.05 19.7014925,37.05 C9.92429851,37.05 1.97014925,29.1772 1.97014925,19.5 C1.97014925,9.8228 9.92429851,1.95 19.7014925,1.95 M19.7014925,0 C8.82068657,0 0,8.730475 0,19.5 C0,30.269525 8.82068657,39 19.7014925,39 C30.5822985,39 39.4029851,30.269525 39.4029851,19.5 C39.4029851,8.730475 30.5822985,0 19.7014925,0" id="Fill-15"></path>
                        <path d="M19.7014925,9.2625 C25.4047463,9.2625 30.0447761,13.855075 30.0447761,19.5 C30.0447761,25.144925 25.4047463,29.7375 19.7014925,29.7375 C13.9982388,29.7375 9.35820896,25.144925 9.35820896,19.5 C9.35820896,13.855075 13.9982388,9.2625 19.7014925,9.2625 M19.7014925,7.3125 C12.9008657,7.3125 7.3880597,12.768925 7.3880597,19.5 C7.3880597,26.231075 12.9008657,31.6875 19.7014925,31.6875 C26.5021194,31.6875 32.0149254,26.231075 32.0149254,19.5 C32.0149254,12.768925 26.5021194,7.3125 19.7014925,7.3125" id="Fill-17"></path>
                        <path d="M19.7014925,16.575 C21.3311343,16.575 22.6567164,17.887025 22.6567164,19.5 C22.6567164,21.112975 21.3311343,22.425 19.7014925,22.425 C18.0718507,22.425 16.7462687,21.112975 16.7462687,19.5 C16.7462687,17.887025 18.0718507,16.575 19.7014925,16.575 M19.7014925,14.625 C16.9813731,14.625 14.7761194,16.8077 14.7761194,19.5 C14.7761194,22.1923 16.9813731,24.375 19.7014925,24.375 C22.4216119,24.375 24.6268657,22.1923 24.6268657,19.5 C24.6268657,16.8077 22.4216119,14.625 19.7014925,14.625" id="Fill-19"></path>
                    </g>
                </g>
            </g>
        </g>
    </g>
</svg>
