<?xml version="1.0" encoding="UTF-8" standalone="no"?><!-- Generator: Gravit.io --><svg xmlns="http://www.w3.org/2000/svg" xmlns:xlink="http://www.w3.org/1999/xlink" style="isolation:isolate" viewBox="1 29.336 98 24" width="98pt" height="24pt"><defs><clipPath id="_clipPath_oW1LvgX7gQCYg1K825q1O6pYCZqkiBtS"><rect width="100" height="100"/></clipPath></defs><g clip-path="url(#_clipPath_oW1LvgX7gQCYg1K825q1O6pYCZqkiBtS)"><g><g><g><g><path d=" M 32.343 45.401 L 32.343 43.022 C 32.983 43.443 33.66 43.791 34.374 44.065 C 34.886 44.248 35.435 44.358 35.984 44.358 C 36.387 44.395 36.807 44.303 37.173 44.12 C 37.429 43.974 37.594 43.699 37.576 43.407 C 37.594 43.169 37.484 42.949 37.32 42.784 C 37.155 42.638 36.771 42.437 36.149 42.236 C 34.63 41.705 33.569 41.156 33.002 40.589 C 32.434 40.022 32.123 39.253 32.142 38.448 C 32.123 37.57 32.544 36.728 33.258 36.216 C 34.008 35.649 34.978 35.356 36.167 35.356 C 36.789 35.356 37.393 35.429 37.997 35.575 C 38.619 35.722 39.223 35.941 39.808 36.234 L 39.808 38.43 C 39.186 38.1 38.546 37.844 37.869 37.625 C 37.356 37.46 36.844 37.368 36.313 37.368 C 35.911 37.35 35.508 37.423 35.142 37.588 C 34.904 37.698 34.74 37.954 34.74 38.228 C 34.758 38.485 34.886 38.722 35.106 38.869 C 35.435 39.107 35.801 39.308 36.185 39.436 C 36.295 39.473 36.441 39.528 36.661 39.619 C 37.411 39.875 38.161 40.205 38.857 40.589 C 39.296 40.845 39.662 41.229 39.918 41.687 C 40.156 42.181 40.284 42.711 40.266 43.26 C 40.302 44.175 39.881 45.053 39.149 45.602 C 38.399 46.169 37.356 46.444 36.039 46.444 C 34.74 46.444 33.459 46.096 32.343 45.401 L 32.343 45.401 Z  M 41.638 46.261 L 41.638 38.997 L 43.925 38.997 L 43.925 46.243 L 41.638 46.243 L 41.638 46.261 Z  M 41.565 36.655 C 41.565 35.978 42.114 35.447 42.791 35.447 C 43.468 35.447 43.998 35.996 43.998 36.673 C 43.998 37.35 43.449 37.881 42.772 37.881 C 42.461 37.881 42.15 37.753 41.931 37.533 C 41.693 37.295 41.565 36.984 41.565 36.655 Z  M 45.59 46.261 L 45.59 35.557 L 47.877 35.557 L 47.877 46.261 L 45.59 46.261 Z  M 51.811 46.389 L 48.463 38.997 L 50.878 38.997 L 52.47 42.931 L 53.97 38.997 L 56.349 38.997 L 53.202 46.389 L 51.811 46.389 L 51.811 46.389 Z  M 63.942 45.456 C 63.467 45.767 62.936 46.005 62.387 46.169 C 61.82 46.334 61.234 46.407 60.63 46.407 C 59.386 46.407 58.398 46.06 57.703 45.383 C 57.008 44.706 56.642 43.754 56.642 42.547 C 56.642 41.43 56.989 40.534 57.685 39.857 C 58.38 39.18 59.295 38.851 60.448 38.851 C 61.582 38.851 62.479 39.216 63.137 39.948 C 63.796 40.68 64.125 41.687 64.125 42.949 L 64.125 43.022 L 58.984 43.022 L 58.984 43.059 C 58.965 43.571 59.185 44.084 59.569 44.413 C 59.953 44.742 60.502 44.907 61.179 44.907 C 61.655 44.907 62.113 44.815 62.552 44.669 C 63.046 44.486 63.503 44.248 63.924 43.956 L 63.924 45.456 L 63.942 45.456 Z  M 59.002 41.906 L 61.82 41.906 C 61.802 41.504 61.655 41.119 61.399 40.808 C 61.161 40.552 60.813 40.406 60.466 40.406 C 60.1 40.388 59.734 40.534 59.478 40.808 C 59.203 41.119 59.039 41.504 59.002 41.906 L 59.002 41.906 Z  M 65.369 46.261 L 65.369 38.997 L 67.657 38.997 L 67.657 40.936 C 68.041 40.205 68.425 39.674 68.773 39.363 C 69.084 39.07 69.505 38.887 69.944 38.887 C 70.163 38.887 70.401 38.942 70.603 39.015 C 70.877 39.125 71.133 39.253 71.389 39.418 L 70.767 41.504 C 70.566 41.339 70.365 41.211 70.127 41.101 C 69.944 41.028 69.743 40.973 69.56 40.973 C 69.102 40.991 68.681 41.193 68.389 41.54 C 68.023 41.998 67.766 42.528 67.657 43.114 L 67.657 46.224 L 65.369 46.261 Z  M 74.353 44.175 C 74.536 44.321 74.738 44.45 74.957 44.523 C 75.159 44.596 75.378 44.633 75.598 44.633 C 76.092 44.651 76.586 44.45 76.915 44.084 C 77.263 43.681 77.427 43.15 77.391 42.62 C 77.427 42.089 77.244 41.559 76.915 41.156 C 76.567 40.79 76.092 40.589 75.598 40.625 C 75.378 40.625 75.159 40.662 74.957 40.753 C 74.738 40.845 74.536 40.973 74.335 41.119 L 74.353 44.175 Z  M 72.066 45.84 L 72.066 35.557 L 74.335 35.557 L 74.335 39.528 C 74.61 39.308 74.921 39.125 75.268 39.015 C 75.634 38.905 76 38.851 76.384 38.851 C 77.446 38.851 78.269 39.198 78.873 39.875 C 79.495 40.552 79.788 41.485 79.788 42.656 C 79.788 43.827 79.404 44.761 78.635 45.419 C 77.867 46.078 76.805 46.407 75.451 46.407 C 74.921 46.407 74.372 46.352 73.841 46.261 C 73.256 46.151 72.652 46.005 72.066 45.84 Z  M 81.069 46.261 L 81.069 38.997 L 83.356 38.997 L 83.356 46.243 L 81.069 46.243 L 81.069 46.261 Z  M 80.977 36.655 C 80.977 35.978 81.526 35.447 82.203 35.447 C 82.88 35.447 83.411 35.996 83.411 36.673 C 83.411 37.35 82.862 37.881 82.185 37.881 C 81.874 37.881 81.563 37.753 81.343 37.533 C 81.105 37.295 80.977 36.984 80.977 36.655 Z  M 85.003 46.261 L 85.003 38.997 L 87.29 38.997 L 87.29 40.936 C 87.674 40.205 88.04 39.674 88.406 39.363 C 88.717 39.052 89.138 38.887 89.577 38.887 C 89.796 38.887 90.034 38.942 90.236 39.015 C 90.51 39.125 90.766 39.253 91.022 39.418 L 90.4 41.504 C 90.199 41.339 89.998 41.211 89.76 41.101 C 89.577 41.028 89.376 40.973 89.193 40.973 C 88.735 40.991 88.314 41.193 88.022 41.54 C 87.656 41.998 87.399 42.528 87.29 43.114 L 87.29 46.224 L 85.003 46.261 Z  M 96.713 44.193 L 96.713 41.083 C 96.53 40.936 96.329 40.827 96.109 40.753 C 95.908 40.68 95.688 40.644 95.469 40.644 C 94.975 40.625 94.481 40.827 94.151 41.193 C 93.804 41.595 93.639 42.126 93.675 42.656 C 93.657 43.187 93.822 43.718 94.151 44.12 C 94.481 44.486 94.938 44.687 95.432 44.669 C 95.652 44.669 95.871 44.633 96.091 44.559 C 96.31 44.45 96.53 44.34 96.713 44.193 L 96.713 44.193 Z  M 96.804 45.657 C 96.53 45.895 96.201 46.096 95.835 46.224 C 95.469 46.352 95.084 46.407 94.7 46.407 C 93.767 46.444 92.852 46.06 92.23 45.364 C 91.608 44.669 91.279 43.754 91.279 42.638 C 91.279 41.504 91.59 40.589 92.23 39.893 C 92.852 39.198 93.767 38.814 94.7 38.832 C 95.066 38.832 95.45 38.887 95.798 38.997 C 96.127 39.107 96.438 39.29 96.713 39.509 L 96.713 35.557 L 99 35.557 L 99 46.261 L 96.804 46.261 L 96.804 45.657 Z " fill="rgb(6,16,88)"/><g><path d=" M 10.862 29.647 C 15.875 28.897 20.815 31.513 23.011 36.088 C 23.048 36.161 23.066 36.216 23.103 36.289 L 23.121 36.344 C 23.158 36.417 23.176 36.49 23.212 36.545 L 23.231 36.6 C 23.249 36.673 23.286 36.746 23.322 36.801 L 23.341 36.856 L 23.414 37.057 L 23.432 37.131 L 23.505 37.332 L 23.523 37.405 C 23.542 37.478 23.56 37.551 23.597 37.606 L 23.615 37.661 C 23.633 37.734 23.652 37.808 23.688 37.881 L 23.706 37.936 L 23.761 38.155 L 23.78 38.21 C 23.798 38.283 23.816 38.357 23.835 38.43 L 23.853 38.503 C 23.871 38.576 23.889 38.668 23.908 38.722 L 23.908 38.777 C 23.926 38.851 23.926 38.924 23.944 38.997 L 23.944 39.052 C 23.944 39.125 23.963 39.216 23.981 39.29 L 23.981 39.326 C 24.292 41.321 24.054 43.37 23.322 45.255 C 23.212 45.511 23.103 45.767 22.993 46.023 C 22.92 46.188 22.828 46.352 22.737 46.517 C 22.609 46.755 22.462 46.993 22.316 47.231 C 22.206 47.395 22.115 47.542 22.005 47.688 C 21.95 47.761 21.895 47.835 21.84 47.908 C 21.785 47.981 21.73 48.054 21.675 48.127 C 21.621 48.2 21.566 48.274 21.511 48.347 C 21.456 48.42 21.383 48.493 21.328 48.566 L 21.145 48.768 C 21.09 48.841 21.017 48.914 20.962 48.969 C 20.907 49.042 20.834 49.097 20.779 49.17 L 20.578 49.372 C 20.504 49.426 20.431 49.5 20.376 49.554 L 20.175 49.737 C 20.102 49.792 20.029 49.866 19.955 49.92 C 19.882 49.975 19.809 50.049 19.736 50.085 C 19.663 50.14 19.59 50.195 19.516 50.25 C 19.443 50.305 19.37 50.36 19.297 50.414 C 19.224 50.469 19.132 50.524 19.059 50.579 L 18.821 50.744 C 18.821 50.744 18.656 50.854 18.583 50.89 C 18.51 50.927 18.419 50.982 18.345 51.037 C 18.272 51.073 18.181 51.128 18.089 51.183 C 17.998 51.238 17.924 51.274 17.833 51.311 L 17.577 51.439 C 17.577 51.439 17.412 51.531 17.321 51.567 C 17.229 51.604 17.156 51.64 17.065 51.677 C 16.973 51.714 16.9 51.75 16.79 51.787 C 16.68 51.823 16.607 51.86 16.516 51.897 C 16.424 51.933 16.333 51.97 16.241 51.988 C 16.15 52.006 16.058 52.043 15.967 52.08 C 15.875 52.098 15.784 52.134 15.692 52.171 C 15.601 52.208 15.509 52.226 15.399 52.244 C 15.308 52.262 15.216 52.281 15.107 52.317 C 15.015 52.336 14.924 52.354 14.814 52.372 C 14.722 52.391 14.631 52.409 14.521 52.427 C 14.411 52.445 14.32 52.464 14.228 52.464 L 13.112 52.574 L 11.74 52.574 L 11.045 52.5 L 10.972 52.5 L 10.88 52.5 L 10.496 52.464 L 10.331 52.427 L 10.166 52.391 L 9.782 52.299 L 9.618 52.262 L 9.453 52.226 L 8.904 52.043 L 8.941 52.025 L 9.27 51.842 L 9.398 51.768 L 9.837 51.512 L 10.112 51.348 L 10.221 51.274 L 10.551 51.073 L 10.642 51.018 C 10.752 50.945 10.862 50.89 10.953 50.817 L 10.972 50.817 L 11.283 50.616 L 11.374 50.561 L 11.758 50.323 L 11.978 50.177 L 12.088 50.103 L 12.362 49.92 L 12.435 49.866 L 12.655 49.701 L 12.728 49.646 L 12.984 49.463 L 13.057 49.408 C 13.131 49.353 13.204 49.298 13.259 49.243 L 13.332 49.189 L 13.551 49.024 L 13.625 48.969 C 13.698 48.914 13.771 48.859 13.844 48.804 L 13.917 48.749 L 14.082 48.621 L 14.174 48.548 C 14.228 48.493 14.302 48.438 14.357 48.383 L 14.448 48.31 L 14.649 48.127 L 14.905 47.889 L 15.034 47.761 L 15.143 47.67 L 15.345 47.56 L 15.418 47.487 L 15.564 47.359 L 15.656 47.267 L 15.765 47.158 L 15.82 47.103 C 15.875 47.048 15.912 46.993 15.967 46.938 L 16.022 46.865 L 16.113 46.755 L 16.278 46.535 L 16.333 46.462 C 16.369 46.426 16.406 46.371 16.442 46.316 L 16.479 46.261 L 16.57 46.151 L 16.772 45.877 L 16.845 45.785 L 16.9 45.712 C 16.918 45.675 16.955 45.621 16.991 45.584 L 17.046 45.511 L 17.101 45.419 L 17.229 45.236 L 17.284 45.236 L 17.339 45.127 L 17.394 45.017 L 17.43 44.944 L 17.467 44.87 L 17.522 44.742 L 17.595 44.578 C 17.613 44.541 17.632 44.486 17.65 44.45 L 17.668 44.395 L 17.705 44.303 L 17.723 44.248 C 17.742 44.212 17.76 44.157 17.778 44.102 L 17.796 44.029 L 17.851 43.864 C 17.87 43.827 17.87 43.773 17.888 43.736 C 18.327 42.364 18.272 41.065 18.217 39.711 C 18.492 38.613 18.766 37.753 19.901 37.185 L 19.974 37.149 L 19.974 37.149 L 20.065 37.112 L 20.065 37.112 L 20.12 37.094 L 20.138 37.094 L 20.138 37.094 L 20.175 37.076 L 20.193 37.076 L 20.193 37.076 L 20.212 37.076 L 20.267 37.057 L 20.285 37.057 L 20.285 37.057 L 20.358 37.021 L 20.431 37.003 L 20.468 37.003 L 20.541 36.984 L 20.541 36.984 L 20.614 36.966 L 20.614 36.966 L 20.633 36.966 L 20.687 36.948 L 20.706 36.948 L 20.706 36.948 L 20.779 36.929 L 20.815 36.929 L 20.889 36.911 L 20.889 36.911 L 20.907 36.911 L 20.98 36.893 L 20.998 36.893 L 20.998 36.893 L 21.108 36.874 L 21.108 36.874 L 21.2 36.856 L 21.218 36.856 L 21.31 36.838 L 21.346 36.838 L 21.346 36.838 L 21.456 36.82 L 21.456 36.82 L 21.566 36.801 L 21.584 36.801 L 21.602 36.801 L 21.73 36.783 L 21.566 36.783 L 21.529 36.783 L 21.529 36.783 L 21.492 36.783 L 21.474 36.783 L 21.383 36.765 L 21.383 36.765 L 21.346 36.765 L 21.328 36.765 L 21.291 36.765 L 21.291 36.765 L 21.273 36.765 L 21.255 36.765 L 21.218 36.746 C 20.358 36.399 19.59 35.301 18.711 34.917 C 16.497 34.276 15.235 36.069 14.485 37.588 C 10.459 33.691 5.061 34.404 4.055 29.336 C 6.287 31.074 8.959 29.958 10.862 29.647 L 10.862 29.647 L 10.862 29.647 Z " fill-rule="evenodd" fill="rgb(145,165,194)"/><path d=" M 13.716 49.042 C 13.789 48.987 13.862 48.932 13.936 48.877 L 13.716 49.042 Z " fill-rule="evenodd" fill="rgb(145,165,194)"/><path d=" M 2.5 46.792 C 0.194 42.73 0.579 37.68 3.433 33.983 C 3.433 37.789 5.427 40.223 9.288 43.498 C 12.527 46.243 9.343 50.762 4.933 53.507 C 5.848 50.835 3.744 48.841 2.719 47.231 C 2.646 47.084 2.573 46.938 2.5 46.792 L 2.5 46.792 Z  M 4.952 53.507 L 4.952 53.507 L 4.952 53.507 Z " fill-rule="evenodd" fill="rgb(6,16,88)"/></g></g></g></g></g></g></svg>