<?xml version="1.0" encoding="UTF-8"?> <!-- Generator: Adobe Illustrator 23.0.1, SVG Export Plug-In . SVG Version: 6.00 Build 0) --> <svg xmlns="http://www.w3.org/2000/svg" xmlns:xlink="http://www.w3.org/1999/xlink" id="Layer_1" x="0px" y="0px" viewBox="0 0 535.7 133.5" style="enable-background:new 0 0 535.7 133.5;" xml:space="preserve"> <style type="text/css"> .st0{fill:#99ACC1;} .st1{fill-rule:evenodd;clip-rule:evenodd;fill:#99ACC1;} .st2{fill-rule:evenodd;clip-rule:evenodd;fill:#91A5C2;} .st3{fill-rule:evenodd;clip-rule:evenodd;fill:#4D5F80;} </style> <title>Artboard 310</title> <path class="st0" d="M171.3,88.9v-13c3.5,2.3,7.2,4.2,11.1,5.7c2.8,1,5.8,1.6,8.8,1.6c2.2,0.2,4.5-0.3,6.5-1.3 c1.4-0.8,2.3-2.3,2.2-3.9c0.1-1.3-0.5-2.5-1.4-3.4c-0.9-0.8-3-1.9-6.4-3c-8.3-2.9-14.1-5.9-17.2-9c-3.1-3.1-4.8-7.3-4.7-11.7 c-0.1-4.8,2.2-9.4,6.1-12.2c4.1-3.1,9.4-4.7,15.9-4.7c3.4,0,6.7,0.4,10,1.2c3.4,0.8,6.7,2,9.9,3.6v12c-3.4-1.8-6.9-3.2-10.6-4.4 c-2.8-0.9-5.6-1.4-8.5-1.4c-2.2-0.1-4.4,0.3-6.4,1.2c-1.3,0.6-2.2,2-2.2,3.5c0.1,1.4,0.8,2.7,2,3.5c1.8,1.3,3.8,2.4,5.9,3.1 c0.6,0.2,1.4,0.5,2.6,1c4.1,1.4,8.2,3.2,12,5.3c2.4,1.4,4.4,3.5,5.8,6c1.3,2.7,2,5.6,1.9,8.6c0.2,5-2.1,9.8-6.1,12.8 c-4.1,3.1-9.8,4.6-17,4.6C184.4,94.6,177.4,92.7,171.3,88.9L171.3,88.9z M222.1,93.6V53.9h12.5v39.6H222.1z M221.7,41.1 c0-3.7,3-6.6,6.7-6.6c3.7,0,6.6,3,6.6,6.7c0,3.7-3,6.6-6.7,6.6c-1.7,0-3.4-0.7-4.6-1.9C222.4,44.6,221.7,42.9,221.7,41.1z M243.7,93.6V35.1h12.5v58.5H243.7z M277.7,94.3l-18.3-40.4h13.2l8.7,21.5l8.2-21.5h13l-17.2,40.4H277.7z M344,89.2 c-2.6,1.7-5.5,3-8.5,3.9c-3.1,0.9-6.3,1.3-9.6,1.3c-6.8,0-12.2-1.9-16-5.6c-3.8-3.7-5.8-8.9-5.8-15.5c0-6.1,1.9-11,5.7-14.7 c3.8-3.7,8.8-5.5,15.1-5.5c6.2,0,11.1,2,14.7,6c3.6,4,5.4,9.5,5.4,16.4v0.4h-28.1v0.2c-0.1,2.8,1.1,5.6,3.2,7.4 c2.1,1.8,5.1,2.7,8.8,2.7c2.6,0,5.1-0.5,7.5-1.3c2.7-1,5.2-2.3,7.5-3.9V89.2z M317,69.8h15.4c-0.1-2.2-0.9-4.3-2.3-6 c-1.3-1.4-3.2-2.2-5.1-2.2c-2-0.1-4,0.7-5.4,2.2C318.1,65.5,317.2,67.6,317,69.8L317,69.8z M351.8,93.6V53.9h12.5v10.6 c2.1-4,4.2-6.9,6.1-8.6c1.7-1.6,4-2.6,6.4-2.6c1.2,0,2.5,0.3,3.6,0.7c1.5,0.6,2.9,1.3,4.3,2.2l-3.4,11.4c-1.1-0.9-2.2-1.6-3.5-2.2 c-1-0.4-2.1-0.7-3.1-0.7c-2.5,0.1-4.8,1.2-6.4,3.1c-2,2.5-3.4,5.4-4,8.6v17L351.8,93.6z M400.9,82.2c1,0.8,2.1,1.5,3.3,1.9 c1.1,0.4,2.3,0.6,3.5,0.6c2.7,0.1,5.4-1,7.2-3c1.9-2.2,2.8-5.1,2.6-8c0.2-2.9-0.8-5.8-2.6-8c-1.9-2-4.5-3.1-7.2-2.9 c-1.2,0-2.4,0.2-3.5,0.7c-1.2,0.5-2.3,1.2-3.4,2L400.9,82.2z M388.4,91.3V35.1h12.4v21.7c1.5-1.2,3.2-2.2,5.1-2.8 c2-0.6,4-0.9,6.1-0.9c5.8,0,10.3,1.9,13.6,5.6c3.4,3.7,5,8.8,5,15.2s-2.1,11.5-6.3,15.1s-10,5.4-17.4,5.4c-2.9,0-5.9-0.3-8.8-0.8 C394.9,93,391.6,92.2,388.4,91.3z M437.6,93.6V53.9h12.5v39.6H437.6z M437.1,41.1c0-3.7,3-6.6,6.7-6.6c3.7,0,6.6,3,6.6,6.7 c0,3.7-3,6.6-6.7,6.6c-1.7,0-3.4-0.7-4.6-1.9C437.8,44.6,437.1,42.9,437.1,41.1z M459.1,93.6V53.9h12.5v10.6c2.1-4,4.1-6.9,6.1-8.6 c1.7-1.7,4-2.6,6.4-2.6c1.2,0,2.5,0.3,3.6,0.7c1.5,0.6,2.9,1.3,4.3,2.2l-3.4,11.4c-1.1-0.9-2.2-1.6-3.5-2.2c-1-0.4-2.1-0.7-3.1-0.7 c-2.5,0.1-4.8,1.2-6.4,3.1c-2,2.5-3.4,5.4-4,8.6v17L459.1,93.6z M523.1,82.3v-17c-1-0.8-2.1-1.4-3.3-1.8c-1.1-0.4-2.3-0.6-3.5-0.6 c-2.7-0.1-5.4,1-7.2,3c-1.9,2.2-2.8,5.1-2.6,8c-0.1,2.9,0.8,5.8,2.6,8c1.8,2,4.3,3.1,7,3c1.2,0,2.4-0.2,3.6-0.6 C520.9,83.7,522.1,83.1,523.1,82.3L523.1,82.3z M523.6,90.3c-1.5,1.3-3.3,2.4-5.3,3.1c-2,0.7-4.1,1-6.2,1 c-5.1,0.2-10.1-1.9-13.5-5.7c-3.4-3.8-5.2-8.8-5.2-14.9c0-6.2,1.7-11.2,5.2-15c3.4-3.8,8.4-5.9,13.5-5.8c2,0,4.1,0.3,6,0.9 c1.8,0.6,3.5,1.6,5,2.8V35.1h12.5v58.5h-12L523.6,90.3z"></path> <g> <path class="st1" d="M53.9,2.8c27.4-4.1,54.4,10.2,66.4,35.2c0.2,0.4,0.3,0.7,0.5,1.1l0.1,0.3c0.2,0.4,0.3,0.8,0.5,1.1l0.1,0.3 c0.1,0.4,0.3,0.8,0.5,1.1l0.1,0.3l0.4,1.1l0.1,0.4l0.4,1.1l0.1,0.4c0.1,0.4,0.2,0.8,0.4,1.1l0.1,0.3c0.1,0.4,0.2,0.8,0.4,1.2 l0.1,0.3l0.3,1.2l0.1,0.3c0.1,0.4,0.2,0.8,0.3,1.2l0.1,0.4c0.1,0.4,0.2,0.9,0.3,1.2l0,0.3c0.1,0.4,0.1,0.8,0.2,1.2l0,0.3 c0,0.4,0.1,0.9,0.2,1.3l0,0.2c1.7,10.9,0.4,22.1-3.6,32.4c-0.6,1.4-1.2,2.8-1.8,4.2c-0.4,0.9-0.9,1.8-1.4,2.7 c-0.7,1.3-1.5,2.6-2.3,3.9c-0.6,0.9-1.1,1.7-1.7,2.5c-0.3,0.4-0.6,0.8-0.9,1.2c-0.3,0.4-0.6,0.8-0.9,1.2c-0.3,0.4-0.6,0.8-0.9,1.2 c-0.3,0.4-0.7,0.8-1,1.2l-1,1.1c-0.3,0.4-0.7,0.8-1,1.1c-0.3,0.4-0.7,0.7-1,1.1l-1.1,1.1c-0.4,0.3-0.8,0.7-1.1,1l-1.1,1 c-0.4,0.3-0.8,0.7-1.2,1c-0.4,0.3-0.8,0.7-1.2,0.9c-0.4,0.3-0.8,0.6-1.2,0.9c-0.4,0.3-0.8,0.6-1.2,0.9s-0.9,0.6-1.3,0.9l-1.3,0.9 c0,0-0.9,0.6-1.3,0.8s-0.9,0.5-1.3,0.8c-0.4,0.2-0.9,0.5-1.4,0.8s-0.9,0.5-1.4,0.7l-1.4,0.7c0,0-0.9,0.5-1.4,0.7 c-0.5,0.2-0.9,0.4-1.4,0.6s-0.9,0.4-1.5,0.6s-1,0.4-1.5,0.6c-0.5,0.2-1,0.4-1.5,0.5c-0.5,0.1-1,0.3-1.5,0.5c-0.5,0.1-1,0.3-1.5,0.5 s-1,0.3-1.6,0.4c-0.5,0.1-1,0.2-1.6,0.4c-0.5,0.1-1,0.2-1.6,0.3c-0.5,0.1-1,0.2-1.6,0.3c-0.6,0.1-1.1,0.2-1.6,0.2l-6.1,0.6h-7.5 l-3.8-0.4l-0.4,0l-0.5,0l-2.1-0.2l-0.9-0.2l-0.9-0.2l-2.1-0.5l-0.9-0.2l-0.9-0.2l-3-1l0.2-0.1l1.8-1l0.7-0.4l2.4-1.4l1.5-0.9 l0.6-0.4l1.8-1.1l0.5-0.3c0.6-0.4,1.2-0.7,1.7-1.1l0.1,0l1.7-1.1l0.5-0.3l2.1-1.3l1.2-0.8l0.6-0.4l1.5-1l0.4-0.3l1.2-0.9l0.4-0.3 l1.4-1l0.4-0.3c0.4-0.3,0.8-0.6,1.1-0.9l0.4-0.3l1.2-0.9l0.4-0.3c0.4-0.3,0.8-0.6,1.2-0.9l0.4-0.3l0.9-0.7l0.5-0.4 c0.3-0.3,0.7-0.6,1-0.9l0.5-0.4l1.1-1l1.4-1.3l0.7-0.7l0.6-0.5l1.1-0.6l0.4-0.4l0.8-0.7l0.5-0.5l0.6-0.6l0.3-0.3 c0.3-0.3,0.5-0.6,0.8-0.9l0.3-0.4l0.5-0.6l0.9-1.2l0.3-0.4c0.2-0.2,0.4-0.5,0.6-0.8l0.2-0.3l0.5-0.6l1.1-1.5l0.4-0.5l0.3-0.4 c0.1-0.2,0.3-0.5,0.5-0.7l0.3-0.4l0.3-0.5l0.7-1L89,88l0.3-0.6l0.3-0.6l0.2-0.4l0.2-0.4l0.3-0.7l0.4-0.9c0.1-0.2,0.2-0.5,0.3-0.7 l0.1-0.3l0.2-0.5l0.1-0.3c0.1-0.2,0.2-0.5,0.3-0.8l0.1-0.4l0.3-0.9c0.1-0.2,0.1-0.5,0.2-0.7c2.4-7.5,2.1-14.6,1.8-22 c1.5-6,3-10.7,9.2-13.8l0.4-0.2h0l0.5-0.2l0,0l0.3-0.1l0.1,0l0,0l0.2-0.1l0.1,0h0l0.1,0l0.3-0.1l0.1,0h0l0.4-0.2l0.4-0.1l0.2,0 l0.4-0.1h0l0.4-0.1h0l0.1,0l0.3-0.1l0.1,0h0l0.4-0.1l0.2,0l0.4-0.1h0l0.1,0l0.4-0.1l0.1,0h0l0.6-0.1h0l0.5-0.1h0.1l0.5-0.1l0.2,0h0 l0.6-0.1h0l0.6-0.1l0.1,0h0.1l0.7-0.1h-0.9l-0.2,0h0l-0.2,0h-0.1l-0.5-0.1h0l-0.2,0h-0.1l-0.2,0h0l-0.1,0h-0.1l-0.2-0.1 c-4.7-1.9-8.9-7.9-13.7-10c-12.1-3.5-19,6.3-23.1,14.6c-22-21.3-51.5-17.4-57-45.1C28.9,10.6,43.5,4.5,53.9,2.8L53.9,2.8L53.9,2.8z "></path> <path class="st2" d="M69.5,108.8c0.4-0.3,0.8-0.6,1.2-0.9L69.5,108.8z"></path> <path class="st3" d="M8.2,96.5c-12.6-22.2-10.5-49.8,5.1-70c0,20.8,10.9,34.1,32,52c17.7,15,0.3,39.7-23.8,54.7 c5-14.6-6.5-25.5-12.1-34.3C9,98.1,8.6,97.3,8.2,96.5L8.2,96.5z M21.6,133.2L21.6,133.2L21.6,133.2z"></path> </g> </svg> 