<?xml version="1.0" encoding="UTF-8" standalone="no"?><!-- Generator: Gravit.io --><svg xmlns="http://www.w3.org/2000/svg" xmlns:xlink="http://www.w3.org/1999/xlink" style="isolation:isolate" viewBox="0 0 100 100" width="100pt" height="100pt"><defs><clipPath id="_clipPath_t1hsYOKIztoUAauvuU9sie8c7tPhoQLg"><rect width="100" height="100"/></clipPath></defs><g clip-path="url(#_clipPath_t1hsYOKIztoUAauvuU9sie8c7tPhoQLg)"><g><g><path d=" M 43.406 2.259 C 63.693 -0.777 83.684 9.811 92.569 28.321 C 92.717 28.617 92.791 28.839 92.939 29.136 L 93.013 29.358 C 93.161 29.654 93.235 29.95 93.383 30.172 L 93.457 30.394 C 93.532 30.69 93.68 30.987 93.828 31.209 L 93.902 31.431 L 94.198 32.245 L 94.272 32.541 L 94.568 33.356 L 94.642 33.652 C 94.716 33.948 94.79 34.244 94.938 34.466 L 95.012 34.689 C 95.086 34.985 95.16 35.281 95.308 35.577 L 95.383 35.799 L 95.605 36.688 L 95.679 36.91 C 95.753 37.206 95.827 37.502 95.901 37.798 L 95.975 38.094 C 96.049 38.391 96.123 38.761 96.197 38.983 L 96.197 39.205 C 96.271 39.501 96.271 39.797 96.345 40.094 L 96.345 40.316 C 96.345 40.612 96.419 40.982 96.493 41.278 L 96.493 41.426 C 97.752 49.497 96.789 57.789 93.828 65.416 C 93.383 66.452 92.939 67.489 92.495 68.525 C 92.199 69.192 91.829 69.858 91.458 70.524 C 90.94 71.487 90.348 72.449 89.755 73.412 C 89.311 74.078 88.941 74.671 88.497 75.263 C 88.275 75.559 88.052 75.855 87.83 76.151 C 87.608 76.448 87.386 76.744 87.164 77.04 C 86.942 77.336 86.72 77.632 86.498 77.928 C 86.276 78.225 85.979 78.521 85.757 78.817 L 85.017 79.631 C 84.795 79.928 84.499 80.224 84.276 80.446 C 84.054 80.742 83.758 80.964 83.536 81.26 L 82.722 82.075 C 82.425 82.297 82.129 82.593 81.907 82.815 L 81.093 83.556 C 80.796 83.778 80.5 84.074 80.204 84.296 C 79.908 84.518 79.612 84.814 79.316 84.962 C 79.019 85.184 78.723 85.407 78.427 85.629 C 78.131 85.851 77.835 86.073 77.539 86.295 C 77.243 86.517 76.872 86.739 76.576 86.961 L 75.614 87.628 C 75.614 87.628 74.947 88.072 74.651 88.22 C 74.355 88.368 73.985 88.59 73.689 88.812 C 73.392 88.961 73.022 89.183 72.652 89.405 C 72.282 89.627 71.986 89.775 71.615 89.923 L 70.579 90.441 C 70.579 90.441 69.912 90.812 69.542 90.96 C 69.172 91.108 68.876 91.256 68.506 91.404 C 68.135 91.552 67.839 91.7 67.395 91.848 C 66.951 91.996 66.655 92.144 66.284 92.292 C 65.914 92.44 65.544 92.589 65.174 92.663 C 64.804 92.737 64.433 92.885 64.063 93.033 C 63.693 93.107 63.323 93.255 62.953 93.403 C 62.582 93.551 62.212 93.625 61.768 93.699 C 61.398 93.773 61.028 93.847 60.583 93.995 C 60.213 94.069 59.843 94.143 59.399 94.217 C 59.028 94.292 58.658 94.366 58.214 94.44 C 57.77 94.514 57.4 94.588 57.029 94.588 L 52.513 95.032 L 46.96 95.032 L 44.146 94.736 L 43.85 94.736 L 43.48 94.736 L 41.925 94.588 L 41.259 94.44 L 40.592 94.292 L 39.037 93.921 L 38.371 93.773 L 37.705 93.625 L 35.483 92.885 L 35.632 92.811 L 36.964 92.07 L 37.483 91.774 L 39.26 90.738 L 40.37 90.071 L 40.814 89.775 L 42.147 88.961 L 42.517 88.738 C 42.962 88.442 43.406 88.22 43.776 87.924 L 43.85 87.924 L 45.109 87.11 L 45.479 86.887 L 47.034 85.925 L 47.922 85.333 L 48.367 85.036 L 49.477 84.296 L 49.773 84.074 L 50.662 83.407 L 50.958 83.185 L 51.995 82.445 L 52.291 82.223 C 52.587 82.001 52.883 81.779 53.105 81.556 L 53.401 81.334 L 54.29 80.668 L 54.586 80.446 C 54.882 80.224 55.178 80.002 55.474 79.779 L 55.771 79.557 L 56.437 79.039 L 56.807 78.743 C 57.029 78.521 57.326 78.299 57.548 78.077 L 57.918 77.78 L 58.732 77.04 L 59.769 76.077 L 60.287 75.559 L 60.731 75.189 L 61.546 74.745 L 61.842 74.449 L 62.434 73.93 L 62.805 73.56 L 63.249 73.116 L 63.471 72.894 C 63.693 72.672 63.841 72.449 64.063 72.227 L 64.285 71.931 L 64.656 71.487 L 65.322 70.598 L 65.544 70.302 C 65.692 70.154 65.84 69.932 65.988 69.71 L 66.136 69.488 L 66.507 69.044 L 67.321 67.933 L 67.617 67.563 L 67.839 67.267 C 67.913 67.119 68.061 66.896 68.21 66.748 L 68.432 66.452 L 68.654 66.082 L 69.172 65.342 L 69.394 65.342 L 69.616 64.897 L 69.838 64.453 L 69.987 64.157 L 70.135 63.861 L 70.357 63.342 L 70.653 62.676 C 70.727 62.528 70.801 62.306 70.875 62.158 L 70.949 61.936 L 71.097 61.565 L 71.171 61.343 C 71.245 61.195 71.319 60.973 71.393 60.751 L 71.467 60.455 L 71.689 59.788 C 71.763 59.64 71.763 59.418 71.838 59.27 C 73.615 53.717 73.392 48.46 73.17 42.981 C 74.281 38.539 75.391 35.059 79.982 32.764 L 80.278 32.615 L 80.278 32.615 L 80.648 32.467 L 80.648 32.467 L 80.871 32.393 L 80.945 32.393 L 80.945 32.393 L 81.093 32.319 L 81.167 32.319 L 81.167 32.319 L 81.241 32.319 L 81.463 32.245 L 81.537 32.245 L 81.537 32.245 L 81.833 32.097 L 82.129 32.023 L 82.277 32.023 L 82.573 31.949 L 82.573 31.949 L 82.87 31.875 L 82.87 31.875 L 82.944 31.875 L 83.166 31.801 L 83.24 31.801 L 83.24 31.801 L 83.536 31.727 L 83.684 31.727 L 83.98 31.653 L 83.98 31.653 L 84.054 31.653 L 84.35 31.579 L 84.424 31.579 L 84.424 31.579 L 84.869 31.505 L 84.869 31.505 L 85.239 31.431 L 85.313 31.431 L 85.683 31.357 L 85.831 31.357 L 85.831 31.357 L 86.276 31.283 L 86.276 31.283 L 86.72 31.209 L 86.794 31.209 L 86.868 31.209 L 87.386 31.135 L 86.72 31.135 L 86.572 31.135 L 86.572 31.135 L 86.424 31.135 L 86.35 31.135 L 85.979 31.061 L 85.979 31.061 L 85.831 31.061 L 85.757 31.061 L 85.609 31.061 L 85.609 31.061 L 85.535 31.061 L 85.461 31.061 L 85.313 30.987 C 81.833 29.58 78.723 25.137 75.169 23.582 C 66.21 20.991 61.102 28.247 58.066 34.392 C 41.777 18.622 19.935 21.509 15.863 1 C 24.896 8.034 35.706 3.517 43.406 2.259 L 43.406 2.259 L 43.406 2.259 Z " fill-rule="evenodd" fill="rgb(145,165,194)"/><path d=" M 54.956 80.742 C 55.252 80.52 55.549 80.298 55.845 80.076 L 54.956 80.742 Z " fill-rule="evenodd" fill="rgb(145,165,194)"/><path d=" M 9.569 71.635 C 0.24 55.198 1.795 34.763 13.345 19.806 C 13.345 35.207 21.416 45.054 37.038 58.308 C 50.144 69.414 37.26 87.702 19.417 98.808 C 23.119 87.998 14.604 79.928 10.458 73.412 C 10.161 72.82 9.865 72.227 9.569 71.635 L 9.569 71.635 Z  M 19.491 98.808 L 19.491 98.808 L 19.491 98.808 Z " fill-rule="evenodd" fill="rgb(6,16,88)"/></g></g></g></svg>