<?xml version="1.0" encoding="UTF-8" standalone="no"?><!-- Generator: Gravit.io --><svg xmlns="http://www.w3.org/2000/svg" xmlns:xlink="http://www.w3.org/1999/xlink" style="isolation:isolate" viewBox="0 0 100 100" width="100pt" height="100pt"><defs><clipPath id="_clipPath_gI4KkMUo7RabjYnXFARFTnceLTrWktJt"><rect width="100" height="100"/></clipPath></defs><g clip-path="url(#_clipPath_gI4KkMUo7RabjYnXFARFTnceLTrWktJt)"><linearGradient id="_lgradient_0" x1="-0.00023369946249106522" y1="0.4998853473973864" x2="0.9997663005375089" y2="0.4998853473973864" gradientTransform="matrix(14.485,0,0,14.763,-64,38.32)" gradientUnits="userSpaceOnUse"><stop offset="30%" stop-opacity="1" style="stop-color:rgb(231,74,33)"/><stop offset="70%" stop-opacity="1" style="stop-color:rgb(236,154,30)"/></linearGradient><path d=" M -54 44.044 L -54.041 44.149 C -53.364 44.447 -51.844 45.629 -51.844 48.008 C -51.844 50.25 -53.733 52.507 -56.701 52.507 C -60.395 52.507 -61.668 50.348 -61.668 48.364 C -61.668 45.822 -59.89 44.129 -59.89 41.814 C -59.91 40.127 -61.093 38.678 -62.741 38.32 L -62.802 38.425 C -62.215 38.994 -61.886 39.778 -61.891 40.595 C -61.891 43.097 -64 44.874 -64 47.744 C -64 50.388 -62.152 53.083 -56.8 53.083 C -52.03 53.083 -49.515 50.747 -49.515 48.262 C -49.518 46.13 -51.045 44.325 -54 44.044 L -54 44.044 Z " fill="url(#_lgradient_0)"/><g><path d=" M 51.108 73.51 L 51.148 60.659 C 51.157 55.421 52.239 49.568 54.248 43.601 C 56.53 36.806 59.811 31.036 63.442 26.835 L 68.985 19.643 L 68.985 49.69 L 51.108 73.51 Z " fill="rgb(38,158,117)"/><path d=" M 68.985 19.643 L 80.756 4.37 C 81.706 3.12 83.266 2.683 84.673 3.235 C 86.079 3.789 87.013 5.207 87 6.829 L 86.911 25.808 L 68.985 49.69 L 68.985 19.643 Z " fill="rgb(159,209,66)"/><path d=" M 86.91 25.808 L 86.858 36.712 C 87.045 42.308 86.114 48.751 83.918 55.283 C 81.908 61.25 79.286 66.496 76.179 70.516 L 68.984 79.888 L 68.984 49.69 L 86.91 25.808 Z " fill="rgb(53,120,110)"/><path d=" M 68.985 49.69 L 68.985 79.888 L 57.297 95.118 C 56.346 96.369 54.783 96.805 53.376 96.254 C 51.974 95.699 51.036 94.278 51.049 92.66 L 51.108 73.51 L 68.985 49.69 Z " fill="rgb(32,78,119)"/><path d=" M 48.574 73.51 L 48.535 60.659 C 48.525 55.421 47.443 49.568 45.434 43.601 C 43.152 36.806 39.871 31.036 36.24 26.835 L 30.697 19.643 L 30.697 49.69 L 48.574 73.51 Z " fill="rgb(38,158,117)"/><path d=" M 30.696 19.643 L 18.926 4.37 C 17.975 3.12 16.415 2.683 15.009 3.235 C 13.606 3.789 12.668 5.207 12.682 6.829 L 12.773 25.808 L 30.696 49.69 L 30.696 19.643 Z " fill="rgb(159,209,66)"/><path d=" M 12.772 25.808 L 12.824 36.712 C 12.637 42.308 13.565 48.751 15.764 55.283 C 17.774 61.25 20.396 66.496 23.503 70.516 L 30.695 79.888 L 30.695 49.69 L 12.772 25.808 Z " fill="rgb(53,120,110)"/><path d=" M 30.696 49.69 L 30.696 79.888 L 42.385 95.118 C 43.335 96.369 44.899 96.805 46.305 96.254 C 47.708 95.699 48.645 94.278 48.632 92.66 L 48.573 73.51 L 30.696 49.69 Z " fill="rgb(32,78,119)"/></g></g></svg>