<?xml version="1.0" encoding="UTF-8" standalone="no"?><!-- Generator: Gravit.io --><svg xmlns="http://www.w3.org/2000/svg" xmlns:xlink="http://www.w3.org/1999/xlink" style="isolation:isolate" viewBox="0 0 100 100" width="100pt" height="100pt"><defs><clipPath id="_clipPath_EIySogI7q3s2yYzoNBeH5IMZ6nNTgzZe"><rect width="100" height="100"/></clipPath></defs><g clip-path="url(#_clipPath_EIySogI7q3s2yYzoNBeH5IMZ6nNTgzZe)"><g><path d=" M 73.235 73.789 L 73.235 74.589 C 72.078 73.657 70.642 73.165 69.076 73.165 C 65.114 73.165 62.009 76.501 62.009 80.76 C 62.009 82.662 62.663 84.474 63.85 85.863 C 65.161 87.405 67.193 88.326 69.283 88.326 C 70.782 88.326 72.111 87.847 73.235 86.904 L 73.235 87.701 C 73.235 87.881 73.38 88.027 73.558 88.027 L 76.678 88.027 C 76.856 88.027 77 87.881 77 87.701 L 77 73.789 C 77 73.609 76.856 73.464 76.678 73.464 L 73.558 73.464 C 73.38 73.464 73.235 73.609 73.235 73.789 M 73.524 80.76 C 73.524 82.734 72.024 84.683 69.723 84.683 C 67.519 84.683 65.922 82.988 65.922 80.76 C 65.922 78.29 67.745 76.823 69.677 76.823 C 72.074 76.823 73.524 78.785 73.524 80.76 Z " fill="rgb(32,78,119)"/><path d=" M 31.917 84.794 C 31.042 84.794 30.416 84.523 29.995 83.995 C 29.679 83.598 29.531 83.068 29.531 82.196 L 29.531 76.823 L 33.564 76.823 C 33.734 76.823 33.871 76.684 33.871 76.512 L 33.871 73.751 C 33.871 73.579 33.734 73.44 33.564 73.44 L 29.531 73.44 L 29.531 69.732 C 29.531 69.552 29.386 69.406 29.209 69.406 L 25.941 69.406 C 25.763 69.406 25.619 69.552 25.619 69.732 L 25.619 73.44 L 23.322 73.44 C 23.144 73.44 23 73.586 23 73.766 L 23 76.497 C 23 76.677 23.144 76.823 23.322 76.823 L 25.619 76.823 L 25.619 81.842 C 25.619 83.892 25.939 85.194 26.69 86.196 C 27.711 87.574 29.437 88.302 31.681 88.302 C 33.41 88.302 34.515 87.889 35.111 87.416 C 35.283 87.279 35.318 86.972 35.217 86.826 C 35.134 86.708 33.801 84.574 33.801 84.574 C 33.68 84.377 33.424 84.331 33.209 84.45 C 32.918 84.61 32.362 84.794 31.917 84.794" fill="rgb(32,78,119)"/><path d=" M 41.437 73.141 C 39.428 73.141 37.614 73.95 36.329 75.42 C 35.104 76.822 34.429 78.71 34.429 80.737 C 34.429 85.191 37.53 88.302 41.969 88.302 C 43.921 88.302 45.842 87.585 47.197 86.388 C 47.258 86.334 47.329 86.265 47.403 86.19 C 47.517 86.076 47.53 85.893 47.433 85.763 C 47.084 85.298 46.278 84.225 45.884 83.701 C 45.769 83.547 45.546 83.528 45.408 83.662 C 45.318 83.747 45.212 83.844 45.1 83.936 C 44.46 84.46 43.422 85.092 42.058 85.092 C 40.018 85.092 38.448 83.712 38.228 81.729 L 47.747 81.729 C 47.982 81.729 48.181 81.55 48.204 81.312 C 48.223 81.127 48.238 80.884 48.238 80.587 C 48.238 78.593 47.561 76.731 46.331 75.346 C 45.069 73.924 43.332 73.141 41.437 73.141 Z  M 41.437 76.351 C 42.662 76.351 44.071 77.293 44.234 78.818 L 38.406 78.818 C 38.59 77.623 39.789 76.351 41.437 76.351" fill="rgb(32,78,119)"/><path d=" M 55.349 84.572 L 55.356 82.49 C 55.357 81.641 55.533 80.693 55.859 79.727 C 56.229 78.626 56.761 77.691 57.35 77.011 L 58.249 75.846 L 58.249 80.713 L 55.349 84.572 Z " fill="rgb(38,158,117)"/><path d=" M 58.249 75.846 L 60.159 73.372 C 60.313 73.169 60.566 73.098 60.794 73.188 C 61.022 73.278 61.174 73.507 61.172 73.77 L 61.157 76.844 L 58.249 80.713 L 58.249 75.846 Z " fill="rgb(159,209,66)"/><path d=" M 61.157 76.844 L 61.149 78.611 C 61.179 79.517 61.028 80.561 60.672 81.619 C 60.346 82.586 59.92 83.435 59.416 84.087 L 58.249 85.605 L 58.249 80.713 L 61.157 76.844 Z " fill="rgb(53,120,110)"/><path d=" M 58.249 80.713 L 58.249 85.605 L 56.353 88.072 C 56.199 88.275 55.946 88.345 55.717 88.256 C 55.49 88.166 55.338 87.936 55.34 87.674 L 55.349 84.572 L 58.249 80.713 Z " fill="rgb(32,78,119)"/><path d=" M 54.938 84.572 L 54.932 82.49 C 54.93 81.641 54.755 80.693 54.429 79.727 C 54.059 78.626 53.527 77.691 52.938 77.011 L 52.038 75.846 L 52.038 80.713 L 54.938 84.572 Z " fill="rgb(38,158,117)"/><path d=" M 52.038 75.846 L 50.129 73.372 C 49.975 73.169 49.722 73.098 49.493 73.188 C 49.266 73.278 49.114 73.507 49.116 73.77 L 49.131 76.844 L 52.038 80.713 L 52.038 75.846 Z " fill="rgb(159,209,66)"/><path d=" M 49.131 76.844 L 49.139 78.611 C 49.109 79.517 49.259 80.561 49.616 81.619 C 49.942 82.586 50.367 83.435 50.871 84.087 L 52.038 85.605 L 52.038 80.713 L 49.131 76.844 Z " fill="rgb(53,120,110)"/><path d=" M 52.038 80.713 L 52.038 85.605 L 53.934 88.072 C 54.089 88.275 54.342 88.345 54.57 88.256 C 54.798 88.166 54.95 87.936 54.948 87.674 L 54.938 84.572 L 52.038 80.713 Z " fill="rgb(32,78,119)"/></g><clipPath id="_clipPath_tQPWjScY7AyykiUNFkFkLp8Bkw3WqWDs"><rect x="20.5" y="5.333" width="59" height="59" transform="matrix(1,0,0,1,0,0)" fill="rgb(255,255,255)"/></clipPath><g clip-path="url(#_clipPath_tQPWjScY7AyykiUNFkFkLp8Bkw3WqWDs)"><g><linearGradient id="_lgradient_5" x1="-0.00023369946249118811" y1="0.4998853473973863" x2="0.9997663005375088" y2="0.4998853473973863" gradientTransform="matrix(8.546,0,0,8.71,-17.26,27.942)" gradientUnits="userSpaceOnUse"><stop offset="30%" stop-opacity="1" style="stop-color:rgb(231,74,33)"/><stop offset="70%" stop-opacity="1" style="stop-color:rgb(236,154,30)"/></linearGradient><path d=" M -11.36 31.319 L -11.384 31.381 C -10.985 31.557 -10.088 32.254 -10.088 33.658 C -10.088 34.981 -11.202 36.312 -12.954 36.312 C -15.133 36.312 -15.884 35.039 -15.884 33.868 C -15.884 32.368 -14.835 31.369 -14.835 30.004 C -14.847 29.008 -15.545 28.153 -16.517 27.942 L -16.553 28.004 C -16.207 28.34 -16.013 28.802 -16.016 29.284 C -16.016 30.761 -17.26 31.809 -17.26 33.502 C -17.26 35.062 -16.17 36.652 -13.012 36.652 C -10.198 36.652 -8.714 35.274 -8.714 33.808 C -8.716 32.55 -9.617 31.485 -11.36 31.319 L -11.36 31.319 Z " fill="url(#_lgradient_5)"/><g><path d=" M 50.654 48.704 L 50.677 41.122 C 50.683 38.032 51.321 34.578 52.506 31.058 C 53.853 27.049 55.788 23.645 57.931 21.166 L 61.201 16.923 L 61.201 34.65 L 50.654 48.704 Z " fill="rgb(38,158,117)"/><path d=" M 61.201 16.923 L 68.146 7.912 C 68.707 7.174 69.627 6.916 70.457 7.242 C 71.287 7.569 71.838 8.405 71.83 9.362 L 71.777 20.56 L 61.201 34.65 L 61.201 16.923 Z " fill="rgb(159,209,66)"/><path d=" M 71.777 20.56 L 71.746 26.993 C 71.857 30.295 71.307 34.096 70.012 37.95 C 68.826 41.471 67.279 44.566 65.446 46.938 L 61.201 52.467 L 61.201 34.65 L 71.777 20.56 Z " fill="rgb(53,120,110)"/><path d=" M 61.201 34.65 L 61.201 52.467 L 54.305 61.453 C 53.744 62.191 52.822 62.448 51.992 62.123 C 51.165 61.796 50.611 60.957 50.619 60.003 L 50.654 48.704 L 61.201 34.65 Z " fill="rgb(32,78,119)"/><path d=" M 49.159 48.704 L 49.136 41.122 C 49.13 38.032 48.491 34.578 47.306 31.058 C 45.96 27.049 44.024 23.645 41.882 21.166 L 38.611 16.923 L 38.611 34.65 L 49.159 48.704 Z " fill="rgb(38,158,117)"/><path d=" M 38.611 16.923 L 31.666 7.912 C 31.105 7.174 30.185 6.916 29.355 7.242 C 28.528 7.569 27.974 8.405 27.982 9.362 L 28.036 20.56 L 38.611 34.65 L 38.611 16.923 Z " fill="rgb(159,209,66)"/><path d=" M 28.035 20.56 L 28.066 26.993 C 27.956 30.295 28.503 34.096 29.801 37.95 C 30.987 41.471 32.534 44.566 34.367 46.938 L 38.61 52.467 L 38.61 34.65 L 28.035 20.56 Z " fill="rgb(53,120,110)"/><path d=" M 38.611 34.65 L 38.611 52.467 L 45.507 61.453 C 46.068 62.191 46.99 62.448 47.82 62.123 C 48.648 61.796 49.201 60.957 49.193 60.003 L 49.158 48.704 L 38.611 34.65 Z " fill="rgb(32,78,119)"/></g></g></g></g></svg>