<?xml version="1.0" encoding="UTF-8"?> <svg xmlns="http://www.w3.org/2000/svg" viewBox="0 0 1020.1 101.6"> <defs> <style>.cls-1{fill:#00addc;}</style> </defs> <title>вместе онлайн гориз</title> <g id="Слой_2" data-name="Слой 2"> <g id="Layer_1" data-name="Layer 1"> <path class="cls-1" d="M.1,7.8h57c20.1,0,30.8,10.3,30.8,24.9,0,9.5-6.2,15.5-12.3,18.3,7.7,2.8,14.7,10.1,14.7,22.6,0,15.8-11.2,26.2-32.5,26.2H0V7.7H.1Zm26,20.7V42.2H51.8c5.4,0,9-1.9,9-6.8s-3.5-6.8-9-6.8H26.1Zm0,34.4V79H52.3c6.9,0,10.9-2.5,10.9-8.1s-3.9-8.1-10.9-8.1H26.1Z"></path> <path class="cls-1" d="M95.4,31.2h35.7l14.7,34.4,14.5-34.4h35.1V99.7H170.6v-45L152.9,99.5H136.6l-18.2-45v45H95.2V31.1h.2Z"></path> <path class="cls-1" d="M274.7,65.4v5.4H224.8c1.1,6.8,6.3,11.7,13.9,11.7,6,0,9.2-2.4,10.1-3.5h25.3c-1.1,9.3-11.4,22.6-35.4,22.6-24.3,0-39.2-14.7-39.2-36.2,0-22.1,15.3-36,37.7-36C260,29.4,274.7,43,274.7,65.4Zm-49.8-9.1h24.6c-1.3-5.7-6-9.2-12.3-9.2S226.2,50.6,224.9,56.3Z"></path> <path class="cls-1" d="M314.5,51.1c-7.3,0-11.5,6-11.5,14.2,0,8.4,4.4,14.4,11.7,14.4,6.2,0,9-3.8,9.6-5.1h24.4c-.8,11.8-10.9,26.8-34.9,26.8-20.5,0-36.3-13.4-36.3-36.2,0-22.4,15.9-36,36.2-36,24,0,34.1,14.7,35.2,26.8H324.1A11.21,11.21,0,0,0,314.5,51.1Z"></path> <path class="cls-1" d="M374.6,51.9H350V31.2h74.5V51.9H399.9V99.7H374.5V51.9Z"></path> <path class="cls-1" d="M499,65.4v5.4H449.3c1.1,6.8,6.3,11.7,13.9,11.7,6,0,9.2-2.4,10.1-3.5h25.3c-1.1,9.3-11.4,22.6-35.4,22.6-24.3,0-39.2-14.7-39.2-36.2,0-22.1,15.3-36,37.7-36C484.5,29.4,499,43,499,65.4Zm-49.7-9.1h24.6c-1.3-5.7-6-9.2-12.3-9.2C455.1,47.1,450.7,50.6,449.3,56.3Z"></path> <path class="cls-1" d="M524.2,53.7c0-29.1,21.6-47.5,49.3-47.5s49.3,18.5,49.3,47.5c0,28.6-21.6,47.5-49.3,47.5C545.6,101.3,524.2,82.3,524.2,53.7Zm71.6,0c0-13.4-8.4-24-22.4-24S551,40.1,551,53.7c0,13.4,8.4,24,22.4,24S595.8,67.2,595.8,53.7Z"></path> <path class="cls-1" d="M626.5,31.2h25.4V54.1h22.9V31.2h25.4V99.7H674.8V74.9H651.9V99.7H626.5Z"></path> <path class="cls-1" d="M716,31.2h62.8V99.7H753.4V51.9H737.1l-1.7,18.8c-1.7,19.7-6.8,29.1-26.2,29.1H703V76.4h1.6c5.8,0,7.3-1.6,7.9-9Z"></path> <path class="cls-1" d="M813.1,101c-16.9,0-30-13.4-30-35.5,0-21.9,13.3-35.5,30.2-35.5,13.7,0,19.6,8.2,20.5,9.8V31.3h25.6V99.8H834.3V90.5C833.2,92.1,827,101,813.1,101Zm8.2-49.8c-7.6,0-12.6,6.2-12.6,14.1,0,8.2,5.1,14.2,12.6,14.2s12.6-6.2,12.6-14.2C834.1,57.4,829.1,51.2,821.3,51.2Z"></path> <path class="cls-1" d="M865.2,31.2h25.1V66.4l24.8-35.2h25.3V99.7H915.3V64.5L890.5,99.7H865.4V31.2Zm43-29.1V0h19.3V2.4c0,12.2-7.3,22.4-24.5,22.4S878.5,14.5,878.5,2.4V0h19.3V1.9c0,2.8,1.3,5.4,5.2,5.4C906.8,7.5,908.2,5,908.2,2.1Z"></path> <path class="cls-1" d="M946.4,31.2h25.4V54.1h22.9V31.2h25.4V99.7H994.7V74.9H971.8V99.7H946.4Z"></path> </g> </g> </svg> 